<?xml version="1.0" encoding="utf-8" standalone="no"?>
<!DOCTYPE svg PUBLIC "-//W3C//DTD SVG 1.1//EN"
  "http://www.w3.org/Graphics/SVG/1.1/DTD/svg11.dtd">
<svg xmlns:xlink="http://www.w3.org/1999/xlink" width="720pt" height="504pt" viewBox="0 0 720 504" xmlns="http://www.w3.org/2000/svg" version="1.1">
 <metadata>
  <rdf:RDF xmlns:dc="http://purl.org/dc/elements/1.1/" xmlns:cc="http://creativecommons.org/ns#" xmlns:rdf="http://www.w3.org/1999/02/22-rdf-syntax-ns#">
   <cc:Work>
    <dc:type rdf:resource="http://purl.org/dc/dcmitype/StillImage"/>
    <dc:date>2022-11-02T23:34:52.591686</dc:date>
    <dc:format>image/svg+xml</dc:format>
    <dc:creator>
     <cc:Agent>
      <dc:title>Matplotlib v3.6.0, https://matplotlib.org/</dc:title>
     </cc:Agent>
    </dc:creator>
   </cc:Work>
  </rdf:RDF>
 </metadata>
 <defs>
  <style type="text/css">*{stroke-linejoin: round; stroke-linecap: butt}</style>
 </defs>
 <g id="figure_1">
  <g id="patch_1">
   <path d="M 0 504 
L 720 504 
L 720 0 
L 0 0 
z
" style="fill: #ffffff"/>
  </g>
  <g id="axes_1">
   <g id="patch_2">
    <path d="M 90 448.56 
L 648 448.56 
L 648 60.48 
L 90 60.48 
z
" style="fill: #ffffff"/>
   </g>
   <g id="matplotlib.axis_1">
    <g id="xtick_1">
     <g id="line2d_1">
      <path d="M 115.363636 448.56 
L 115.363636 60.48 
" clip-path="url(#pa68e34ea6e)" style="fill: none; stroke: #cccccc; stroke-width: 0.8; stroke-linecap: round"/>
     </g>
     <g id="line2d_2"/>
     <g id="text_1">
      <!-- 0.0 -->
      <g style="fill: #262626" transform="translate(104.938636 462.930313) scale(0.15 -0.15)">
       <defs>
        <path id="LiberationSans-30" d="M 3309 2203 
Q 3309 1569 3189 1136 
Q 3069 703 2861 436 
Q 2653 169 2372 53 
Q 2091 -63 1772 -63 
Q 1450 -63 1172 53 
Q 894 169 689 434 
Q 484 700 367 1133 
Q 250 1566 250 2203 
Q 250 2869 367 3305 
Q 484 3741 690 4000 
Q 897 4259 1178 4364 
Q 1459 4469 1791 4469 
Q 2106 4469 2382 4364 
Q 2659 4259 2865 4000 
Q 3072 3741 3190 3305 
Q 3309 2869 3309 2203 
z
M 2738 2203 
Q 2738 2728 2675 3076 
Q 2613 3425 2491 3633 
Q 2369 3841 2192 3927 
Q 2016 4013 1791 4013 
Q 1553 4013 1372 3925 
Q 1191 3838 1067 3630 
Q 944 3422 881 3073 
Q 819 2725 819 2203 
Q 819 1697 883 1350 
Q 947 1003 1070 792 
Q 1194 581 1372 489 
Q 1550 397 1778 397 
Q 2000 397 2178 489 
Q 2356 581 2479 792 
Q 2603 1003 2670 1350 
Q 2738 1697 2738 2203 
z
" transform="scale(0.015625)"/>
        <path id="LiberationSans-2e" d="M 584 0 
L 584 684 
L 1194 684 
L 1194 0 
L 584 0 
z
" transform="scale(0.015625)"/>
       </defs>
       <use xlink:href="#LiberationSans-30"/>
       <use xlink:href="#LiberationSans-2e" x="55.615234"/>
       <use xlink:href="#LiberationSans-30" x="83.398438"/>
      </g>
     </g>
    </g>
    <g id="xtick_2">
     <g id="line2d_3">
      <path d="M 216.818182 448.56 
L 216.818182 60.48 
" clip-path="url(#pa68e34ea6e)" style="fill: none; stroke: #cccccc; stroke-width: 0.8; stroke-linecap: round"/>
     </g>
     <g id="line2d_4"/>
     <g id="text_2">
      <!-- 0.2 -->
      <g style="fill: #262626" transform="translate(206.393182 462.930313) scale(0.15 -0.15)">
       <defs>
        <path id="LiberationSans-32" d="M 322 0 
L 322 397 
Q 481 763 711 1042 
Q 941 1322 1194 1548 
Q 1447 1775 1695 1969 
Q 1944 2163 2144 2356 
Q 2344 2550 2467 2762 
Q 2591 2975 2591 3244 
Q 2591 3431 2534 3573 
Q 2478 3716 2372 3812 
Q 2266 3909 2117 3957 
Q 1969 4006 1788 4006 
Q 1619 4006 1470 3959 
Q 1322 3913 1206 3819 
Q 1091 3725 1017 3586 
Q 944 3447 922 3263 
L 347 3316 
Q 375 3553 478 3762 
Q 581 3972 762 4130 
Q 944 4288 1198 4378 
Q 1453 4469 1788 4469 
Q 2116 4469 2372 4391 
Q 2628 4313 2804 4159 
Q 2981 4006 3075 3781 
Q 3169 3556 3169 3263 
Q 3169 3041 3089 2841 
Q 3009 2641 2876 2459 
Q 2744 2278 2569 2109 
Q 2394 1941 2203 1780 
Q 2013 1619 1819 1461 
Q 1625 1303 1454 1143 
Q 1284 984 1150 820 
Q 1016 656 941 478 
L 3238 478 
L 3238 0 
L 322 0 
z
" transform="scale(0.015625)"/>
       </defs>
       <use xlink:href="#LiberationSans-30"/>
       <use xlink:href="#LiberationSans-2e" x="55.615234"/>
       <use xlink:href="#LiberationSans-32" x="83.398438"/>
      </g>
     </g>
    </g>
    <g id="xtick_3">
     <g id="line2d_5">
      <path d="M 318.272727 448.56 
L 318.272727 60.48 
" clip-path="url(#pa68e34ea6e)" style="fill: none; stroke: #cccccc; stroke-width: 0.8; stroke-linecap: round"/>
     </g>
     <g id="line2d_6"/>
     <g id="text_3">
      <!-- 0.4 -->
      <g style="fill: #262626" transform="translate(307.847727 462.930313) scale(0.15 -0.15)">
       <defs>
        <path id="LiberationSans-34" d="M 2753 997 
L 2753 0 
L 2222 0 
L 2222 997 
L 147 997 
L 147 1434 
L 2163 4403 
L 2753 4403 
L 2753 1441 
L 3372 1441 
L 3372 997 
L 2753 997 
z
M 2222 3769 
Q 2216 3753 2191 3708 
Q 2166 3663 2134 3606 
Q 2103 3550 2070 3492 
Q 2038 3434 2013 3397 
L 884 1734 
Q 869 1709 839 1668 
Q 809 1628 778 1586 
Q 747 1544 715 1503 
Q 684 1463 666 1441 
L 2222 1441 
L 2222 3769 
z
" transform="scale(0.015625)"/>
       </defs>
       <use xlink:href="#LiberationSans-30"/>
       <use xlink:href="#LiberationSans-2e" x="55.615234"/>
       <use xlink:href="#LiberationSans-34" x="83.398438"/>
      </g>
     </g>
    </g>
    <g id="xtick_4">
     <g id="line2d_7">
      <path d="M 419.727273 448.56 
L 419.727273 60.48 
" clip-path="url(#pa68e34ea6e)" style="fill: none; stroke: #cccccc; stroke-width: 0.8; stroke-linecap: round"/>
     </g>
     <g id="line2d_8"/>
     <g id="text_4">
      <!-- 0.6 -->
      <g style="fill: #262626" transform="translate(409.302273 462.930313) scale(0.15 -0.15)">
       <defs>
        <path id="LiberationSans-36" d="M 3278 1441 
Q 3278 1109 3186 832 
Q 3094 556 2914 357 
Q 2734 159 2468 48 
Q 2203 -63 1856 -63 
Q 1472 -63 1184 84 
Q 897 231 706 507 
Q 516 784 420 1186 
Q 325 1588 325 2100 
Q 325 2688 433 3131 
Q 541 3575 744 3872 
Q 947 4169 1239 4319 
Q 1531 4469 1900 4469 
Q 2125 4469 2322 4422 
Q 2519 4375 2680 4270 
Q 2841 4166 2962 3994 
Q 3084 3822 3156 3572 
L 2619 3475 
Q 2531 3759 2339 3886 
Q 2147 4013 1894 4013 
Q 1663 4013 1475 3903 
Q 1288 3794 1156 3576 
Q 1025 3359 954 3031 
Q 884 2703 884 2266 
Q 1038 2550 1316 2698 
Q 1594 2847 1953 2847 
Q 2253 2847 2497 2750 
Q 2741 2653 2914 2470 
Q 3088 2288 3183 2027 
Q 3278 1766 3278 1441 
z
M 2706 1416 
Q 2706 1644 2650 1828 
Q 2594 2013 2481 2142 
Q 2369 2272 2203 2342 
Q 2038 2413 1819 2413 
Q 1666 2413 1509 2367 
Q 1353 2322 1226 2220 
Q 1100 2119 1020 1953 
Q 941 1788 941 1550 
Q 941 1306 1003 1095 
Q 1066 884 1183 728 
Q 1300 572 1465 481 
Q 1631 391 1838 391 
Q 2041 391 2202 461 
Q 2363 531 2475 664 
Q 2588 797 2647 987 
Q 2706 1178 2706 1416 
z
" transform="scale(0.015625)"/>
       </defs>
       <use xlink:href="#LiberationSans-30"/>
       <use xlink:href="#LiberationSans-2e" x="55.615234"/>
       <use xlink:href="#LiberationSans-36" x="83.398438"/>
      </g>
     </g>
    </g>
    <g id="xtick_5">
     <g id="line2d_9">
      <path d="M 521.181818 448.56 
L 521.181818 60.48 
" clip-path="url(#pa68e34ea6e)" style="fill: none; stroke: #cccccc; stroke-width: 0.8; stroke-linecap: round"/>
     </g>
     <g id="line2d_10"/>
     <g id="text_5">
      <!-- 0.8 -->
      <g style="fill: #262626" transform="translate(510.756818 462.930313) scale(0.15 -0.15)">
       <defs>
        <path id="LiberationSans-38" d="M 3281 1228 
Q 3281 947 3192 711 
Q 3103 475 2920 303 
Q 2738 131 2453 34 
Q 2169 -63 1781 -63 
Q 1394 -63 1111 34 
Q 828 131 642 301 
Q 456 472 367 708 
Q 278 944 278 1222 
Q 278 1463 351 1650 
Q 425 1838 548 1973 
Q 672 2109 830 2192 
Q 988 2275 1156 2303 
L 1156 2316 
Q 972 2359 826 2456 
Q 681 2553 582 2689 
Q 484 2825 432 2990 
Q 381 3156 381 3341 
Q 381 3572 470 3776 
Q 559 3981 734 4136 
Q 909 4291 1168 4380 
Q 1428 4469 1769 4469 
Q 2128 4469 2392 4378 
Q 2656 4288 2829 4133 
Q 3003 3978 3087 3772 
Q 3172 3566 3172 3334 
Q 3172 3153 3120 2987 
Q 3069 2822 2970 2686 
Q 2872 2550 2726 2454 
Q 2581 2359 2391 2322 
L 2391 2309 
Q 2581 2278 2743 2195 
Q 2906 2113 3025 1977 
Q 3144 1841 3212 1653 
Q 3281 1466 3281 1228 
z
M 2588 3303 
Q 2588 3469 2545 3606 
Q 2503 3744 2406 3842 
Q 2309 3941 2153 3995 
Q 1997 4050 1769 4050 
Q 1547 4050 1394 3995 
Q 1241 3941 1142 3842 
Q 1044 3744 1000 3606 
Q 956 3469 956 3303 
Q 956 3172 990 3034 
Q 1025 2897 1115 2784 
Q 1206 2672 1365 2600 
Q 1525 2528 1775 2528 
Q 2041 2528 2202 2600 
Q 2363 2672 2448 2784 
Q 2534 2897 2561 3034 
Q 2588 3172 2588 3303 
z
M 2697 1281 
Q 2697 1441 2653 1589 
Q 2609 1738 2503 1852 
Q 2397 1966 2217 2036 
Q 2038 2106 1769 2106 
Q 1522 2106 1348 2036 
Q 1175 1966 1067 1850 
Q 959 1734 909 1582 
Q 859 1431 859 1269 
Q 859 1066 909 898 
Q 959 731 1068 611 
Q 1178 491 1356 425 
Q 1534 359 1788 359 
Q 2044 359 2219 425 
Q 2394 491 2500 611 
Q 2606 731 2651 901 
Q 2697 1072 2697 1281 
z
" transform="scale(0.015625)"/>
       </defs>
       <use xlink:href="#LiberationSans-30"/>
       <use xlink:href="#LiberationSans-2e" x="55.615234"/>
       <use xlink:href="#LiberationSans-38" x="83.398438"/>
      </g>
     </g>
    </g>
    <g id="xtick_6">
     <g id="line2d_11">
      <path d="M 622.636364 448.56 
L 622.636364 60.48 
" clip-path="url(#pa68e34ea6e)" style="fill: none; stroke: #cccccc; stroke-width: 0.8; stroke-linecap: round"/>
     </g>
     <g id="line2d_12"/>
     <g id="text_6">
      <!-- 1.0 -->
      <g style="fill: #262626" transform="translate(612.211364 462.930313) scale(0.15 -0.15)">
       <defs>
        <path id="LiberationSans-31" d="M 488 0 
L 488 478 
L 1609 478 
L 1609 3866 
L 616 3156 
L 616 3688 
L 1656 4403 
L 2175 4403 
L 2175 478 
L 3247 478 
L 3247 0 
L 488 0 
z
" transform="scale(0.015625)"/>
       </defs>
       <use xlink:href="#LiberationSans-31"/>
       <use xlink:href="#LiberationSans-2e" x="55.615234"/>
       <use xlink:href="#LiberationSans-30" x="83.398438"/>
      </g>
     </g>
    </g>
    <g id="text_7">
     <!-- False Positive Rate -->
     <g style="fill: #262626" transform="translate(300.085 481.637812) scale(0.16 -0.16)">
      <defs>
       <path id="LiberationSans-46" d="M 1122 3916 
L 1122 2278 
L 3578 2278 
L 3578 1784 
L 1122 1784 
L 1122 0 
L 525 0 
L 525 4403 
L 3653 4403 
L 3653 3916 
L 1122 3916 
z
" transform="scale(0.015625)"/>
       <path id="LiberationSans-61" d="M 1294 -63 
Q 784 -63 528 206 
Q 272 475 272 944 
Q 272 1278 398 1492 
Q 525 1706 729 1828 
Q 934 1950 1196 1997 
Q 1459 2044 1731 2050 
L 2491 2063 
L 2491 2247 
Q 2491 2456 2447 2603 
Q 2403 2750 2312 2840 
Q 2222 2931 2086 2973 
Q 1950 3016 1766 3016 
Q 1603 3016 1472 2992 
Q 1341 2969 1244 2908 
Q 1147 2847 1087 2742 
Q 1028 2638 1009 2478 
L 422 2531 
Q 453 2731 540 2898 
Q 628 3066 789 3187 
Q 950 3309 1192 3376 
Q 1434 3444 1778 3444 
Q 2416 3444 2737 3151 
Q 3059 2859 3059 2306 
L 3059 850 
Q 3059 600 3125 473 
Q 3191 347 3375 347 
Q 3422 347 3469 353 
Q 3516 359 3559 369 
L 3559 19 
Q 3453 -6 3348 -18 
Q 3244 -31 3125 -31 
Q 2966 -31 2852 11 
Q 2738 53 2666 139 
Q 2594 225 2556 351 
Q 2519 478 2509 647 
L 2491 647 
Q 2400 484 2292 353 
Q 2184 222 2040 130 
Q 1897 38 1714 -12 
Q 1531 -63 1294 -63 
z
M 1422 359 
Q 1691 359 1892 457 
Q 2094 556 2226 709 
Q 2359 863 2425 1044 
Q 2491 1225 2491 1391 
L 2491 1669 
L 1875 1656 
Q 1669 1653 1483 1626 
Q 1297 1600 1156 1522 
Q 1016 1444 933 1303 
Q 850 1163 850 934 
Q 850 659 998 509 
Q 1147 359 1422 359 
z
" transform="scale(0.015625)"/>
       <path id="LiberationSans-6c" d="M 431 0 
L 431 4638 
L 994 4638 
L 994 0 
L 431 0 
z
" transform="scale(0.015625)"/>
       <path id="LiberationSans-73" d="M 2969 934 
Q 2969 697 2876 511 
Q 2784 325 2609 198 
Q 2434 72 2179 4 
Q 1925 -63 1597 -63 
Q 1303 -63 1067 -17 
Q 831 28 653 128 
Q 475 228 354 392 
Q 234 556 178 794 
L 675 891 
Q 747 619 972 492 
Q 1197 366 1597 366 
Q 1778 366 1929 391 
Q 2081 416 2190 477 
Q 2300 538 2361 639 
Q 2422 741 2422 891 
Q 2422 1044 2350 1142 
Q 2278 1241 2150 1306 
Q 2022 1372 1839 1420 
Q 1656 1469 1438 1528 
Q 1234 1581 1034 1647 
Q 834 1713 673 1820 
Q 513 1928 413 2087 
Q 313 2247 313 2488 
Q 313 2950 642 3192 
Q 972 3434 1603 3434 
Q 2163 3434 2492 3237 
Q 2822 3041 2909 2606 
L 2403 2544 
Q 2375 2675 2300 2764 
Q 2225 2853 2119 2908 
Q 2013 2963 1880 2986 
Q 1747 3009 1603 3009 
Q 1222 3009 1040 2893 
Q 859 2778 859 2544 
Q 859 2406 926 2317 
Q 994 2228 1114 2167 
Q 1234 2106 1403 2061 
Q 1572 2016 1775 1966 
Q 1909 1931 2050 1892 
Q 2191 1853 2323 1798 
Q 2456 1744 2573 1670 
Q 2691 1597 2778 1494 
Q 2866 1391 2917 1253 
Q 2969 1116 2969 934 
z
" transform="scale(0.015625)"/>
       <path id="LiberationSans-65" d="M 863 1572 
Q 863 1306 917 1082 
Q 972 859 1086 698 
Q 1200 538 1378 448 
Q 1556 359 1806 359 
Q 2172 359 2392 506 
Q 2613 653 2691 878 
L 3184 738 
Q 3131 597 3036 455 
Q 2941 313 2781 198 
Q 2622 84 2383 10 
Q 2144 -63 1806 -63 
Q 1056 -63 664 384 
Q 272 831 272 1713 
Q 272 2188 390 2517 
Q 509 2847 715 3053 
Q 922 3259 1197 3351 
Q 1472 3444 1784 3444 
Q 2209 3444 2495 3306 
Q 2781 3169 2954 2926 
Q 3128 2684 3201 2356 
Q 3275 2028 3275 1647 
L 3275 1572 
L 863 1572 
z
M 2694 2003 
Q 2647 2538 2422 2783 
Q 2197 3028 1775 3028 
Q 1634 3028 1479 2983 
Q 1325 2938 1194 2822 
Q 1063 2706 972 2507 
Q 881 2309 869 2003 
L 2694 2003 
z
" transform="scale(0.015625)"/>
       <path id="LiberationSans-20" transform="scale(0.015625)"/>
       <path id="LiberationSans-50" d="M 3931 3078 
Q 3931 2791 3836 2542 
Q 3741 2294 3552 2111 
Q 3363 1928 3078 1822 
Q 2794 1716 2416 1716 
L 1122 1716 
L 1122 0 
L 525 0 
L 525 4403 
L 2378 4403 
Q 2769 4403 3059 4308 
Q 3350 4213 3544 4039 
Q 3738 3866 3834 3620 
Q 3931 3375 3931 3078 
z
M 3331 3072 
Q 3331 3491 3075 3708 
Q 2819 3925 2306 3925 
L 1122 3925 
L 1122 2188 
L 2331 2188 
Q 2847 2188 3089 2416 
Q 3331 2644 3331 3072 
z
" transform="scale(0.015625)"/>
       <path id="LiberationSans-6f" d="M 3291 1694 
Q 3291 806 2900 371 
Q 2509 -63 1766 -63 
Q 1413 -63 1134 43 
Q 856 150 664 369 
Q 472 588 370 917 
Q 269 1247 269 1694 
Q 269 3444 1784 3444 
Q 2178 3444 2464 3334 
Q 2750 3225 2933 3006 
Q 3116 2788 3203 2459 
Q 3291 2131 3291 1694 
z
M 2700 1694 
Q 2700 2088 2639 2344 
Q 2578 2600 2461 2753 
Q 2344 2906 2175 2967 
Q 2006 3028 1794 3028 
Q 1578 3028 1404 2964 
Q 1231 2900 1109 2745 
Q 988 2591 923 2334 
Q 859 2078 859 1694 
Q 859 1300 928 1042 
Q 997 784 1117 631 
Q 1238 478 1402 415 
Q 1566 353 1759 353 
Q 1975 353 2150 414 
Q 2325 475 2447 628 
Q 2569 781 2634 1040 
Q 2700 1300 2700 1694 
z
" transform="scale(0.015625)"/>
       <path id="LiberationSans-69" d="M 428 4100 
L 428 4638 
L 991 4638 
L 991 4100 
L 428 4100 
z
M 428 0 
L 428 3381 
L 991 3381 
L 991 0 
L 428 0 
z
" transform="scale(0.015625)"/>
       <path id="LiberationSans-74" d="M 1731 25 
Q 1603 -9 1470 -29 
Q 1338 -50 1163 -50 
Q 488 -50 488 716 
L 488 2972 
L 97 2972 
L 97 3381 
L 509 3381 
L 675 4138 
L 1050 4138 
L 1050 3381 
L 1675 3381 
L 1675 2972 
L 1050 2972 
L 1050 838 
Q 1050 594 1129 495 
Q 1209 397 1406 397 
Q 1488 397 1564 409 
Q 1641 422 1731 441 
L 1731 25 
z
" transform="scale(0.015625)"/>
       <path id="LiberationSans-76" d="M 1916 0 
L 1250 0 
L 22 3381 
L 622 3381 
L 1366 1181 
Q 1388 1113 1417 1014 
Q 1447 916 1478 809 
Q 1509 703 1536 604 
Q 1563 506 1581 441 
Q 1600 506 1629 604 
Q 1659 703 1690 806 
Q 1722 909 1755 1007 
Q 1788 1106 1813 1175 
L 2581 3381 
L 3178 3381 
L 1916 0 
z
" transform="scale(0.015625)"/>
       <path id="LiberationSans-52" d="M 3638 0 
L 2494 1828 
L 1122 1828 
L 1122 0 
L 525 0 
L 525 4403 
L 2597 4403 
Q 2972 4403 3261 4317 
Q 3550 4231 3747 4068 
Q 3944 3906 4047 3672 
Q 4150 3438 4150 3144 
Q 4150 2934 4089 2731 
Q 4028 2528 3897 2359 
Q 3766 2191 3562 2069 
Q 3359 1947 3075 1897 
L 4325 0 
L 3638 0 
z
M 3550 3138 
Q 3550 3338 3481 3484 
Q 3413 3631 3281 3729 
Q 3150 3828 2962 3876 
Q 2775 3925 2538 3925 
L 1122 3925 
L 1122 2300 
L 2563 2300 
Q 2819 2300 3006 2364 
Q 3194 2428 3314 2540 
Q 3434 2653 3492 2806 
Q 3550 2959 3550 3138 
z
" transform="scale(0.015625)"/>
      </defs>
      <use xlink:href="#LiberationSans-46"/>
      <use xlink:href="#LiberationSans-61" x="61.083984"/>
      <use xlink:href="#LiberationSans-6c" x="116.699219"/>
      <use xlink:href="#LiberationSans-73" x="138.916016"/>
      <use xlink:href="#LiberationSans-65" x="188.916016"/>
      <use xlink:href="#LiberationSans-20" x="244.53125"/>
      <use xlink:href="#LiberationSans-50" x="272.314453"/>
      <use xlink:href="#LiberationSans-6f" x="339.013672"/>
      <use xlink:href="#LiberationSans-73" x="394.628906"/>
      <use xlink:href="#LiberationSans-69" x="444.628906"/>
      <use xlink:href="#LiberationSans-74" x="466.845703"/>
      <use xlink:href="#LiberationSans-69" x="494.628906"/>
      <use xlink:href="#LiberationSans-76" x="516.845703"/>
      <use xlink:href="#LiberationSans-65" x="566.845703"/>
      <use xlink:href="#LiberationSans-20" x="622.460938"/>
      <use xlink:href="#LiberationSans-52" x="650.244141"/>
      <use xlink:href="#LiberationSans-61" x="722.460938"/>
      <use xlink:href="#LiberationSans-74" x="778.076172"/>
      <use xlink:href="#LiberationSans-65" x="805.859375"/>
     </g>
    </g>
   </g>
   <g id="matplotlib.axis_2">
    <g id="ytick_1">
     <g id="line2d_13">
      <path d="M 90 430.92 
L 648 430.92 
" clip-path="url(#pa68e34ea6e)" style="fill: none; stroke: #cccccc; stroke-width: 0.8; stroke-linecap: round"/>
     </g>
     <g id="line2d_14"/>
     <g id="text_8">
      <!-- 0.0 -->
      <g style="fill: #262626" transform="translate(65.65 436.355156) scale(0.15 -0.15)">
       <use xlink:href="#LiberationSans-30"/>
       <use xlink:href="#LiberationSans-2e" x="55.615234"/>
       <use xlink:href="#LiberationSans-30" x="83.398438"/>
      </g>
     </g>
    </g>
    <g id="ytick_2">
     <g id="line2d_15">
      <path d="M 90 360.36 
L 648 360.36 
" clip-path="url(#pa68e34ea6e)" style="fill: none; stroke: #cccccc; stroke-width: 0.8; stroke-linecap: round"/>
     </g>
     <g id="line2d_16"/>
     <g id="text_9">
      <!-- 0.2 -->
      <g style="fill: #262626" transform="translate(65.65 365.795156) scale(0.15 -0.15)">
       <use xlink:href="#LiberationSans-30"/>
       <use xlink:href="#LiberationSans-2e" x="55.615234"/>
       <use xlink:href="#LiberationSans-32" x="83.398438"/>
      </g>
     </g>
    </g>
    <g id="ytick_3">
     <g id="line2d_17">
      <path d="M 90 289.8 
L 648 289.8 
" clip-path="url(#pa68e34ea6e)" style="fill: none; stroke: #cccccc; stroke-width: 0.8; stroke-linecap: round"/>
     </g>
     <g id="line2d_18"/>
     <g id="text_10">
      <!-- 0.4 -->
      <g style="fill: #262626" transform="translate(65.65 295.235156) scale(0.15 -0.15)">
       <use xlink:href="#LiberationSans-30"/>
       <use xlink:href="#LiberationSans-2e" x="55.615234"/>
       <use xlink:href="#LiberationSans-34" x="83.398438"/>
      </g>
     </g>
    </g>
    <g id="ytick_4">
     <g id="line2d_19">
      <path d="M 90 219.24 
L 648 219.24 
" clip-path="url(#pa68e34ea6e)" style="fill: none; stroke: #cccccc; stroke-width: 0.8; stroke-linecap: round"/>
     </g>
     <g id="line2d_20"/>
     <g id="text_11">
      <!-- 0.6 -->
      <g style="fill: #262626" transform="translate(65.65 224.675156) scale(0.15 -0.15)">
       <use xlink:href="#LiberationSans-30"/>
       <use xlink:href="#LiberationSans-2e" x="55.615234"/>
       <use xlink:href="#LiberationSans-36" x="83.398438"/>
      </g>
     </g>
    </g>
    <g id="ytick_5">
     <g id="line2d_21">
      <path d="M 90 148.68 
L 648 148.68 
" clip-path="url(#pa68e34ea6e)" style="fill: none; stroke: #cccccc; stroke-width: 0.8; stroke-linecap: round"/>
     </g>
     <g id="line2d_22"/>
     <g id="text_12">
      <!-- 0.8 -->
      <g style="fill: #262626" transform="translate(65.65 154.115156) scale(0.15 -0.15)">
       <use xlink:href="#LiberationSans-30"/>
       <use xlink:href="#LiberationSans-2e" x="55.615234"/>
       <use xlink:href="#LiberationSans-38" x="83.398438"/>
      </g>
     </g>
    </g>
    <g id="ytick_6">
     <g id="line2d_23">
      <path d="M 90 78.12 
L 648 78.12 
" clip-path="url(#pa68e34ea6e)" style="fill: none; stroke: #cccccc; stroke-width: 0.8; stroke-linecap: round"/>
     </g>
     <g id="line2d_24"/>
     <g id="text_13">
      <!-- 1.0 -->
      <g style="fill: #262626" transform="translate(65.65 83.555156) scale(0.15 -0.15)">
       <use xlink:href="#LiberationSans-31"/>
       <use xlink:href="#LiberationSans-2e" x="55.615234"/>
       <use xlink:href="#LiberationSans-30" x="83.398438"/>
      </g>
     </g>
    </g>
    <g id="text_14">
     <!-- True Positive Rate -->
     <g style="fill: #262626" transform="translate(58.33 320.02125) rotate(-90) scale(0.16 -0.16)">
      <defs>
       <path id="LiberationSans-54" d="M 2250 3916 
L 2250 0 
L 1656 0 
L 1656 3916 
L 144 3916 
L 144 4403 
L 3763 4403 
L 3763 3916 
L 2250 3916 
z
" transform="scale(0.015625)"/>
       <path id="LiberationSans-72" d="M 444 0 
L 444 2594 
Q 444 2700 442 2811 
Q 441 2922 437 3025 
Q 434 3128 431 3218 
Q 428 3309 425 3381 
L 956 3381 
Q 959 3309 964 3217 
Q 969 3125 973 3028 
Q 978 2931 979 2842 
Q 981 2753 981 2691 
L 994 2691 
Q 1053 2884 1120 3026 
Q 1188 3169 1278 3261 
Q 1369 3353 1494 3398 
Q 1619 3444 1797 3444 
Q 1866 3444 1928 3433 
Q 1991 3422 2025 3413 
L 2025 2897 
Q 1969 2913 1894 2920 
Q 1819 2928 1725 2928 
Q 1531 2928 1395 2840 
Q 1259 2753 1173 2598 
Q 1088 2444 1047 2230 
Q 1006 2016 1006 1763 
L 1006 0 
L 444 0 
z
" transform="scale(0.015625)"/>
       <path id="LiberationSans-75" d="M 981 3381 
L 981 1238 
Q 981 991 1017 825 
Q 1053 659 1134 557 
Q 1216 456 1348 414 
Q 1481 372 1678 372 
Q 1878 372 2039 442 
Q 2200 513 2314 645 
Q 2428 778 2490 973 
Q 2553 1169 2553 1422 
L 2553 3381 
L 3116 3381 
L 3116 722 
Q 3116 616 3117 498 
Q 3119 381 3122 276 
Q 3125 172 3128 97 
Q 3131 22 3134 0 
L 2603 0 
Q 2600 16 2597 84 
Q 2594 153 2589 242 
Q 2584 331 2581 423 
Q 2578 516 2578 578 
L 2569 578 
Q 2488 431 2391 312 
Q 2294 194 2166 111 
Q 2038 28 1872 -17 
Q 1706 -63 1488 -63 
Q 1206 -63 1003 6 
Q 800 75 669 219 
Q 538 363 477 588 
Q 416 813 416 1128 
L 416 3381 
L 981 3381 
z
" transform="scale(0.015625)"/>
      </defs>
      <use xlink:href="#LiberationSans-54"/>
      <use xlink:href="#LiberationSans-72" x="57.333984"/>
      <use xlink:href="#LiberationSans-75" x="90.634766"/>
      <use xlink:href="#LiberationSans-65" x="146.25"/>
      <use xlink:href="#LiberationSans-20" x="201.865234"/>
      <use xlink:href="#LiberationSans-50" x="229.648438"/>
      <use xlink:href="#LiberationSans-6f" x="296.347656"/>
      <use xlink:href="#LiberationSans-73" x="351.962891"/>
      <use xlink:href="#LiberationSans-69" x="401.962891"/>
      <use xlink:href="#LiberationSans-74" x="424.179688"/>
      <use xlink:href="#LiberationSans-69" x="451.962891"/>
      <use xlink:href="#LiberationSans-76" x="474.179688"/>
      <use xlink:href="#LiberationSans-65" x="524.179688"/>
      <use xlink:href="#LiberationSans-20" x="579.794922"/>
      <use xlink:href="#LiberationSans-52" x="607.578125"/>
      <use xlink:href="#LiberationSans-61" x="679.794922"/>
      <use xlink:href="#LiberationSans-74" x="735.410156"/>
      <use xlink:href="#LiberationSans-65" x="763.193359"/>
     </g>
    </g>
   </g>
   <g id="line2d_25">
    <path d="M 115.363636 430.92 
L 120.487603 417.773745 
L 125.61157 415.564291 
L 130.735537 413.354836 
L 135.859504 411.145382 
L 140.983471 408.935927 
L 146.107438 406.726473 
L 151.231405 404.517018 
L 156.355372 402.307564 
L 161.479339 400.098109 
L 166.603306 391.138236 
L 171.727273 388.4566 
L 176.85124 385.774964 
L 181.975207 383.093327 
L 187.099174 380.411691 
L 192.22314 377.730055 
L 197.347107 375.048418 
L 202.471074 372.366782 
L 207.595041 369.685145 
L 212.719008 367.003509 
L 217.842975 358.214691 
L 222.966942 354.985145 
L 228.090909 351.7556 
L 233.214876 348.526055 
L 238.338843 345.296509 
L 243.46281 342.066964 
L 248.586777 338.837418 
L 253.710744 335.607873 
L 258.834711 332.378327 
L 263.958678 329.148782 
L 269.082645 322.682945 
L 274.206612 319.249764 
L 279.330579 315.816582 
L 284.454545 312.3834 
L 289.578512 308.950218 
L 294.702479 305.517036 
L 299.826446 302.083855 
L 304.950413 298.650673 
L 310.07438 295.217491 
L 315.198347 291.784309 
L 320.322314 285.805503 
L 325.446281 282.182261 
L 330.570248 278.559018 
L 335.694215 274.935776 
L 340.818182 271.312533 
L 345.942149 267.689291 
L 351.066116 264.066048 
L 356.190083 260.442806 
L 361.31405 256.819564 
L 366.438017 253.196321 
L 371.561983 249.255024 
L 376.68595 245.701273 
L 381.809917 242.147521 
L 386.933884 238.59377 
L 392.057851 235.040018 
L 397.181818 231.486267 
L 402.305785 227.932515 
L 407.429752 224.378764 
L 412.553719 220.825012 
L 417.677686 217.271261 
L 422.801653 211.980236 
L 427.92562 208.47103 
L 433.049587 204.961824 
L 438.173554 201.452618 
L 443.297521 197.943412 
L 448.421488 194.434206 
L 453.545455 190.925 
L 458.669421 187.415794 
L 463.793388 183.906588 
L 468.917355 180.397382 
L 474.041322 173.530636 
L 479.165289 170.264945 
L 484.289256 166.999255 
L 489.413223 163.733564 
L 494.53719 160.467873 
L 499.661157 157.202182 
L 504.785124 153.936491 
L 509.909091 150.6708 
L 515.033058 147.405109 
L 520.157025 144.139418 
L 525.280992 139.505291 
L 530.404959 136.293055 
L 535.528926 133.080818 
L 540.652893 129.868582 
L 545.77686 126.656345 
L 550.900826 123.444109 
L 556.024793 120.231873 
L 561.14876 117.019636 
L 566.272727 113.8074 
L 571.396694 110.595164 
L 576.520661 106.7094 
L 581.644628 103.5328 
L 586.768595 100.3562 
L 591.892562 97.1796 
L 597.016529 94.003 
L 602.140496 90.8264 
L 607.264463 87.6498 
L 612.38843 84.4732 
L 617.512397 81.2966 
L 622.636364 78.12 
" clip-path="url(#pa68e34ea6e)" style="fill: none; stroke-dasharray: 11.1,4.8; stroke-dashoffset: 0; stroke: #f39189; stroke-opacity: 0.8; stroke-width: 3"/>
   </g>
   <g id="line2d_26">
    <path d="M 115.363636 430.92 
L 120.487603 417.717024 
L 125.61157 416.156448 
L 130.735537 414.595873 
L 135.859504 413.035297 
L 140.983471 411.474721 
L 146.107438 409.914145 
L 151.231405 408.35357 
L 156.355372 406.792994 
L 161.479339 405.232418 
L 166.603306 383.355354 
L 171.727273 379.725889 
L 176.85124 376.096424 
L 181.975207 372.46696 
L 187.099174 368.837495 
L 192.22314 365.20803 
L 197.347107 361.578566 
L 202.471074 357.949101 
L 207.595041 354.319636 
L 212.719008 350.690172 
L 217.842975 347.03398 
L 222.966942 343.270879 
L 228.090909 339.507778 
L 233.214876 335.744677 
L 238.338843 331.981576 
L 243.46281 328.218475 
L 248.586777 324.455374 
L 253.710744 320.692273 
L 258.834711 316.929172 
L 263.958678 313.166071 
L 269.082645 309.381588 
L 274.206612 305.547214 
L 279.330579 301.71284 
L 284.454545 297.878467 
L 289.578512 294.044093 
L 294.702479 290.209719 
L 299.826446 286.375345 
L 304.950413 282.540972 
L 310.07438 278.706598 
L 315.198347 274.872224 
L 320.322314 271.17802 
L 325.446281 267.694071 
L 330.570248 264.210121 
L 335.694215 260.726172 
L 340.818182 257.242222 
L 345.942149 253.758273 
L 351.066116 250.274323 
L 356.190083 246.790374 
L 361.31405 243.306424 
L 366.438017 239.822475 
L 371.561983 236.040962 
L 376.68595 232.667485 
L 381.809917 229.294008 
L 386.933884 225.920531 
L 392.057851 222.547055 
L 397.181818 219.173578 
L 402.305785 215.800101 
L 407.429752 212.426624 
L 412.553719 209.053147 
L 417.677686 205.679671 
L 422.801653 202.389939 
L 427.92562 199.156038 
L 433.049587 195.922137 
L 438.173554 192.688236 
L 443.297521 189.454335 
L 448.421488 186.220434 
L 453.545455 182.986533 
L 458.669421 179.752632 
L 463.793388 176.518731 
L 468.917355 173.28483 
L 474.041322 170.059244 
L 479.165289 166.837222 
L 484.289256 163.6152 
L 489.413223 160.393178 
L 494.53719 157.171156 
L 499.661157 153.949133 
L 504.785124 150.727111 
L 509.909091 147.505089 
L 515.033058 144.283067 
L 520.157025 141.061044 
L 525.280992 137.899604 
L 530.404959 134.753309 
L 535.528926 131.607014 
L 540.652893 128.460719 
L 545.77686 125.314424 
L 550.900826 122.168129 
L 556.024793 119.021834 
L 561.14876 115.875539 
L 566.272727 112.729244 
L 571.396694 109.582949 
L 576.520661 106.436655 
L 581.644628 103.29036 
L 586.768595 100.144065 
L 591.892562 96.99777 
L 597.016529 93.851475 
L 602.140496 90.70518 
L 607.264463 87.558885 
L 612.38843 84.41259 
L 617.512397 81.266295 
L 622.636364 78.12 
" clip-path="url(#pa68e34ea6e)" style="fill: none; stroke-dasharray: 11.1,4.8; stroke-dashoffset: 0; stroke: #9a86a4; stroke-opacity: 0.8; stroke-width: 3"/>
   </g>
   <g id="line2d_27">
    <path d="M 115.363636 430.92 
L 120.487603 413.654182 
L 125.61157 410.500364 
L 130.735537 407.346545 
L 135.859504 404.192727 
L 140.983471 401.038909 
L 146.107438 397.885091 
L 151.231405 394.731273 
L 156.355372 391.577455 
L 161.479339 388.423636 
L 166.603306 385.099358 
L 171.727273 380.240933 
L 176.85124 375.382509 
L 181.975207 370.524085 
L 187.099174 365.665661 
L 192.22314 360.807236 
L 197.347107 355.948812 
L 202.471074 351.090388 
L 207.595041 346.231964 
L 212.719008 341.373539 
L 217.842975 336.668648 
L 222.966942 332.577891 
L 228.090909 328.487133 
L 233.214876 324.396376 
L 238.338843 320.305618 
L 243.46281 316.214861 
L 248.586777 312.124103 
L 253.710744 308.033345 
L 258.834711 303.942588 
L 263.958678 299.85183 
L 269.082645 295.798491 
L 274.206612 291.832461 
L 279.330579 287.86643 
L 284.454545 283.9004 
L 289.578512 279.93437 
L 294.702479 275.968339 
L 299.826446 272.002309 
L 304.950413 268.036279 
L 310.07438 264.070248 
L 315.198347 260.104218 
L 320.322314 256.226091 
L 325.446281 252.479818 
L 330.570248 248.733545 
L 335.694215 244.987273 
L 340.818182 241.241 
L 345.942149 237.494727 
L 351.066116 233.748455 
L 356.190083 230.002182 
L 361.31405 226.255909 
L 366.438017 222.509636 
L 371.561983 219.196939 
L 376.68595 216.317818 
L 381.809917 213.438697 
L 386.933884 210.559576 
L 392.057851 207.680455 
L 397.181818 204.801333 
L 402.305785 201.922212 
L 407.429752 199.043091 
L 412.553719 196.16397 
L 417.677686 193.284848 
L 422.801653 190.405727 
L 427.92562 187.526606 
L 433.049587 184.647485 
L 438.173554 181.768364 
L 443.297521 178.889242 
L 448.421488 176.010121 
L 453.545455 173.131 
L 458.669421 170.251879 
L 463.793388 167.372758 
L 468.917355 164.493636 
L 474.041322 161.614515 
L 479.165289 158.735394 
L 484.289256 155.856273 
L 489.413223 152.977152 
L 494.53719 150.09803 
L 499.661157 147.218909 
L 504.785124 144.339788 
L 509.909091 141.460667 
L 515.033058 138.581545 
L 520.157025 135.702424 
L 525.280992 132.823303 
L 530.404959 129.944182 
L 535.528926 127.065061 
L 540.652893 124.185939 
L 545.77686 121.306818 
L 550.900826 118.427697 
L 556.024793 115.548576 
L 561.14876 112.669455 
L 566.272727 109.790333 
L 571.396694 106.911212 
L 576.520661 104.032091 
L 581.644628 101.15297 
L 586.768595 98.273848 
L 591.892562 95.394727 
L 597.016529 92.515606 
L 602.140496 89.636485 
L 607.264463 86.757364 
L 612.38843 83.878242 
L 617.512397 80.999121 
L 622.636364 78.12 
" clip-path="url(#pa68e34ea6e)" style="fill: none; stroke-dasharray: 11.1,4.8; stroke-dashoffset: 0; stroke: #e2c2b9; stroke-opacity: 0.8; stroke-width: 3"/>
   </g>
   <g id="line2d_28">
    <path d="M 115.363636 430.92 
L 120.487603 382.5864 
L 125.61157 382.5864 
L 130.735537 382.5864 
L 135.859504 382.5864 
L 140.983471 382.5864 
L 146.107438 382.5864 
L 151.231405 382.5864 
L 156.355372 382.5864 
L 161.479339 382.5864 
L 166.603306 354.7152 
L 171.727273 354.7152 
L 176.85124 354.7152 
L 181.975207 354.7152 
L 187.099174 354.7152 
L 192.22314 354.7152 
L 197.347107 354.7152 
L 202.471074 354.7152 
L 207.595041 354.7152 
L 212.719008 354.7152 
L 217.842975 312.3792 
L 222.966942 312.3792 
L 228.090909 312.3792 
L 233.214876 312.3792 
L 238.338843 312.3792 
L 243.46281 312.3792 
L 248.586777 312.3792 
L 253.710744 312.3792 
L 258.834711 312.3792 
L 263.958678 312.3792 
L 269.082645 281.3328 
L 274.206612 281.3328 
L 279.330579 281.3328 
L 284.454545 281.3328 
L 289.578512 281.3328 
L 294.702479 281.3328 
L 299.826446 281.3328 
L 304.950413 281.3328 
L 310.07438 281.3328 
L 315.198347 281.3328 
L 320.322314 255.5784 
L 325.446281 255.5784 
L 330.570248 255.5784 
L 335.694215 255.5784 
L 340.818182 255.5784 
L 345.942149 255.5784 
L 351.066116 255.5784 
L 356.190083 255.5784 
L 361.31405 255.5784 
L 366.438017 255.5784 
L 371.561983 235.4688 
L 376.68595 235.4688 
L 381.809917 235.4688 
L 386.933884 235.4688 
L 392.057851 235.4688 
L 397.181818 235.4688 
L 402.305785 235.4688 
L 407.429752 235.4688 
L 412.553719 235.4688 
L 417.677686 235.4688 
L 422.801653 213.5952 
L 427.92562 213.5952 
L 433.049587 213.5952 
L 438.173554 213.5952 
L 443.297521 213.5952 
L 448.421488 213.5952 
L 453.545455 213.5952 
L 458.669421 213.5952 
L 463.793388 213.5952 
L 468.917355 213.5952 
L 474.041322 190.6632 
L 479.165289 190.6632 
L 484.289256 190.6632 
L 489.413223 190.6632 
L 494.53719 190.6632 
L 499.661157 190.6632 
L 504.785124 190.6632 
L 509.909091 190.6632 
L 515.033058 190.6632 
L 520.157025 190.6632 
L 525.280992 97.8768 
L 530.404959 97.8768 
L 535.528926 97.8768 
L 540.652893 97.8768 
L 545.77686 97.8768 
L 550.900826 97.8768 
L 556.024793 97.8768 
L 561.14876 97.8768 
L 566.272727 97.8768 
L 571.396694 97.8768 
L 576.520661 85.5288 
L 581.644628 85.5288 
L 586.768595 85.5288 
L 591.892562 85.5288 
L 597.016529 85.5288 
L 602.140496 85.5288 
L 607.264463 85.5288 
L 612.38843 85.5288 
L 617.512397 85.5288 
L 622.636364 78.12 
" clip-path="url(#pa68e34ea6e)" style="fill: none; stroke-dasharray: 11.1,4.8; stroke-dashoffset: 0; stroke: #555555; stroke-opacity: 0.8; stroke-width: 3"/>
   </g>
   <g id="line2d_29">
    <path d="M 115.363636 430.92 
L 622.636364 78.12 
" clip-path="url(#pa68e34ea6e)" style="fill: none; stroke: #ff0000; stroke-opacity: 0.8; stroke-width: 3; stroke-linecap: round"/>
   </g>
   <g id="patch_3">
    <path d="M 90 448.56 
L 90 60.48 
" style="fill: none; stroke: #cccccc; stroke-linejoin: miter; stroke-linecap: square"/>
   </g>
   <g id="patch_4">
    <path d="M 648 448.56 
L 648 60.48 
" style="fill: none; stroke: #cccccc; stroke-linejoin: miter; stroke-linecap: square"/>
   </g>
   <g id="patch_5">
    <path d="M 90 448.56 
L 648 448.56 
" style="fill: none; stroke: #cccccc; stroke-linejoin: miter; stroke-linecap: square"/>
   </g>
   <g id="patch_6">
    <path d="M 90 60.48 
L 648 60.48 
" style="fill: none; stroke: #cccccc; stroke-linejoin: miter; stroke-linecap: square"/>
   </g>
   <g id="legend_1">
    <g id="line2d_30">
     <path d="M 102.6 78.4 
L 116.6 78.4 
L 130.6 78.4 
" style="fill: none; stroke-dasharray: 11.1,4.8; stroke-dashoffset: 0; stroke: #f39189; stroke-opacity: 0.8; stroke-width: 3"/>
    </g>
    <g id="text_15">
     <!-- Mean ROC (RandomForest AUC = 0.51 $\pm$ 0.08) -->
     <g style="fill: #262626" transform="translate(141.8 83.3) scale(0.14 -0.14)">
      <defs>
       <path id="LiberationSans-4d" d="M 4269 0 
L 4269 2938 
Q 4269 3097 4272 3262 
Q 4275 3428 4281 3566 
Q 4288 3725 4297 3875 
Q 4253 3716 4206 3559 
Q 4166 3425 4117 3273 
Q 4069 3122 4022 3000 
L 2884 0 
L 2466 0 
L 1313 3000 
Q 1294 3047 1273 3109 
Q 1253 3172 1229 3242 
Q 1206 3313 1182 3386 
Q 1159 3459 1138 3531 
Q 1084 3697 1034 3875 
Q 1038 3700 1044 3528 
Q 1050 3381 1053 3220 
Q 1056 3059 1056 2938 
L 1056 0 
L 525 0 
L 525 4403 
L 1309 4403 
L 2481 1350 
Q 2503 1288 2534 1189 
Q 2566 1091 2594 987 
Q 2622 884 2645 792 
Q 2669 700 2678 650 
Q 2688 700 2713 794 
Q 2738 888 2770 991 
Q 2803 1094 2834 1191 
Q 2866 1288 2891 1350 
L 4041 4403 
L 4806 4403 
L 4806 0 
L 4269 0 
z
" transform="scale(0.015625)"/>
       <path id="LiberationSans-6e" d="M 2578 0 
L 2578 2144 
Q 2578 2391 2542 2556 
Q 2506 2722 2425 2823 
Q 2344 2925 2211 2967 
Q 2078 3009 1881 3009 
Q 1681 3009 1520 2939 
Q 1359 2869 1245 2736 
Q 1131 2603 1068 2408 
Q 1006 2213 1006 1959 
L 1006 0 
L 444 0 
L 444 2659 
Q 444 2766 442 2883 
Q 441 3000 437 3104 
Q 434 3209 431 3284 
Q 428 3359 425 3381 
L 956 3381 
Q 959 3366 962 3297 
Q 966 3228 970 3139 
Q 975 3050 978 2958 
Q 981 2866 981 2803 
L 991 2803 
Q 1072 2950 1169 3069 
Q 1266 3188 1394 3270 
Q 1522 3353 1687 3398 
Q 1853 3444 2072 3444 
Q 2353 3444 2556 3375 
Q 2759 3306 2890 3162 
Q 3022 3019 3083 2792 
Q 3144 2566 3144 2253 
L 3144 0 
L 2578 0 
z
" transform="scale(0.015625)"/>
       <path id="LiberationSans-4f" d="M 4672 2222 
Q 4672 1706 4523 1284 
Q 4375 863 4094 563 
Q 3813 263 3406 100 
Q 3000 -63 2484 -63 
Q 1941 -63 1531 107 
Q 1122 278 850 583 
Q 578 888 440 1306 
Q 303 1725 303 2222 
Q 303 2738 447 3153 
Q 591 3569 869 3861 
Q 1147 4153 1555 4311 
Q 1963 4469 2491 4469 
Q 3016 4469 3423 4309 
Q 3831 4150 4107 3856 
Q 4384 3563 4528 3147 
Q 4672 2731 4672 2222 
z
M 4063 2222 
Q 4063 2619 3961 2944 
Q 3859 3269 3661 3500 
Q 3463 3731 3169 3856 
Q 2875 3981 2491 3981 
Q 2097 3981 1800 3856 
Q 1503 3731 1304 3500 
Q 1106 3269 1007 2944 
Q 909 2619 909 2222 
Q 909 1825 1011 1495 
Q 1113 1166 1311 927 
Q 1509 688 1804 555 
Q 2100 422 2484 422 
Q 2897 422 3195 556 
Q 3494 691 3686 930 
Q 3878 1169 3970 1500 
Q 4063 1831 4063 2222 
z
" transform="scale(0.015625)"/>
       <path id="LiberationSans-43" d="M 2475 3981 
Q 2100 3981 1811 3856 
Q 1522 3731 1326 3500 
Q 1131 3269 1031 2944 
Q 931 2619 931 2222 
Q 931 1825 1039 1495 
Q 1147 1166 1348 928 
Q 1550 691 1842 559 
Q 2134 428 2500 428 
Q 2756 428 2967 495 
Q 3178 563 3348 684 
Q 3519 806 3653 973 
Q 3788 1141 3891 1344 
L 4378 1100 
Q 4259 853 4084 640 
Q 3909 428 3673 272 
Q 3438 116 3139 26 
Q 2841 -63 2472 -63 
Q 1938 -63 1536 107 
Q 1134 278 864 583 
Q 594 888 459 1306 
Q 325 1725 325 2222 
Q 325 2738 467 3153 
Q 609 3569 882 3861 
Q 1156 4153 1556 4311 
Q 1956 4469 2469 4469 
Q 3172 4469 3644 4194 
Q 4116 3919 4338 3378 
L 3772 3191 
Q 3709 3347 3603 3489 
Q 3497 3631 3337 3740 
Q 3178 3850 2964 3915 
Q 2750 3981 2475 3981 
z
" transform="scale(0.015625)"/>
       <path id="LiberationSans-28" d="M 397 1663 
Q 397 2097 462 2494 
Q 528 2891 668 3256 
Q 809 3622 1028 3965 
Q 1247 4309 1550 4638 
L 2094 4638 
Q 1800 4309 1586 3964 
Q 1372 3619 1234 3251 
Q 1097 2884 1030 2487 
Q 963 2091 963 1656 
Q 963 1222 1030 825 
Q 1097 428 1234 59 
Q 1372 -309 1586 -653 
Q 1800 -997 2094 -1325 
L 1550 -1325 
Q 1247 -997 1028 -653 
Q 809 -309 668 56 
Q 528 422 462 817 
Q 397 1213 397 1650 
L 397 1663 
z
" transform="scale(0.015625)"/>
       <path id="LiberationSans-64" d="M 2566 544 
Q 2409 219 2151 78 
Q 1894 -63 1513 -63 
Q 872 -63 570 368 
Q 269 800 269 1675 
Q 269 3444 1513 3444 
Q 1897 3444 2153 3303 
Q 2409 3163 2566 2856 
L 2572 2856 
Q 2572 2888 2570 2955 
Q 2569 3022 2567 3095 
Q 2566 3169 2566 3234 
Q 2566 3300 2566 3328 
L 2566 4638 
L 3128 4638 
L 3128 697 
Q 3128 575 3129 462 
Q 3131 350 3134 256 
Q 3138 163 3141 95 
Q 3144 28 3147 0 
L 2609 0 
Q 2603 31 2598 89 
Q 2594 147 2589 222 
Q 2584 297 2581 380 
Q 2578 463 2578 544 
L 2566 544 
z
M 859 1694 
Q 859 1344 903 1094 
Q 947 844 1044 683 
Q 1141 522 1291 447 
Q 1441 372 1656 372 
Q 1878 372 2048 444 
Q 2219 516 2333 677 
Q 2447 838 2506 1097 
Q 2566 1356 2566 1731 
Q 2566 2091 2506 2339 
Q 2447 2588 2331 2741 
Q 2216 2894 2048 2961 
Q 1881 3028 1663 3028 
Q 1456 3028 1306 2956 
Q 1156 2884 1056 2725 
Q 956 2566 907 2311 
Q 859 2056 859 1694 
z
" transform="scale(0.015625)"/>
       <path id="LiberationSans-6d" d="M 2400 0 
L 2400 2144 
Q 2400 2391 2369 2556 
Q 2338 2722 2264 2823 
Q 2191 2925 2072 2967 
Q 1953 3009 1781 3009 
Q 1603 3009 1459 2939 
Q 1316 2869 1214 2736 
Q 1113 2603 1058 2408 
Q 1003 2213 1003 1959 
L 1003 0 
L 444 0 
L 444 2659 
Q 444 2766 442 2883 
Q 441 3000 437 3104 
Q 434 3209 431 3284 
Q 428 3359 425 3381 
L 956 3381 
Q 959 3366 962 3297 
Q 966 3228 970 3139 
Q 975 3050 978 2958 
Q 981 2866 981 2803 
L 991 2803 
Q 1066 2950 1153 3069 
Q 1241 3188 1358 3270 
Q 1475 3353 1626 3398 
Q 1778 3444 1978 3444 
Q 2363 3444 2586 3291 
Q 2809 3138 2897 2803 
L 2906 2803 
Q 2981 2950 3075 3069 
Q 3169 3188 3294 3270 
Q 3419 3353 3575 3398 
Q 3731 3444 3931 3444 
Q 4188 3444 4373 3375 
Q 4559 3306 4678 3162 
Q 4797 3019 4853 2792 
Q 4909 2566 4909 2253 
L 4909 0 
L 4353 0 
L 4353 2144 
Q 4353 2391 4322 2556 
Q 4291 2722 4217 2823 
Q 4144 2925 4025 2967 
Q 3906 3009 3734 3009 
Q 3556 3009 3412 2942 
Q 3269 2875 3167 2744 
Q 3066 2613 3011 2416 
Q 2956 2219 2956 1959 
L 2956 0 
L 2400 0 
z
" transform="scale(0.015625)"/>
       <path id="LiberationSans-41" d="M 3647 0 
L 3144 1288 
L 1138 1288 
L 631 0 
L 13 0 
L 1809 4403 
L 2488 4403 
L 4256 0 
L 3647 0 
z
M 2400 3206 
Q 2350 3331 2304 3459 
Q 2259 3588 2225 3692 
Q 2191 3797 2167 3867 
Q 2144 3938 2141 3953 
Q 2134 3938 2112 3866 
Q 2091 3794 2055 3687 
Q 2019 3581 1973 3453 
Q 1928 3325 1881 3200 
L 1319 1753 
L 2966 1753 
L 2400 3206 
z
" transform="scale(0.015625)"/>
       <path id="LiberationSans-55" d="M 2284 -63 
Q 1922 -63 1597 34 
Q 1272 131 1026 336 
Q 781 541 637 855 
Q 494 1169 494 1600 
L 494 4403 
L 1091 4403 
L 1091 1650 
Q 1091 1316 1180 1083 
Q 1269 850 1428 703 
Q 1588 556 1805 489 
Q 2022 422 2281 422 
Q 2538 422 2766 490 
Q 2994 559 3166 709 
Q 3338 859 3436 1101 
Q 3534 1344 3534 1691 
L 3534 4403 
L 4128 4403 
L 4128 1656 
Q 4128 1216 3983 892 
Q 3838 569 3588 356 
Q 3338 144 3002 40 
Q 2666 -63 2284 -63 
z
" transform="scale(0.015625)"/>
       <path id="LiberationSans-3d" d="M 313 2675 
L 313 3138 
L 3422 3138 
L 3422 2675 
L 313 2675 
z
M 313 1075 
L 313 1538 
L 3422 1538 
L 3422 1075 
L 313 1075 
z
" transform="scale(0.015625)"/>
       <path id="LiberationSans-35" d="M 3291 1434 
Q 3291 1103 3191 828 
Q 3091 553 2894 354 
Q 2697 156 2405 46 
Q 2113 -63 1728 -63 
Q 1381 -63 1123 18 
Q 866 100 687 242 
Q 509 384 404 575 
Q 300 766 256 984 
L 825 1050 
Q 859 925 921 808 
Q 984 691 1092 598 
Q 1200 506 1358 451 
Q 1516 397 1741 397 
Q 1959 397 2137 464 
Q 2316 531 2442 662 
Q 2569 794 2637 984 
Q 2706 1175 2706 1422 
Q 2706 1625 2640 1795 
Q 2575 1966 2453 2089 
Q 2331 2213 2154 2281 
Q 1978 2350 1753 2350 
Q 1613 2350 1494 2325 
Q 1375 2300 1273 2256 
Q 1172 2213 1089 2155 
Q 1006 2097 934 2034 
L 384 2034 
L 531 4403 
L 3034 4403 
L 3034 3925 
L 1044 3925 
L 959 2528 
Q 1109 2644 1334 2726 
Q 1559 2809 1869 2809 
Q 2197 2809 2459 2709 
Q 2722 2609 2906 2426 
Q 3091 2244 3191 1991 
Q 3291 1738 3291 1434 
z
" transform="scale(0.015625)"/>
       <path id="DejaVuSans-b1" d="M 2944 4013 
L 2944 2803 
L 4684 2803 
L 4684 2272 
L 2944 2272 
L 2944 1063 
L 2419 1063 
L 2419 2272 
L 678 2272 
L 678 2803 
L 2419 2803 
L 2419 4013 
L 2944 4013 
z
M 678 531 
L 4684 531 
L 4684 0 
L 678 0 
L 678 531 
z
" transform="scale(0.015625)"/>
       <path id="LiberationSans-29" d="M 1734 1650 
Q 1734 1213 1668 817 
Q 1603 422 1462 56 
Q 1322 -309 1103 -653 
Q 884 -997 581 -1325 
L 38 -1325 
Q 331 -997 545 -653 
Q 759 -309 896 59 
Q 1034 428 1101 825 
Q 1169 1222 1169 1656 
Q 1169 2091 1101 2487 
Q 1034 2884 896 3251 
Q 759 3619 545 3964 
Q 331 4309 38 4638 
L 581 4638 
Q 884 4309 1103 3965 
Q 1322 3622 1462 3256 
Q 1603 2891 1668 2494 
Q 1734 2097 1734 1663 
L 1734 1650 
z
" transform="scale(0.015625)"/>
      </defs>
      <use xlink:href="#LiberationSans-4d" transform="translate(0 0.53125)"/>
      <use xlink:href="#LiberationSans-65" transform="translate(83.300781 0.53125)"/>
      <use xlink:href="#LiberationSans-61" transform="translate(138.916016 0.53125)"/>
      <use xlink:href="#LiberationSans-6e" transform="translate(194.53125 0.53125)"/>
      <use xlink:href="#LiberationSans-20" transform="translate(250.146484 0.53125)"/>
      <use xlink:href="#LiberationSans-52" transform="translate(277.929688 0.53125)"/>
      <use xlink:href="#LiberationSans-4f" transform="translate(350.146484 0.53125)"/>
      <use xlink:href="#LiberationSans-43" transform="translate(427.929688 0.53125)"/>
      <use xlink:href="#LiberationSans-20" transform="translate(500.146484 0.53125)"/>
      <use xlink:href="#LiberationSans-28" transform="translate(527.929688 0.53125)"/>
      <use xlink:href="#LiberationSans-52" transform="translate(561.230469 0.53125)"/>
      <use xlink:href="#LiberationSans-61" transform="translate(633.447266 0.53125)"/>
      <use xlink:href="#LiberationSans-6e" transform="translate(689.0625 0.53125)"/>
      <use xlink:href="#LiberationSans-64" transform="translate(744.677734 0.53125)"/>
      <use xlink:href="#LiberationSans-6f" transform="translate(800.292969 0.53125)"/>
      <use xlink:href="#LiberationSans-6d" transform="translate(855.908203 0.53125)"/>
      <use xlink:href="#LiberationSans-46" transform="translate(939.208984 0.53125)"/>
      <use xlink:href="#LiberationSans-6f" transform="translate(1000.292969 0.53125)"/>
      <use xlink:href="#LiberationSans-72" transform="translate(1055.908203 0.53125)"/>
      <use xlink:href="#LiberationSans-65" transform="translate(1089.208984 0.53125)"/>
      <use xlink:href="#LiberationSans-73" transform="translate(1144.824219 0.53125)"/>
      <use xlink:href="#LiberationSans-74" transform="translate(1194.824219 0.53125)"/>
      <use xlink:href="#LiberationSans-20" transform="translate(1222.607422 0.53125)"/>
      <use xlink:href="#LiberationSans-41" transform="translate(1250.390625 0.53125)"/>
      <use xlink:href="#LiberationSans-55" transform="translate(1317.089844 0.53125)"/>
      <use xlink:href="#LiberationSans-43" transform="translate(1389.306641 0.53125)"/>
      <use xlink:href="#LiberationSans-20" transform="translate(1461.523438 0.53125)"/>
      <use xlink:href="#LiberationSans-3d" transform="translate(1489.306641 0.53125)"/>
      <use xlink:href="#LiberationSans-20" transform="translate(1547.705078 0.53125)"/>
      <use xlink:href="#LiberationSans-30" transform="translate(1575.488281 0.53125)"/>
      <use xlink:href="#LiberationSans-2e" transform="translate(1631.103516 0.53125)"/>
      <use xlink:href="#LiberationSans-35" transform="translate(1658.886719 0.53125)"/>
      <use xlink:href="#LiberationSans-31" transform="translate(1714.501953 0.53125)"/>
      <use xlink:href="#LiberationSans-20" transform="translate(1770.117188 0.53125)"/>
      <use xlink:href="#DejaVuSans-b1" transform="translate(1797.900391 0.53125)"/>
      <use xlink:href="#LiberationSans-20" transform="translate(1881.689453 0.53125)"/>
      <use xlink:href="#LiberationSans-30" transform="translate(1909.472656 0.53125)"/>
      <use xlink:href="#LiberationSans-2e" transform="translate(1965.087891 0.53125)"/>
      <use xlink:href="#LiberationSans-30" transform="translate(1992.871094 0.53125)"/>
      <use xlink:href="#LiberationSans-38" transform="translate(2048.486328 0.53125)"/>
      <use xlink:href="#LiberationSans-29" transform="translate(2104.101562 0.53125)"/>
     </g>
    </g>
    <g id="line2d_31">
     <path d="M 102.6 98.56 
L 116.6 98.56 
L 130.6 98.56 
" style="fill: none; stroke-dasharray: 11.1,4.8; stroke-dashoffset: 0; stroke: #9a86a4; stroke-opacity: 0.8; stroke-width: 3"/>
    </g>
    <g id="text_16">
     <!-- Mean ROC (DecisionTree AUC = 0.53 $\pm$ 0.07) -->
     <g style="fill: #262626" transform="translate(141.8 103.46) scale(0.14 -0.14)">
      <defs>
       <path id="LiberationSans-44" d="M 4316 2247 
Q 4316 1697 4150 1276 
Q 3984 856 3696 573 
Q 3409 291 3017 145 
Q 2625 0 2172 0 
L 525 0 
L 525 4403 
L 1981 4403 
Q 2491 4403 2920 4276 
Q 3350 4150 3659 3886 
Q 3969 3622 4142 3215 
Q 4316 2809 4316 2247 
z
M 3716 2247 
Q 3716 2694 3587 3011 
Q 3459 3328 3228 3531 
Q 2997 3734 2675 3829 
Q 2353 3925 1969 3925 
L 1122 3925 
L 1122 478 
L 2103 478 
Q 2450 478 2745 590 
Q 3041 703 3256 925 
Q 3472 1147 3594 1478 
Q 3716 1809 3716 2247 
z
" transform="scale(0.015625)"/>
       <path id="LiberationSans-63" d="M 859 1706 
Q 859 1416 901 1172 
Q 944 928 1044 751 
Q 1144 575 1308 478 
Q 1472 381 1713 381 
Q 2013 381 2214 543 
Q 2416 706 2463 1044 
L 3031 1006 
Q 3003 797 2909 603 
Q 2816 409 2655 262 
Q 2494 116 2262 26 
Q 2031 -63 1728 -63 
Q 1331 -63 1053 71 
Q 775 206 601 442 
Q 428 678 350 998 
Q 272 1319 272 1694 
Q 272 2034 328 2295 
Q 384 2556 486 2751 
Q 588 2947 725 3080 
Q 863 3213 1023 3292 
Q 1184 3372 1362 3408 
Q 1541 3444 1722 3444 
Q 2006 3444 2228 3366 
Q 2450 3288 2611 3152 
Q 2772 3016 2872 2831 
Q 2972 2647 3013 2434 
L 2434 2391 
Q 2391 2672 2212 2837 
Q 2034 3003 1706 3003 
Q 1466 3003 1305 2923 
Q 1144 2844 1044 2683 
Q 944 2522 901 2278 
Q 859 2034 859 1706 
z
" transform="scale(0.015625)"/>
       <path id="LiberationSans-33" d="M 3278 1216 
Q 3278 913 3179 675 
Q 3081 438 2892 273 
Q 2703 109 2423 23 
Q 2144 -63 1784 -63 
Q 1375 -63 1095 39 
Q 816 141 634 308 
Q 453 475 362 689 
Q 272 903 244 1131 
L 825 1184 
Q 850 1009 917 865 
Q 984 722 1100 619 
Q 1216 516 1384 459 
Q 1553 403 1784 403 
Q 2209 403 2451 612 
Q 2694 822 2694 1234 
Q 2694 1478 2586 1626 
Q 2478 1775 2317 1858 
Q 2156 1941 1967 1969 
Q 1778 1997 1619 1997 
L 1300 1997 
L 1300 2484 
L 1606 2484 
Q 1766 2484 1937 2517 
Q 2109 2550 2251 2636 
Q 2394 2722 2486 2869 
Q 2578 3016 2578 3244 
Q 2578 3597 2370 3801 
Q 2163 4006 1753 4006 
Q 1381 4006 1151 3815 
Q 922 3625 884 3278 
L 319 3322 
Q 353 3613 478 3828 
Q 603 4044 795 4186 
Q 988 4328 1234 4398 
Q 1481 4469 1759 4469 
Q 2128 4469 2393 4376 
Q 2659 4284 2828 4126 
Q 2997 3969 3076 3756 
Q 3156 3544 3156 3303 
Q 3156 3109 3103 2940 
Q 3050 2772 2937 2637 
Q 2825 2503 2651 2406 
Q 2478 2309 2234 2259 
L 2234 2247 
Q 2500 2219 2697 2126 
Q 2894 2034 3022 1896 
Q 3150 1759 3214 1584 
Q 3278 1409 3278 1216 
z
" transform="scale(0.015625)"/>
       <path id="LiberationSans-37" d="M 3238 3947 
Q 2906 3441 2628 2973 
Q 2350 2506 2150 2032 
Q 1950 1559 1839 1061 
Q 1728 563 1728 0 
L 1141 0 
Q 1141 528 1266 1036 
Q 1391 1544 1603 2033 
Q 1816 2522 2097 2994 
Q 2378 3466 2694 3925 
L 328 3925 
L 328 4403 
L 3238 4403 
L 3238 3947 
z
" transform="scale(0.015625)"/>
      </defs>
      <use xlink:href="#LiberationSans-4d" transform="translate(0 0.53125)"/>
      <use xlink:href="#LiberationSans-65" transform="translate(83.300781 0.53125)"/>
      <use xlink:href="#LiberationSans-61" transform="translate(138.916016 0.53125)"/>
      <use xlink:href="#LiberationSans-6e" transform="translate(194.53125 0.53125)"/>
      <use xlink:href="#LiberationSans-20" transform="translate(250.146484 0.53125)"/>
      <use xlink:href="#LiberationSans-52" transform="translate(277.929688 0.53125)"/>
      <use xlink:href="#LiberationSans-4f" transform="translate(350.146484 0.53125)"/>
      <use xlink:href="#LiberationSans-43" transform="translate(427.929688 0.53125)"/>
      <use xlink:href="#LiberationSans-20" transform="translate(500.146484 0.53125)"/>
      <use xlink:href="#LiberationSans-28" transform="translate(527.929688 0.53125)"/>
      <use xlink:href="#LiberationSans-44" transform="translate(561.230469 0.53125)"/>
      <use xlink:href="#LiberationSans-65" transform="translate(633.447266 0.53125)"/>
      <use xlink:href="#LiberationSans-63" transform="translate(689.0625 0.53125)"/>
      <use xlink:href="#LiberationSans-69" transform="translate(739.0625 0.53125)"/>
      <use xlink:href="#LiberationSans-73" transform="translate(761.279297 0.53125)"/>
      <use xlink:href="#LiberationSans-69" transform="translate(811.279297 0.53125)"/>
      <use xlink:href="#LiberationSans-6f" transform="translate(833.496094 0.53125)"/>
      <use xlink:href="#LiberationSans-6e" transform="translate(889.111328 0.53125)"/>
      <use xlink:href="#LiberationSans-54" transform="translate(944.726562 0.53125)"/>
      <use xlink:href="#LiberationSans-72" transform="translate(1005.810547 0.53125)"/>
      <use xlink:href="#LiberationSans-65" transform="translate(1039.111328 0.53125)"/>
      <use xlink:href="#LiberationSans-65" transform="translate(1094.726562 0.53125)"/>
      <use xlink:href="#LiberationSans-20" transform="translate(1150.341797 0.53125)"/>
      <use xlink:href="#LiberationSans-41" transform="translate(1178.125 0.53125)"/>
      <use xlink:href="#LiberationSans-55" transform="translate(1244.824219 0.53125)"/>
      <use xlink:href="#LiberationSans-43" transform="translate(1317.041016 0.53125)"/>
      <use xlink:href="#LiberationSans-20" transform="translate(1389.257812 0.53125)"/>
      <use xlink:href="#LiberationSans-3d" transform="translate(1417.041016 0.53125)"/>
      <use xlink:href="#LiberationSans-20" transform="translate(1475.439453 0.53125)"/>
      <use xlink:href="#LiberationSans-30" transform="translate(1503.222656 0.53125)"/>
      <use xlink:href="#LiberationSans-2e" transform="translate(1558.837891 0.53125)"/>
      <use xlink:href="#LiberationSans-35" transform="translate(1586.621094 0.53125)"/>
      <use xlink:href="#LiberationSans-33" transform="translate(1642.236328 0.53125)"/>
      <use xlink:href="#LiberationSans-20" transform="translate(1697.851562 0.53125)"/>
      <use xlink:href="#DejaVuSans-b1" transform="translate(1725.634766 0.53125)"/>
      <use xlink:href="#LiberationSans-20" transform="translate(1809.423828 0.53125)"/>
      <use xlink:href="#LiberationSans-30" transform="translate(1837.207031 0.53125)"/>
      <use xlink:href="#LiberationSans-2e" transform="translate(1892.822266 0.53125)"/>
      <use xlink:href="#LiberationSans-30" transform="translate(1920.605469 0.53125)"/>
      <use xlink:href="#LiberationSans-37" transform="translate(1976.220703 0.53125)"/>
      <use xlink:href="#LiberationSans-29" transform="translate(2031.835938 0.53125)"/>
     </g>
    </g>
    <g id="line2d_32">
     <path d="M 102.6 118.72 
L 116.6 118.72 
L 130.6 118.72 
" style="fill: none; stroke-dasharray: 11.1,4.8; stroke-dashoffset: 0; stroke: #e2c2b9; stroke-opacity: 0.8; stroke-width: 3"/>
    </g>
    <g id="text_17">
     <!-- Mean ROC (KNN AUC = 0.56 $\pm$ 0.08) -->
     <g style="fill: #262626" transform="translate(141.8 123.62) scale(0.14 -0.14)">
      <defs>
       <path id="LiberationSans-4b" d="M 3456 0 
L 1697 2125 
L 1122 1688 
L 1122 0 
L 525 0 
L 525 4403 
L 1122 4403 
L 1122 2197 
L 3244 4403 
L 3947 4403 
L 2072 2491 
L 4197 0 
L 3456 0 
z
" transform="scale(0.015625)"/>
       <path id="LiberationSans-4e" d="M 3381 0 
L 1025 3750 
Q 1031 3597 1041 3447 
Q 1047 3319 1051 3176 
Q 1056 3034 1056 2925 
L 1056 0 
L 525 0 
L 525 4403 
L 1219 4403 
L 3600 628 
Q 3591 781 3581 934 
Q 3575 1066 3569 1220 
Q 3563 1375 3563 1516 
L 3563 4403 
L 4100 4403 
L 4100 0 
L 3381 0 
z
" transform="scale(0.015625)"/>
      </defs>
      <use xlink:href="#LiberationSans-4d" transform="translate(0 0.53125)"/>
      <use xlink:href="#LiberationSans-65" transform="translate(83.300781 0.53125)"/>
      <use xlink:href="#LiberationSans-61" transform="translate(138.916016 0.53125)"/>
      <use xlink:href="#LiberationSans-6e" transform="translate(194.53125 0.53125)"/>
      <use xlink:href="#LiberationSans-20" transform="translate(250.146484 0.53125)"/>
      <use xlink:href="#LiberationSans-52" transform="translate(277.929688 0.53125)"/>
      <use xlink:href="#LiberationSans-4f" transform="translate(350.146484 0.53125)"/>
      <use xlink:href="#LiberationSans-43" transform="translate(427.929688 0.53125)"/>
      <use xlink:href="#LiberationSans-20" transform="translate(500.146484 0.53125)"/>
      <use xlink:href="#LiberationSans-28" transform="translate(527.929688 0.53125)"/>
      <use xlink:href="#LiberationSans-4b" transform="translate(561.230469 0.53125)"/>
      <use xlink:href="#LiberationSans-4e" transform="translate(627.929688 0.53125)"/>
      <use xlink:href="#LiberationSans-4e" transform="translate(700.146484 0.53125)"/>
      <use xlink:href="#LiberationSans-20" transform="translate(772.363281 0.53125)"/>
      <use xlink:href="#LiberationSans-41" transform="translate(800.146484 0.53125)"/>
      <use xlink:href="#LiberationSans-55" transform="translate(866.845703 0.53125)"/>
      <use xlink:href="#LiberationSans-43" transform="translate(939.0625 0.53125)"/>
      <use xlink:href="#LiberationSans-20" transform="translate(1011.279297 0.53125)"/>
      <use xlink:href="#LiberationSans-3d" transform="translate(1039.0625 0.53125)"/>
      <use xlink:href="#LiberationSans-20" transform="translate(1097.460938 0.53125)"/>
      <use xlink:href="#LiberationSans-30" transform="translate(1125.244141 0.53125)"/>
      <use xlink:href="#LiberationSans-2e" transform="translate(1180.859375 0.53125)"/>
      <use xlink:href="#LiberationSans-35" transform="translate(1208.642578 0.53125)"/>
      <use xlink:href="#LiberationSans-36" transform="translate(1264.257812 0.53125)"/>
      <use xlink:href="#LiberationSans-20" transform="translate(1319.873047 0.53125)"/>
      <use xlink:href="#DejaVuSans-b1" transform="translate(1347.65625 0.53125)"/>
      <use xlink:href="#LiberationSans-20" transform="translate(1431.445312 0.53125)"/>
      <use xlink:href="#LiberationSans-30" transform="translate(1459.228516 0.53125)"/>
      <use xlink:href="#LiberationSans-2e" transform="translate(1514.84375 0.53125)"/>
      <use xlink:href="#LiberationSans-30" transform="translate(1542.626953 0.53125)"/>
      <use xlink:href="#LiberationSans-38" transform="translate(1598.242188 0.53125)"/>
      <use xlink:href="#LiberationSans-29" transform="translate(1653.857422 0.53125)"/>
     </g>
    </g>
    <g id="line2d_33">
     <path d="M 102.6 138.88 
L 116.6 138.88 
L 130.6 138.88 
" style="fill: none; stroke-dasharray: 11.1,4.8; stroke-dashoffset: 0; stroke: #555555; stroke-opacity: 0.8; stroke-width: 3"/>
    </g>
    <g id="text_18">
     <!-- Mean ROC (Xgboost AUC = 0.54 $\pm$ 0.05) -->
     <g style="fill: #262626" transform="translate(141.8 143.78) scale(0.14 -0.14)">
      <defs>
       <path id="LiberationSans-58" d="M 3475 0 
L 2153 1925 
L 803 0 
L 144 0 
L 1819 2288 
L 272 4403 
L 931 4403 
L 2156 2675 
L 3347 4403 
L 4006 4403 
L 2500 2309 
L 4134 0 
L 3475 0 
z
" transform="scale(0.015625)"/>
       <path id="LiberationSans-67" d="M 1713 -1328 
Q 1422 -1328 1197 -1268 
Q 972 -1209 812 -1098 
Q 653 -988 553 -834 
Q 453 -681 409 -494 
L 975 -413 
Q 1031 -647 1223 -773 
Q 1416 -900 1728 -900 
Q 1919 -900 2075 -847 
Q 2231 -794 2340 -676 
Q 2450 -559 2509 -371 
Q 2569 -184 2569 84 
L 2569 628 
L 2563 628 
Q 2500 500 2408 383 
Q 2316 266 2183 175 
Q 2050 84 1875 29 
Q 1700 -25 1475 -25 
Q 1153 -25 923 83 
Q 694 191 548 406 
Q 403 622 336 942 
Q 269 1263 269 1684 
Q 269 2091 336 2416 
Q 403 2741 554 2967 
Q 706 3194 948 3314 
Q 1191 3434 1538 3434 
Q 1897 3434 2161 3270 
Q 2425 3106 2569 2803 
L 2575 2803 
Q 2575 2881 2579 2978 
Q 2584 3075 2589 3161 
Q 2594 3247 2600 3309 
Q 2606 3372 2613 3381 
L 3147 3381 
Q 3144 3353 3141 3286 
Q 3138 3219 3134 3125 
Q 3131 3031 3129 2917 
Q 3128 2803 3128 2681 
L 3128 97 
Q 3128 -613 2779 -970 
Q 2431 -1328 1713 -1328 
z
M 2569 1691 
Q 2569 2044 2492 2295 
Q 2416 2547 2291 2706 
Q 2166 2866 2005 2941 
Q 1844 3016 1675 3016 
Q 1459 3016 1304 2941 
Q 1150 2866 1048 2705 
Q 947 2544 898 2292 
Q 850 2041 850 1691 
Q 850 1325 898 1076 
Q 947 828 1047 675 
Q 1147 522 1300 456 
Q 1453 391 1666 391 
Q 1834 391 1995 462 
Q 2156 534 2284 690 
Q 2413 847 2491 1094 
Q 2569 1341 2569 1691 
z
" transform="scale(0.015625)"/>
       <path id="LiberationSans-62" d="M 3291 1706 
Q 3291 -63 2047 -63 
Q 1663 -63 1408 76 
Q 1153 216 994 525 
L 988 525 
Q 988 444 983 356 
Q 978 269 973 194 
Q 969 119 964 66 
Q 959 13 956 0 
L 413 0 
Q 416 28 419 95 
Q 422 163 425 256 
Q 428 350 429 462 
Q 431 575 431 697 
L 431 4638 
L 994 4638 
L 994 3316 
Q 994 3222 992 3136 
Q 991 3050 988 2984 
Q 984 2906 981 2838 
L 994 2838 
Q 1150 3163 1408 3303 
Q 1666 3444 2047 3444 
Q 2688 3444 2989 3012 
Q 3291 2581 3291 1706 
z
M 2700 1688 
Q 2700 2038 2656 2288 
Q 2613 2538 2516 2698 
Q 2419 2859 2269 2934 
Q 2119 3009 1903 3009 
Q 1681 3009 1511 2937 
Q 1341 2866 1227 2706 
Q 1113 2547 1053 2287 
Q 994 2028 994 1653 
Q 994 1291 1053 1044 
Q 1113 797 1227 642 
Q 1341 488 1509 420 
Q 1678 353 1897 353 
Q 2103 353 2253 425 
Q 2403 497 2503 656 
Q 2603 816 2651 1070 
Q 2700 1325 2700 1688 
z
" transform="scale(0.015625)"/>
      </defs>
      <use xlink:href="#LiberationSans-4d" transform="translate(0 0.53125)"/>
      <use xlink:href="#LiberationSans-65" transform="translate(83.300781 0.53125)"/>
      <use xlink:href="#LiberationSans-61" transform="translate(138.916016 0.53125)"/>
      <use xlink:href="#LiberationSans-6e" transform="translate(194.53125 0.53125)"/>
      <use xlink:href="#LiberationSans-20" transform="translate(250.146484 0.53125)"/>
      <use xlink:href="#LiberationSans-52" transform="translate(277.929688 0.53125)"/>
      <use xlink:href="#LiberationSans-4f" transform="translate(350.146484 0.53125)"/>
      <use xlink:href="#LiberationSans-43" transform="translate(427.929688 0.53125)"/>
      <use xlink:href="#LiberationSans-20" transform="translate(500.146484 0.53125)"/>
      <use xlink:href="#LiberationSans-28" transform="translate(527.929688 0.53125)"/>
      <use xlink:href="#LiberationSans-58" transform="translate(561.230469 0.53125)"/>
      <use xlink:href="#LiberationSans-67" transform="translate(627.929688 0.53125)"/>
      <use xlink:href="#LiberationSans-62" transform="translate(683.544922 0.53125)"/>
      <use xlink:href="#LiberationSans-6f" transform="translate(739.160156 0.53125)"/>
      <use xlink:href="#LiberationSans-6f" transform="translate(794.775391 0.53125)"/>
      <use xlink:href="#LiberationSans-73" transform="translate(850.390625 0.53125)"/>
      <use xlink:href="#LiberationSans-74" transform="translate(900.390625 0.53125)"/>
      <use xlink:href="#LiberationSans-20" transform="translate(928.173828 0.53125)"/>
      <use xlink:href="#LiberationSans-41" transform="translate(955.957031 0.53125)"/>
      <use xlink:href="#LiberationSans-55" transform="translate(1022.65625 0.53125)"/>
      <use xlink:href="#LiberationSans-43" transform="translate(1094.873047 0.53125)"/>
      <use xlink:href="#LiberationSans-20" transform="translate(1167.089844 0.53125)"/>
      <use xlink:href="#LiberationSans-3d" transform="translate(1194.873047 0.53125)"/>
      <use xlink:href="#LiberationSans-20" transform="translate(1253.271484 0.53125)"/>
      <use xlink:href="#LiberationSans-30" transform="translate(1281.054688 0.53125)"/>
      <use xlink:href="#LiberationSans-2e" transform="translate(1336.669922 0.53125)"/>
      <use xlink:href="#LiberationSans-35" transform="translate(1364.453125 0.53125)"/>
      <use xlink:href="#LiberationSans-34" transform="translate(1420.068359 0.53125)"/>
      <use xlink:href="#LiberationSans-20" transform="translate(1475.683594 0.53125)"/>
      <use xlink:href="#DejaVuSans-b1" transform="translate(1503.466797 0.53125)"/>
      <use xlink:href="#LiberationSans-20" transform="translate(1587.255859 0.53125)"/>
      <use xlink:href="#LiberationSans-30" transform="translate(1615.039062 0.53125)"/>
      <use xlink:href="#LiberationSans-2e" transform="translate(1670.654297 0.53125)"/>
      <use xlink:href="#LiberationSans-30" transform="translate(1698.4375 0.53125)"/>
      <use xlink:href="#LiberationSans-35" transform="translate(1754.052734 0.53125)"/>
      <use xlink:href="#LiberationSans-29" transform="translate(1809.667969 0.53125)"/>
     </g>
    </g>
   </g>
  </g>
 </g>
 <defs>
  <clipPath id="pa68e34ea6e">
   <rect x="90" y="60.48" width="558" height="388.08"/>
  </clipPath>
 </defs>
</svg>
