<?xml version="1.0" encoding="utf-8" standalone="no"?>
<!DOCTYPE svg PUBLIC "-//W3C//DTD SVG 1.1//EN"
  "http://www.w3.org/Graphics/SVG/1.1/DTD/svg11.dtd">
<svg height="439.982187pt" version="1.1" viewBox="0 0 619.239687 439.982187" width="619.239687pt" xmlns="http://www.w3.org/2000/svg" xmlns:xlink="http://www.w3.org/1999/xlink">
 <metadata>
  <rdf:RDF xmlns:cc="http://creativecommons.org/ns#" xmlns:dc="http://purl.org/dc/elements/1.1/" xmlns:rdf="http://www.w3.org/1999/02/22-rdf-syntax-ns#">
   <cc:Work>
    <dc:type rdf:resource="http://purl.org/dc/dcmitype/StillImage"/>
    <dc:date>2022-08-08T21:31:34.037311</dc:date>
    <dc:format>image/svg+xml</dc:format>
    <dc:creator>
     <cc:Agent>
      <dc:title>Matplotlib v3.4.3, https://matplotlib.org/</dc:title>
     </cc:Agent>
    </dc:creator>
   </cc:Work>
  </rdf:RDF>
 </metadata>
 <defs>
  <style type="text/css">*{stroke-linecap:butt;stroke-linejoin:round;}</style>
 </defs>
 <g id="figure_1">
  <g id="patch_1">
   <path d="M 0 439.982187 
L 619.239687 439.982187 
L 619.239687 0 
L 0 0 
z
" style="fill:#ffffff;"/>
  </g>
  <g id="axes_1">
   <g id="patch_2">
    <path d="M 54.039687 395.28 
L 612.039688 395.28 
L 612.039688 7.2 
L 54.039687 7.2 
z
" style="fill:#ffffff;"/>
   </g>
   <g id="matplotlib.axis_1">
    <g id="xtick_1">
     <g id="line2d_1">
      <path clip-path="url(#p36e45f0519)" d="M 79.403324 395.28 
L 79.403324 7.2 
" style="fill:none;stroke:#cccccc;stroke-linecap:round;stroke-width:0.8;"/>
     </g>
     <g id="line2d_2"/>
     <g id="text_1">
      <!-- 0.0 -->
      <g style="fill:#262626;" transform="translate(67.47598 410.177656)scale(0.15 -0.15)">
       <defs>
        <path d="M 2034 4250 
Q 1547 4250 1301 3770 
Q 1056 3291 1056 2328 
Q 1056 1369 1301 889 
Q 1547 409 2034 409 
Q 2525 409 2770 889 
Q 3016 1369 3016 2328 
Q 3016 3291 2770 3770 
Q 2525 4250 2034 4250 
z
M 2034 4750 
Q 2819 4750 3233 4129 
Q 3647 3509 3647 2328 
Q 3647 1150 3233 529 
Q 2819 -91 2034 -91 
Q 1250 -91 836 529 
Q 422 1150 422 2328 
Q 422 3509 836 4129 
Q 1250 4750 2034 4750 
z
" id="DejaVuSans-30" transform="scale(0.015625)"/>
        <path d="M 684 794 
L 1344 794 
L 1344 0 
L 684 0 
L 684 794 
z
" id="DejaVuSans-2e" transform="scale(0.015625)"/>
       </defs>
       <use xlink:href="#DejaVuSans-30"/>
       <use x="63.623047" xlink:href="#DejaVuSans-2e"/>
       <use x="95.410156" xlink:href="#DejaVuSans-30"/>
      </g>
     </g>
    </g>
    <g id="xtick_2">
     <g id="line2d_3">
      <path clip-path="url(#p36e45f0519)" d="M 180.857869 395.28 
L 180.857869 7.2 
" style="fill:none;stroke:#cccccc;stroke-linecap:round;stroke-width:0.8;"/>
     </g>
     <g id="line2d_4"/>
     <g id="text_2">
      <!-- 0.2 -->
      <g style="fill:#262626;" transform="translate(168.930526 410.177656)scale(0.15 -0.15)">
       <defs>
        <path d="M 1228 531 
L 3431 531 
L 3431 0 
L 469 0 
L 469 531 
Q 828 903 1448 1529 
Q 2069 2156 2228 2338 
Q 2531 2678 2651 2914 
Q 2772 3150 2772 3378 
Q 2772 3750 2511 3984 
Q 2250 4219 1831 4219 
Q 1534 4219 1204 4116 
Q 875 4013 500 3803 
L 500 4441 
Q 881 4594 1212 4672 
Q 1544 4750 1819 4750 
Q 2544 4750 2975 4387 
Q 3406 4025 3406 3419 
Q 3406 3131 3298 2873 
Q 3191 2616 2906 2266 
Q 2828 2175 2409 1742 
Q 1991 1309 1228 531 
z
" id="DejaVuSans-32" transform="scale(0.015625)"/>
       </defs>
       <use xlink:href="#DejaVuSans-30"/>
       <use x="63.623047" xlink:href="#DejaVuSans-2e"/>
       <use x="95.410156" xlink:href="#DejaVuSans-32"/>
      </g>
     </g>
    </g>
    <g id="xtick_3">
     <g id="line2d_5">
      <path clip-path="url(#p36e45f0519)" d="M 282.312415 395.28 
L 282.312415 7.2 
" style="fill:none;stroke:#cccccc;stroke-linecap:round;stroke-width:0.8;"/>
     </g>
     <g id="line2d_6"/>
     <g id="text_3">
      <!-- 0.4 -->
      <g style="fill:#262626;" transform="translate(270.385071 410.177656)scale(0.15 -0.15)">
       <defs>
        <path d="M 2419 4116 
L 825 1625 
L 2419 1625 
L 2419 4116 
z
M 2253 4666 
L 3047 4666 
L 3047 1625 
L 3713 1625 
L 3713 1100 
L 3047 1100 
L 3047 0 
L 2419 0 
L 2419 1100 
L 313 1100 
L 313 1709 
L 2253 4666 
z
" id="DejaVuSans-34" transform="scale(0.015625)"/>
       </defs>
       <use xlink:href="#DejaVuSans-30"/>
       <use x="63.623047" xlink:href="#DejaVuSans-2e"/>
       <use x="95.410156" xlink:href="#DejaVuSans-34"/>
      </g>
     </g>
    </g>
    <g id="xtick_4">
     <g id="line2d_7">
      <path clip-path="url(#p36e45f0519)" d="M 383.76696 395.28 
L 383.76696 7.2 
" style="fill:none;stroke:#cccccc;stroke-linecap:round;stroke-width:0.8;"/>
     </g>
     <g id="line2d_8"/>
     <g id="text_4">
      <!-- 0.6 -->
      <g style="fill:#262626;" transform="translate(371.839616 410.177656)scale(0.15 -0.15)">
       <defs>
        <path d="M 2113 2584 
Q 1688 2584 1439 2293 
Q 1191 2003 1191 1497 
Q 1191 994 1439 701 
Q 1688 409 2113 409 
Q 2538 409 2786 701 
Q 3034 994 3034 1497 
Q 3034 2003 2786 2293 
Q 2538 2584 2113 2584 
z
M 3366 4563 
L 3366 3988 
Q 3128 4100 2886 4159 
Q 2644 4219 2406 4219 
Q 1781 4219 1451 3797 
Q 1122 3375 1075 2522 
Q 1259 2794 1537 2939 
Q 1816 3084 2150 3084 
Q 2853 3084 3261 2657 
Q 3669 2231 3669 1497 
Q 3669 778 3244 343 
Q 2819 -91 2113 -91 
Q 1303 -91 875 529 
Q 447 1150 447 2328 
Q 447 3434 972 4092 
Q 1497 4750 2381 4750 
Q 2619 4750 2861 4703 
Q 3103 4656 3366 4563 
z
" id="DejaVuSans-36" transform="scale(0.015625)"/>
       </defs>
       <use xlink:href="#DejaVuSans-30"/>
       <use x="63.623047" xlink:href="#DejaVuSans-2e"/>
       <use x="95.410156" xlink:href="#DejaVuSans-36"/>
      </g>
     </g>
    </g>
    <g id="xtick_5">
     <g id="line2d_9">
      <path clip-path="url(#p36e45f0519)" d="M 485.221506 395.28 
L 485.221506 7.2 
" style="fill:none;stroke:#cccccc;stroke-linecap:round;stroke-width:0.8;"/>
     </g>
     <g id="line2d_10"/>
     <g id="text_5">
      <!-- 0.8 -->
      <g style="fill:#262626;" transform="translate(473.294162 410.177656)scale(0.15 -0.15)">
       <defs>
        <path d="M 2034 2216 
Q 1584 2216 1326 1975 
Q 1069 1734 1069 1313 
Q 1069 891 1326 650 
Q 1584 409 2034 409 
Q 2484 409 2743 651 
Q 3003 894 3003 1313 
Q 3003 1734 2745 1975 
Q 2488 2216 2034 2216 
z
M 1403 2484 
Q 997 2584 770 2862 
Q 544 3141 544 3541 
Q 544 4100 942 4425 
Q 1341 4750 2034 4750 
Q 2731 4750 3128 4425 
Q 3525 4100 3525 3541 
Q 3525 3141 3298 2862 
Q 3072 2584 2669 2484 
Q 3125 2378 3379 2068 
Q 3634 1759 3634 1313 
Q 3634 634 3220 271 
Q 2806 -91 2034 -91 
Q 1263 -91 848 271 
Q 434 634 434 1313 
Q 434 1759 690 2068 
Q 947 2378 1403 2484 
z
M 1172 3481 
Q 1172 3119 1398 2916 
Q 1625 2713 2034 2713 
Q 2441 2713 2670 2916 
Q 2900 3119 2900 3481 
Q 2900 3844 2670 4047 
Q 2441 4250 2034 4250 
Q 1625 4250 1398 4047 
Q 1172 3844 1172 3481 
z
" id="DejaVuSans-38" transform="scale(0.015625)"/>
       </defs>
       <use xlink:href="#DejaVuSans-30"/>
       <use x="63.623047" xlink:href="#DejaVuSans-2e"/>
       <use x="95.410156" xlink:href="#DejaVuSans-38"/>
      </g>
     </g>
    </g>
    <g id="xtick_6">
     <g id="line2d_11">
      <path clip-path="url(#p36e45f0519)" d="M 586.676051 395.28 
L 586.676051 7.2 
" style="fill:none;stroke:#cccccc;stroke-linecap:round;stroke-width:0.8;"/>
     </g>
     <g id="line2d_12"/>
     <g id="text_6">
      <!-- 1.0 -->
      <g style="fill:#262626;" transform="translate(574.748707 410.177656)scale(0.15 -0.15)">
       <defs>
        <path d="M 794 531 
L 1825 531 
L 1825 4091 
L 703 3866 
L 703 4441 
L 1819 4666 
L 2450 4666 
L 2450 531 
L 3481 531 
L 3481 0 
L 794 0 
L 794 531 
z
" id="DejaVuSans-31" transform="scale(0.015625)"/>
       </defs>
       <use xlink:href="#DejaVuSans-31"/>
       <use x="63.623047" xlink:href="#DejaVuSans-2e"/>
       <use x="95.410156" xlink:href="#DejaVuSans-30"/>
      </g>
     </g>
    </g>
    <g id="text_7">
     <!-- False Positive Rate -->
     <g style="fill:#262626;" transform="translate(258.693438 429.454687)scale(0.16 -0.16)">
      <defs>
       <path d="M 628 4666 
L 3309 4666 
L 3309 4134 
L 1259 4134 
L 1259 2759 
L 3109 2759 
L 3109 2228 
L 1259 2228 
L 1259 0 
L 628 0 
L 628 4666 
z
" id="DejaVuSans-46" transform="scale(0.015625)"/>
       <path d="M 2194 1759 
Q 1497 1759 1228 1600 
Q 959 1441 959 1056 
Q 959 750 1161 570 
Q 1363 391 1709 391 
Q 2188 391 2477 730 
Q 2766 1069 2766 1631 
L 2766 1759 
L 2194 1759 
z
M 3341 1997 
L 3341 0 
L 2766 0 
L 2766 531 
Q 2569 213 2275 61 
Q 1981 -91 1556 -91 
Q 1019 -91 701 211 
Q 384 513 384 1019 
Q 384 1609 779 1909 
Q 1175 2209 1959 2209 
L 2766 2209 
L 2766 2266 
Q 2766 2663 2505 2880 
Q 2244 3097 1772 3097 
Q 1472 3097 1187 3025 
Q 903 2953 641 2809 
L 641 3341 
Q 956 3463 1253 3523 
Q 1550 3584 1831 3584 
Q 2591 3584 2966 3190 
Q 3341 2797 3341 1997 
z
" id="DejaVuSans-61" transform="scale(0.015625)"/>
       <path d="M 603 4863 
L 1178 4863 
L 1178 0 
L 603 0 
L 603 4863 
z
" id="DejaVuSans-6c" transform="scale(0.015625)"/>
       <path d="M 2834 3397 
L 2834 2853 
Q 2591 2978 2328 3040 
Q 2066 3103 1784 3103 
Q 1356 3103 1142 2972 
Q 928 2841 928 2578 
Q 928 2378 1081 2264 
Q 1234 2150 1697 2047 
L 1894 2003 
Q 2506 1872 2764 1633 
Q 3022 1394 3022 966 
Q 3022 478 2636 193 
Q 2250 -91 1575 -91 
Q 1294 -91 989 -36 
Q 684 19 347 128 
L 347 722 
Q 666 556 975 473 
Q 1284 391 1588 391 
Q 1994 391 2212 530 
Q 2431 669 2431 922 
Q 2431 1156 2273 1281 
Q 2116 1406 1581 1522 
L 1381 1569 
Q 847 1681 609 1914 
Q 372 2147 372 2553 
Q 372 3047 722 3315 
Q 1072 3584 1716 3584 
Q 2034 3584 2315 3537 
Q 2597 3491 2834 3397 
z
" id="DejaVuSans-73" transform="scale(0.015625)"/>
       <path d="M 3597 1894 
L 3597 1613 
L 953 1613 
Q 991 1019 1311 708 
Q 1631 397 2203 397 
Q 2534 397 2845 478 
Q 3156 559 3463 722 
L 3463 178 
Q 3153 47 2828 -22 
Q 2503 -91 2169 -91 
Q 1331 -91 842 396 
Q 353 884 353 1716 
Q 353 2575 817 3079 
Q 1281 3584 2069 3584 
Q 2775 3584 3186 3129 
Q 3597 2675 3597 1894 
z
M 3022 2063 
Q 3016 2534 2758 2815 
Q 2500 3097 2075 3097 
Q 1594 3097 1305 2825 
Q 1016 2553 972 2059 
L 3022 2063 
z
" id="DejaVuSans-65" transform="scale(0.015625)"/>
       <path id="DejaVuSans-20" transform="scale(0.015625)"/>
       <path d="M 1259 4147 
L 1259 2394 
L 2053 2394 
Q 2494 2394 2734 2622 
Q 2975 2850 2975 3272 
Q 2975 3691 2734 3919 
Q 2494 4147 2053 4147 
L 1259 4147 
z
M 628 4666 
L 2053 4666 
Q 2838 4666 3239 4311 
Q 3641 3956 3641 3272 
Q 3641 2581 3239 2228 
Q 2838 1875 2053 1875 
L 1259 1875 
L 1259 0 
L 628 0 
L 628 4666 
z
" id="DejaVuSans-50" transform="scale(0.015625)"/>
       <path d="M 1959 3097 
Q 1497 3097 1228 2736 
Q 959 2375 959 1747 
Q 959 1119 1226 758 
Q 1494 397 1959 397 
Q 2419 397 2687 759 
Q 2956 1122 2956 1747 
Q 2956 2369 2687 2733 
Q 2419 3097 1959 3097 
z
M 1959 3584 
Q 2709 3584 3137 3096 
Q 3566 2609 3566 1747 
Q 3566 888 3137 398 
Q 2709 -91 1959 -91 
Q 1206 -91 779 398 
Q 353 888 353 1747 
Q 353 2609 779 3096 
Q 1206 3584 1959 3584 
z
" id="DejaVuSans-6f" transform="scale(0.015625)"/>
       <path d="M 603 3500 
L 1178 3500 
L 1178 0 
L 603 0 
L 603 3500 
z
M 603 4863 
L 1178 4863 
L 1178 4134 
L 603 4134 
L 603 4863 
z
" id="DejaVuSans-69" transform="scale(0.015625)"/>
       <path d="M 1172 4494 
L 1172 3500 
L 2356 3500 
L 2356 3053 
L 1172 3053 
L 1172 1153 
Q 1172 725 1289 603 
Q 1406 481 1766 481 
L 2356 481 
L 2356 0 
L 1766 0 
Q 1100 0 847 248 
Q 594 497 594 1153 
L 594 3053 
L 172 3053 
L 172 3500 
L 594 3500 
L 594 4494 
L 1172 4494 
z
" id="DejaVuSans-74" transform="scale(0.015625)"/>
       <path d="M 191 3500 
L 800 3500 
L 1894 563 
L 2988 3500 
L 3597 3500 
L 2284 0 
L 1503 0 
L 191 3500 
z
" id="DejaVuSans-76" transform="scale(0.015625)"/>
       <path d="M 2841 2188 
Q 3044 2119 3236 1894 
Q 3428 1669 3622 1275 
L 4263 0 
L 3584 0 
L 2988 1197 
Q 2756 1666 2539 1819 
Q 2322 1972 1947 1972 
L 1259 1972 
L 1259 0 
L 628 0 
L 628 4666 
L 2053 4666 
Q 2853 4666 3247 4331 
Q 3641 3997 3641 3322 
Q 3641 2881 3436 2590 
Q 3231 2300 2841 2188 
z
M 1259 4147 
L 1259 2491 
L 2053 2491 
Q 2509 2491 2742 2702 
Q 2975 2913 2975 3322 
Q 2975 3731 2742 3939 
Q 2509 4147 2053 4147 
L 1259 4147 
z
" id="DejaVuSans-52" transform="scale(0.015625)"/>
      </defs>
      <use xlink:href="#DejaVuSans-46"/>
      <use x="48.394531" xlink:href="#DejaVuSans-61"/>
      <use x="109.673828" xlink:href="#DejaVuSans-6c"/>
      <use x="137.457031" xlink:href="#DejaVuSans-73"/>
      <use x="189.556641" xlink:href="#DejaVuSans-65"/>
      <use x="251.080078" xlink:href="#DejaVuSans-20"/>
      <use x="282.867188" xlink:href="#DejaVuSans-50"/>
      <use x="339.544922" xlink:href="#DejaVuSans-6f"/>
      <use x="400.726562" xlink:href="#DejaVuSans-73"/>
      <use x="452.826172" xlink:href="#DejaVuSans-69"/>
      <use x="480.609375" xlink:href="#DejaVuSans-74"/>
      <use x="519.818359" xlink:href="#DejaVuSans-69"/>
      <use x="547.601562" xlink:href="#DejaVuSans-76"/>
      <use x="606.78125" xlink:href="#DejaVuSans-65"/>
      <use x="668.304688" xlink:href="#DejaVuSans-20"/>
      <use x="700.091797" xlink:href="#DejaVuSans-52"/>
      <use x="767.324219" xlink:href="#DejaVuSans-61"/>
      <use x="828.603516" xlink:href="#DejaVuSans-74"/>
      <use x="867.8125" xlink:href="#DejaVuSans-65"/>
     </g>
    </g>
   </g>
   <g id="matplotlib.axis_2">
    <g id="ytick_1">
     <g id="line2d_13">
      <path clip-path="url(#p36e45f0519)" d="M 54.039687 377.64 
L 612.039688 377.64 
" style="fill:none;stroke:#cccccc;stroke-linecap:round;stroke-width:0.8;"/>
     </g>
     <g id="line2d_14"/>
     <g id="text_8">
      <!-- 0.0 -->
      <g style="fill:#262626;" transform="translate(26.685 383.338828)scale(0.15 -0.15)">
       <use xlink:href="#DejaVuSans-30"/>
       <use x="63.623047" xlink:href="#DejaVuSans-2e"/>
       <use x="95.410156" xlink:href="#DejaVuSans-30"/>
      </g>
     </g>
    </g>
    <g id="ytick_2">
     <g id="line2d_15">
      <path clip-path="url(#p36e45f0519)" d="M 54.039687 307.08 
L 612.039688 307.08 
" style="fill:none;stroke:#cccccc;stroke-linecap:round;stroke-width:0.8;"/>
     </g>
     <g id="line2d_16"/>
     <g id="text_9">
      <!-- 0.2 -->
      <g style="fill:#262626;" transform="translate(26.685 312.778828)scale(0.15 -0.15)">
       <use xlink:href="#DejaVuSans-30"/>
       <use x="63.623047" xlink:href="#DejaVuSans-2e"/>
       <use x="95.410156" xlink:href="#DejaVuSans-32"/>
      </g>
     </g>
    </g>
    <g id="ytick_3">
     <g id="line2d_17">
      <path clip-path="url(#p36e45f0519)" d="M 54.039687 236.52 
L 612.039688 236.52 
" style="fill:none;stroke:#cccccc;stroke-linecap:round;stroke-width:0.8;"/>
     </g>
     <g id="line2d_18"/>
     <g id="text_10">
      <!-- 0.4 -->
      <g style="fill:#262626;" transform="translate(26.685 242.218828)scale(0.15 -0.15)">
       <use xlink:href="#DejaVuSans-30"/>
       <use x="63.623047" xlink:href="#DejaVuSans-2e"/>
       <use x="95.410156" xlink:href="#DejaVuSans-34"/>
      </g>
     </g>
    </g>
    <g id="ytick_4">
     <g id="line2d_19">
      <path clip-path="url(#p36e45f0519)" d="M 54.039687 165.96 
L 612.039688 165.96 
" style="fill:none;stroke:#cccccc;stroke-linecap:round;stroke-width:0.8;"/>
     </g>
     <g id="line2d_20"/>
     <g id="text_11">
      <!-- 0.6 -->
      <g style="fill:#262626;" transform="translate(26.685 171.658828)scale(0.15 -0.15)">
       <use xlink:href="#DejaVuSans-30"/>
       <use x="63.623047" xlink:href="#DejaVuSans-2e"/>
       <use x="95.410156" xlink:href="#DejaVuSans-36"/>
      </g>
     </g>
    </g>
    <g id="ytick_5">
     <g id="line2d_21">
      <path clip-path="url(#p36e45f0519)" d="M 54.039687 95.4 
L 612.039688 95.4 
" style="fill:none;stroke:#cccccc;stroke-linecap:round;stroke-width:0.8;"/>
     </g>
     <g id="line2d_22"/>
     <g id="text_12">
      <!-- 0.8 -->
      <g style="fill:#262626;" transform="translate(26.685 101.098828)scale(0.15 -0.15)">
       <use xlink:href="#DejaVuSans-30"/>
       <use x="63.623047" xlink:href="#DejaVuSans-2e"/>
       <use x="95.410156" xlink:href="#DejaVuSans-38"/>
      </g>
     </g>
    </g>
    <g id="ytick_6">
     <g id="line2d_23">
      <path clip-path="url(#p36e45f0519)" d="M 54.039687 24.84 
L 612.039688 24.84 
" style="fill:none;stroke:#cccccc;stroke-linecap:round;stroke-width:0.8;"/>
     </g>
     <g id="line2d_24"/>
     <g id="text_13">
      <!-- 1.0 -->
      <g style="fill:#262626;" transform="translate(26.685 30.538828)scale(0.15 -0.15)">
       <use xlink:href="#DejaVuSans-31"/>
       <use x="63.623047" xlink:href="#DejaVuSans-2e"/>
       <use x="95.410156" xlink:href="#DejaVuSans-30"/>
      </g>
     </g>
    </g>
    <g id="text_14">
     <!-- True Positive Rate -->
     <g style="fill:#262626;" transform="translate(19.3575 272.4875)rotate(-90)scale(0.16 -0.16)">
      <defs>
       <path d="M -19 4666 
L 3928 4666 
L 3928 4134 
L 2272 4134 
L 2272 0 
L 1638 0 
L 1638 4134 
L -19 4134 
L -19 4666 
z
" id="DejaVuSans-54" transform="scale(0.015625)"/>
       <path d="M 2631 2963 
Q 2534 3019 2420 3045 
Q 2306 3072 2169 3072 
Q 1681 3072 1420 2755 
Q 1159 2438 1159 1844 
L 1159 0 
L 581 0 
L 581 3500 
L 1159 3500 
L 1159 2956 
Q 1341 3275 1631 3429 
Q 1922 3584 2338 3584 
Q 2397 3584 2469 3576 
Q 2541 3569 2628 3553 
L 2631 2963 
z
" id="DejaVuSans-72" transform="scale(0.015625)"/>
       <path d="M 544 1381 
L 544 3500 
L 1119 3500 
L 1119 1403 
Q 1119 906 1312 657 
Q 1506 409 1894 409 
Q 2359 409 2629 706 
Q 2900 1003 2900 1516 
L 2900 3500 
L 3475 3500 
L 3475 0 
L 2900 0 
L 2900 538 
Q 2691 219 2414 64 
Q 2138 -91 1772 -91 
Q 1169 -91 856 284 
Q 544 659 544 1381 
z
M 1991 3584 
L 1991 3584 
z
" id="DejaVuSans-75" transform="scale(0.015625)"/>
      </defs>
      <use xlink:href="#DejaVuSans-54"/>
      <use x="46.333984" xlink:href="#DejaVuSans-72"/>
      <use x="87.447266" xlink:href="#DejaVuSans-75"/>
      <use x="150.826172" xlink:href="#DejaVuSans-65"/>
      <use x="212.349609" xlink:href="#DejaVuSans-20"/>
      <use x="244.136719" xlink:href="#DejaVuSans-50"/>
      <use x="300.814453" xlink:href="#DejaVuSans-6f"/>
      <use x="361.996094" xlink:href="#DejaVuSans-73"/>
      <use x="414.095703" xlink:href="#DejaVuSans-69"/>
      <use x="441.878906" xlink:href="#DejaVuSans-74"/>
      <use x="481.087891" xlink:href="#DejaVuSans-69"/>
      <use x="508.871094" xlink:href="#DejaVuSans-76"/>
      <use x="568.050781" xlink:href="#DejaVuSans-65"/>
      <use x="629.574219" xlink:href="#DejaVuSans-20"/>
      <use x="661.361328" xlink:href="#DejaVuSans-52"/>
      <use x="728.59375" xlink:href="#DejaVuSans-61"/>
      <use x="789.873047" xlink:href="#DejaVuSans-74"/>
      <use x="829.082031" xlink:href="#DejaVuSans-65"/>
     </g>
    </g>
   </g>
   <g id="line2d_25">
    <path clip-path="url(#p36e45f0519)" d="M 79.403324 377.64 
L 84.527291 282.888 
L 89.651258 281.376 
L 94.775225 279.864 
L 99.899192 278.352 
L 105.023159 276.84 
L 110.147126 275.328 
L 115.271092 273.816 
L 120.395059 239.257211 
L 125.519026 237.436363 
L 130.642993 235.615514 
L 135.76696 233.794666 
L 140.890927 231.973817 
L 146.014894 230.152969 
L 151.138861 228.33212 
L 156.262828 208.877381 
L 161.386795 207.65166 
L 166.510762 206.425939 
L 171.634729 205.200218 
L 176.758696 203.974497 
L 181.882663 202.748775 
L 187.00663 201.523054 
L 192.130597 192.989333 
L 197.254564 192.084339 
L 202.37853 191.179346 
L 207.502497 190.274352 
L 212.626464 189.369358 
L 217.750431 188.464364 
L 222.874398 187.55937 
L 227.998365 174.143467 
L 233.122332 173.3632 
L 238.246299 172.582934 
L 243.370266 171.802667 
L 248.494233 171.0224 
L 253.6182 170.242134 
L 258.742167 169.461867 
L 263.866134 159.655419 
L 268.990101 158.946425 
L 274.114068 158.237431 
L 279.238035 157.528437 
L 284.362002 156.819443 
L 289.485968 156.110449 
L 294.609935 155.401455 
L 299.733902 142.212946 
L 304.857869 140.832801 
L 309.981836 139.452655 
L 315.105803 138.07251 
L 320.22977 136.692364 
L 325.353737 135.312219 
L 330.477704 133.932073 
L 335.601671 119.808364 
L 340.725638 119.149091 
L 345.849605 118.489818 
L 350.973572 117.830546 
L 356.097539 117.171273 
L 361.221506 116.512 
L 366.345473 115.852727 
L 371.46944 105.518182 
L 376.593407 104.627273 
L 381.717373 103.736364 
L 386.84134 102.845454 
L 391.965307 101.954545 
L 397.089274 101.063636 
L 402.213241 100.172727 
L 407.337208 87.699151 
L 412.461175 86.834375 
L 417.585142 85.969599 
L 422.709109 85.104824 
L 427.833076 84.240048 
L 432.957043 83.375272 
L 438.08101 82.510496 
L 443.204977 70.510205 
L 448.328944 69.479127 
L 453.452911 68.448048 
L 458.576878 67.416969 
L 463.700845 66.38589 
L 468.824811 65.354812 
L 473.948778 64.323733 
L 479.072745 57.2752 
L 484.196712 56.386666 
L 489.320679 55.498133 
L 494.444646 54.6096 
L 499.568613 53.721066 
L 504.69258 52.832533 
L 509.816547 51.944 
L 514.940514 45.02783 
L 520.064481 44.281842 
L 525.188448 43.535854 
L 530.312415 42.789866 
L 535.436382 42.043879 
L 540.560349 41.297891 
L 545.684316 40.551903 
L 550.808283 35.268218 
L 555.932249 34.498473 
L 561.056216 33.728727 
L 566.180183 32.958982 
L 571.30415 32.189236 
L 576.428117 31.419491 
L 581.552084 30.649745 
L 586.676051 24.84 
" style="fill:none;stroke:#f39189;stroke-dasharray:11.1,4.8;stroke-dashoffset:0;stroke-opacity:0.8;stroke-width:3;"/>
   </g>
   <g id="line2d_26">
    <path clip-path="url(#p36e45f0519)" d="M 79.403324 377.64 
L 84.527291 295.783273 
L 89.651258 291.542546 
L 94.775225 287.301818 
L 99.899192 283.061091 
L 105.023159 278.820364 
L 110.147126 274.579636 
L 115.271092 270.338909 
L 120.395059 263.226909 
L 125.519026 259.150657 
L 130.642993 255.074405 
L 135.76696 250.998153 
L 140.890927 246.921902 
L 146.014894 242.84565 
L 151.138861 238.769398 
L 156.262828 230.11642 
L 161.386795 228.344653 
L 166.510762 226.572886 
L 171.634729 224.801119 
L 176.758696 223.029352 
L 181.882663 221.257585 
L 187.00663 219.485818 
L 192.130597 216.164718 
L 197.254564 213.703982 
L 202.37853 211.243245 
L 207.502497 208.782509 
L 212.626464 206.321772 
L 217.750431 203.861036 
L 222.874398 201.400299 
L 227.998365 191.89035 
L 233.122332 190.850317 
L 238.246299 189.810283 
L 243.370266 188.770249 
L 248.494233 187.730216 
L 253.6182 186.690182 
L 258.742167 185.650149 
L 263.866134 177.569388 
L 268.990101 174.985112 
L 274.114068 172.400836 
L 279.238035 169.81656 
L 284.362002 167.232284 
L 289.485968 164.648008 
L 294.609935 162.063732 
L 299.733902 150.805226 
L 304.857869 148.917047 
L 309.981836 147.028868 
L 315.105803 145.140689 
L 320.22977 143.252509 
L 325.353737 141.36433 
L 330.477704 139.476151 
L 335.601671 130.692336 
L 340.725638 129.124884 
L 345.849605 127.557432 
L 350.973572 125.98998 
L 356.097539 124.422528 
L 361.221506 122.855077 
L 366.345473 121.287625 
L 371.46944 99.6569 
L 376.593407 98.315145 
L 381.717373 96.97339 
L 386.84134 95.631635 
L 391.965307 94.28988 
L 397.089274 92.948126 
L 402.213241 91.606371 
L 407.337208 82.717343 
L 412.461175 81.411225 
L 417.585142 80.105106 
L 422.709109 78.798988 
L 427.833076 77.49287 
L 432.957043 76.186751 
L 438.08101 74.880633 
L 443.204977 73.041666 
L 448.328944 71.634578 
L 453.452911 70.22749 
L 458.576878 68.820402 
L 463.700845 67.413314 
L 468.824811 66.006226 
L 473.948778 64.599138 
L 479.072745 62.676341 
L 484.196712 61.21461 
L 489.320679 59.75288 
L 494.444646 58.291149 
L 499.568613 56.829419 
L 504.69258 55.367688 
L 509.816547 53.905958 
L 514.940514 50.428227 
L 520.064481 48.966497 
L 525.188448 47.504766 
L 530.312415 46.043036 
L 535.436382 44.581305 
L 540.560349 43.119575 
L 545.684316 41.657844 
L 550.808283 40.16472 
L 555.932249 38.263474 
L 561.056216 36.362228 
L 566.180183 34.460983 
L 571.30415 32.559737 
L 576.428117 30.658491 
L 581.552084 28.757246 
L 586.676051 24.84 
" style="fill:none;stroke:#9a86a4;stroke-dasharray:11.1,4.8;stroke-dashoffset:0;stroke-opacity:0.8;stroke-width:3;"/>
   </g>
   <g id="line2d_27">
    <path clip-path="url(#p36e45f0519)" d="M 79.403324 377.64 
L 84.527291 306.632001 
L 89.651258 302.152001 
L 94.775225 297.672 
L 99.899192 293.192 
L 105.023159 288.712 
L 110.147126 284.232 
L 115.271092 279.752 
L 120.395059 260.655999 
L 125.519026 256.175999 
L 130.642993 251.695999 
L 135.76696 247.215999 
L 140.890927 242.735998 
L 146.014894 238.255998 
L 151.138861 233.775998 
L 156.262828 229.426908 
L 161.386795 228.039635 
L 166.510762 226.652363 
L 171.634729 225.26509 
L 176.758696 223.877817 
L 181.882663 222.490545 
L 187.00663 221.103272 
L 192.130597 199.555999 
L 197.254564 198.168727 
L 202.37853 196.781454 
L 207.502497 195.394181 
L 212.626464 194.006909 
L 217.750431 192.619636 
L 222.874398 191.232363 
L 227.998365 185.309091 
L 233.122332 183.921818 
L 238.246299 182.534545 
L 243.370266 181.147272 
L 248.494233 179.76 
L 253.6182 178.372727 
L 258.742167 176.985454 
L 263.866134 169.550182 
L 268.990101 168.162909 
L 274.114068 166.775636 
L 279.238035 165.388363 
L 284.362002 164.001091 
L 289.485968 162.613818 
L 294.609935 161.226545 
L 299.733902 156.321454 
L 304.857869 154.952 
L 309.981836 153.582545 
L 315.105803 152.213091 
L 320.22977 150.843636 
L 325.353737 149.474182 
L 330.477704 148.104727 
L 335.601671 139.282181 
L 340.725638 137.118545 
L 345.849605 134.954909 
L 350.973572 132.791272 
L 356.097539 130.627636 
L 361.221506 128.463999 
L 366.345473 126.300363 
L 371.46944 122.349818 
L 376.593407 120.720727 
L 381.717373 119.091636 
L 386.84134 117.462545 
L 391.965307 115.833454 
L 397.089274 114.204363 
L 402.213241 112.575272 
L 407.337208 106.584726 
L 412.461175 104.033163 
L 417.585142 101.481599 
L 422.709109 98.930035 
L 427.833076 96.378472 
L 432.957043 93.826908 
L 438.08101 91.275345 
L 443.204977 87.802327 
L 448.328944 85.553672 
L 453.452911 83.305018 
L 458.576878 81.056363 
L 463.700845 78.807709 
L 468.824811 76.559054 
L 473.948778 74.310399 
L 479.072745 72.061745 
L 484.196712 69.81309 
L 489.320679 67.564436 
L 494.444646 65.315781 
L 499.568613 63.067127 
L 504.69258 60.818472 
L 509.816547 58.569818 
L 514.940514 56.321163 
L 520.064481 54.072509 
L 525.188448 51.823854 
L 530.312415 49.5752 
L 535.436382 47.326545 
L 540.560349 45.077891 
L 545.684316 42.829236 
L 550.808283 40.580582 
L 555.932249 38.331927 
L 561.056216 36.083273 
L 566.180183 33.834618 
L 571.30415 31.585964 
L 576.428117 29.337309 
L 581.552084 27.088655 
L 586.676051 24.84 
" style="fill:none;stroke:#e2c2b9;stroke-dasharray:11.1,4.8;stroke-dashoffset:0;stroke-opacity:0.8;stroke-width:3;"/>
   </g>
   <g id="line2d_28">
    <path clip-path="url(#p36e45f0519)" d="M 79.403324 377.64 
L 84.527291 310.104001 
L 89.651258 310.104001 
L 94.775225 310.104001 
L 99.899192 310.104001 
L 105.023159 310.104001 
L 110.147126 310.104001 
L 115.271092 310.104001 
L 120.395059 281.376 
L 125.519026 281.376 
L 130.642993 281.376 
L 135.76696 281.376 
L 140.890927 281.376 
L 146.014894 281.376 
L 151.138861 281.376 
L 156.262828 211.32 
L 161.386795 211.32 
L 166.510762 211.32 
L 171.634729 211.32 
L 176.758696 211.32 
L 181.882663 211.32 
L 187.00663 211.32 
L 192.130597 159.912001 
L 197.254564 159.912001 
L 202.37853 159.912001 
L 207.502497 159.912001 
L 212.626464 159.912001 
L 217.750431 159.912001 
L 222.874398 159.912001 
L 227.998365 142.776001 
L 233.122332 142.776001 
L 238.246299 142.776001 
L 243.370266 142.776001 
L 248.494233 142.776001 
L 253.6182 142.776001 
L 258.742167 142.776001 
L 263.866134 136.224001 
L 268.990101 136.224001 
L 274.114068 136.224001 
L 279.238035 136.224001 
L 284.362002 136.224001 
L 289.485968 136.224001 
L 294.609935 136.224001 
L 299.733902 132.192001 
L 304.857869 132.192001 
L 309.981836 132.192001 
L 315.105803 132.192001 
L 320.22977 132.192001 
L 325.353737 132.192001 
L 330.477704 132.192001 
L 335.601671 126.648001 
L 340.725638 126.648001 
L 345.849605 126.648001 
L 350.973572 126.648001 
L 356.097539 126.648001 
L 361.221506 126.648001 
L 366.345473 126.648001 
L 371.46944 112.536 
L 376.593407 112.536 
L 381.717373 112.536 
L 386.84134 112.536 
L 391.965307 112.536 
L 397.089274 112.536 
L 402.213241 112.536 
L 407.337208 104.976 
L 412.461175 104.976 
L 417.585142 104.976 
L 422.709109 104.976 
L 427.833076 104.976 
L 432.957043 104.976 
L 438.08101 104.976 
L 443.204977 76.247999 
L 448.328944 76.247999 
L 453.452911 76.247999 
L 458.576878 76.247999 
L 463.700845 76.247999 
L 468.824811 76.247999 
L 473.948778 76.247999 
L 479.072745 68.687999 
L 484.196712 68.687999 
L 489.320679 68.687999 
L 494.444646 68.687999 
L 499.568613 68.687999 
L 504.69258 68.687999 
L 509.816547 68.687999 
L 514.940514 60.623999 
L 520.064481 60.623999 
L 525.188448 60.623999 
L 530.312415 60.623999 
L 535.436382 60.623999 
L 540.560349 60.623999 
L 545.684316 60.623999 
L 550.808283 54.575999 
L 555.932249 54.575999 
L 561.056216 54.575999 
L 566.180183 54.575999 
L 571.30415 54.575999 
L 576.428117 54.575999 
L 581.552084 54.575999 
L 586.676051 24.84 
" style="fill:none;stroke:#555555;stroke-dasharray:11.1,4.8;stroke-dashoffset:0;stroke-opacity:0.8;stroke-width:3;"/>
   </g>
   <g id="line2d_29">
    <path clip-path="url(#p36e45f0519)" d="M 79.403324 377.64 
L 84.527291 269.946909 
L 89.651258 269.139151 
L 94.775225 268.331394 
L 99.899192 238.408728 
L 105.023159 236.496242 
L 110.147126 234.583757 
L 115.271092 232.671272 
L 120.395059 217.730132 
L 125.519026 215.874666 
L 130.642993 214.019199 
L 135.76696 201.971733 
L 140.890927 199.820485 
L 146.014894 197.669236 
L 151.138861 195.517988 
L 156.262828 185.094352 
L 161.386795 183.21394 
L 166.510762 181.333528 
L 171.634729 179.453116 
L 176.758696 174.446885 
L 181.882663 172.973745 
L 187.00663 171.500606 
L 192.130597 166.630133 
L 197.254564 165.330084 
L 202.37853 164.030036 
L 207.502497 162.729988 
L 212.626464 159.939547 
L 217.750431 158.088323 
L 222.874398 156.237099 
L 227.998365 154.385875 
L 233.122332 152.927109 
L 238.246299 151.664572 
L 243.370266 150.402036 
L 248.494233 147.048832 
L 253.6182 145.753035 
L 258.742167 144.457238 
L 263.866134 143.161441 
L 268.990101 136.034557 
L 274.114068 133.709498 
L 279.238035 131.384439 
L 284.362002 129.05938 
L 289.485968 117.176846 
L 294.609935 115.803574 
L 299.733902 114.430303 
L 304.857869 103.126365 
L 309.981836 101.509748 
L 315.105803 99.893131 
L 320.22977 98.276515 
L 325.353737 91.205272 
L 330.477704 89.688776 
L 335.601671 88.172281 
L 340.725638 86.655786 
L 345.849605 77.772614 
L 350.973572 76.574105 
L 356.097539 75.375595 
L 361.221506 74.177086 
L 366.345473 70.418697 
L 371.46944 69.273642 
L 376.593407 68.128587 
L 381.717373 66.236249 
L 386.84134 65.201342 
L 391.965307 64.166436 
L 397.089274 63.13153 
L 402.213241 62.096624 
L 407.337208 61.061718 
L 412.461175 60.026811 
L 417.585142 58.991905 
L 422.709109 57.956999 
L 427.833076 56.922093 
L 432.957043 55.887186 
L 438.08101 54.85228 
L 443.204977 53.817374 
L 448.328944 52.782468 
L 453.452911 51.747562 
L 458.576878 50.712655 
L 463.700845 49.677749 
L 468.824811 48.642843 
L 473.948778 47.607937 
L 479.072745 46.573031 
L 484.196712 45.538124 
L 489.320679 44.503218 
L 494.444646 43.468312 
L 499.568613 42.433406 
L 504.69258 41.398499 
L 509.816547 40.363593 
L 514.940514 39.328687 
L 520.064481 38.293781 
L 525.188448 37.258875 
L 530.312415 36.223968 
L 535.436382 35.189062 
L 540.560349 34.154156 
L 545.684316 33.11925 
L 550.808283 32.084344 
L 555.932249 31.049437 
L 561.056216 30.014531 
L 566.180183 28.979625 
L 571.30415 27.944719 
L 576.428117 26.909812 
L 581.552084 25.874906 
L 586.676051 24.84 
" style="fill:none;stroke:#a1cae2;stroke-dasharray:11.1,4.8;stroke-dashoffset:0;stroke-opacity:0.8;stroke-width:3;"/>
   </g>
   <g id="line2d_30">
    <path clip-path="url(#p36e45f0519)" d="M 79.403324 377.64 
L 586.676051 24.84 
" style="fill:none;stroke:#ff0000;stroke-linecap:round;stroke-opacity:0.8;stroke-width:3;"/>
   </g>
   <g id="patch_3">
    <path d="M 54.039687 395.28 
L 54.039687 7.2 
" style="fill:none;stroke:#cccccc;stroke-linecap:square;stroke-linejoin:miter;"/>
   </g>
   <g id="patch_4">
    <path d="M 612.039688 395.28 
L 612.039688 7.2 
" style="fill:none;stroke:#cccccc;stroke-linecap:square;stroke-linejoin:miter;"/>
   </g>
   <g id="patch_5">
    <path d="M 54.039687 395.28 
L 612.039688 395.28 
" style="fill:none;stroke:#cccccc;stroke-linecap:square;stroke-linejoin:miter;"/>
   </g>
   <g id="patch_6">
    <path d="M 54.039687 7.2 
L 612.039688 7.2 
" style="fill:none;stroke:#cccccc;stroke-linecap:square;stroke-linejoin:miter;"/>
   </g>
   <g id="legend_1">
    <g id="line2d_31">
     <path d="M 231.939688 292.609687 
L 259.939687 292.609687 
" style="fill:none;stroke:#f39189;stroke-dasharray:11.1,4.8;stroke-dashoffset:0;stroke-opacity:0.8;stroke-width:3;"/>
    </g>
    <g id="line2d_32"/>
    <g id="text_15">
     <!-- Mean ROC (RandomForest AUC = 0.69 $\pm$ 0.05) -->
     <g style="fill:#262626;" transform="translate(271.139688 297.509687)scale(0.14 -0.14)">
      <defs>
       <path d="M 628 4666 
L 1569 4666 
L 2759 1491 
L 3956 4666 
L 4897 4666 
L 4897 0 
L 4281 0 
L 4281 4097 
L 3078 897 
L 2444 897 
L 1241 4097 
L 1241 0 
L 628 0 
L 628 4666 
z
" id="DejaVuSans-4d" transform="scale(0.015625)"/>
       <path d="M 3513 2113 
L 3513 0 
L 2938 0 
L 2938 2094 
Q 2938 2591 2744 2837 
Q 2550 3084 2163 3084 
Q 1697 3084 1428 2787 
Q 1159 2491 1159 1978 
L 1159 0 
L 581 0 
L 581 3500 
L 1159 3500 
L 1159 2956 
Q 1366 3272 1645 3428 
Q 1925 3584 2291 3584 
Q 2894 3584 3203 3211 
Q 3513 2838 3513 2113 
z
" id="DejaVuSans-6e" transform="scale(0.015625)"/>
       <path d="M 2522 4238 
Q 1834 4238 1429 3725 
Q 1025 3213 1025 2328 
Q 1025 1447 1429 934 
Q 1834 422 2522 422 
Q 3209 422 3611 934 
Q 4013 1447 4013 2328 
Q 4013 3213 3611 3725 
Q 3209 4238 2522 4238 
z
M 2522 4750 
Q 3503 4750 4090 4092 
Q 4678 3434 4678 2328 
Q 4678 1225 4090 567 
Q 3503 -91 2522 -91 
Q 1538 -91 948 565 
Q 359 1222 359 2328 
Q 359 3434 948 4092 
Q 1538 4750 2522 4750 
z
" id="DejaVuSans-4f" transform="scale(0.015625)"/>
       <path d="M 4122 4306 
L 4122 3641 
Q 3803 3938 3442 4084 
Q 3081 4231 2675 4231 
Q 1875 4231 1450 3742 
Q 1025 3253 1025 2328 
Q 1025 1406 1450 917 
Q 1875 428 2675 428 
Q 3081 428 3442 575 
Q 3803 722 4122 1019 
L 4122 359 
Q 3791 134 3420 21 
Q 3050 -91 2638 -91 
Q 1578 -91 968 557 
Q 359 1206 359 2328 
Q 359 3453 968 4101 
Q 1578 4750 2638 4750 
Q 3056 4750 3426 4639 
Q 3797 4528 4122 4306 
z
" id="DejaVuSans-43" transform="scale(0.015625)"/>
       <path d="M 1984 4856 
Q 1566 4138 1362 3434 
Q 1159 2731 1159 2009 
Q 1159 1288 1364 580 
Q 1569 -128 1984 -844 
L 1484 -844 
Q 1016 -109 783 600 
Q 550 1309 550 2009 
Q 550 2706 781 3412 
Q 1013 4119 1484 4856 
L 1984 4856 
z
" id="DejaVuSans-28" transform="scale(0.015625)"/>
       <path d="M 2906 2969 
L 2906 4863 
L 3481 4863 
L 3481 0 
L 2906 0 
L 2906 525 
Q 2725 213 2448 61 
Q 2172 -91 1784 -91 
Q 1150 -91 751 415 
Q 353 922 353 1747 
Q 353 2572 751 3078 
Q 1150 3584 1784 3584 
Q 2172 3584 2448 3432 
Q 2725 3281 2906 2969 
z
M 947 1747 
Q 947 1113 1208 752 
Q 1469 391 1925 391 
Q 2381 391 2643 752 
Q 2906 1113 2906 1747 
Q 2906 2381 2643 2742 
Q 2381 3103 1925 3103 
Q 1469 3103 1208 2742 
Q 947 2381 947 1747 
z
" id="DejaVuSans-64" transform="scale(0.015625)"/>
       <path d="M 3328 2828 
Q 3544 3216 3844 3400 
Q 4144 3584 4550 3584 
Q 5097 3584 5394 3201 
Q 5691 2819 5691 2113 
L 5691 0 
L 5113 0 
L 5113 2094 
Q 5113 2597 4934 2840 
Q 4756 3084 4391 3084 
Q 3944 3084 3684 2787 
Q 3425 2491 3425 1978 
L 3425 0 
L 2847 0 
L 2847 2094 
Q 2847 2600 2669 2842 
Q 2491 3084 2119 3084 
Q 1678 3084 1418 2786 
Q 1159 2488 1159 1978 
L 1159 0 
L 581 0 
L 581 3500 
L 1159 3500 
L 1159 2956 
Q 1356 3278 1631 3431 
Q 1906 3584 2284 3584 
Q 2666 3584 2933 3390 
Q 3200 3197 3328 2828 
z
" id="DejaVuSans-6d" transform="scale(0.015625)"/>
       <path d="M 2188 4044 
L 1331 1722 
L 3047 1722 
L 2188 4044 
z
M 1831 4666 
L 2547 4666 
L 4325 0 
L 3669 0 
L 3244 1197 
L 1141 1197 
L 716 0 
L 50 0 
L 1831 4666 
z
" id="DejaVuSans-41" transform="scale(0.015625)"/>
       <path d="M 556 4666 
L 1191 4666 
L 1191 1831 
Q 1191 1081 1462 751 
Q 1734 422 2344 422 
Q 2950 422 3222 751 
Q 3494 1081 3494 1831 
L 3494 4666 
L 4128 4666 
L 4128 1753 
Q 4128 841 3676 375 
Q 3225 -91 2344 -91 
Q 1459 -91 1007 375 
Q 556 841 556 1753 
L 556 4666 
z
" id="DejaVuSans-55" transform="scale(0.015625)"/>
       <path d="M 678 2906 
L 4684 2906 
L 4684 2381 
L 678 2381 
L 678 2906 
z
M 678 1631 
L 4684 1631 
L 4684 1100 
L 678 1100 
L 678 1631 
z
" id="DejaVuSans-3d" transform="scale(0.015625)"/>
       <path d="M 703 97 
L 703 672 
Q 941 559 1184 500 
Q 1428 441 1663 441 
Q 2288 441 2617 861 
Q 2947 1281 2994 2138 
Q 2813 1869 2534 1725 
Q 2256 1581 1919 1581 
Q 1219 1581 811 2004 
Q 403 2428 403 3163 
Q 403 3881 828 4315 
Q 1253 4750 1959 4750 
Q 2769 4750 3195 4129 
Q 3622 3509 3622 2328 
Q 3622 1225 3098 567 
Q 2575 -91 1691 -91 
Q 1453 -91 1209 -44 
Q 966 3 703 97 
z
M 1959 2075 
Q 2384 2075 2632 2365 
Q 2881 2656 2881 3163 
Q 2881 3666 2632 3958 
Q 2384 4250 1959 4250 
Q 1534 4250 1286 3958 
Q 1038 3666 1038 3163 
Q 1038 2656 1286 2365 
Q 1534 2075 1959 2075 
z
" id="DejaVuSans-39" transform="scale(0.015625)"/>
       <path d="M 2944 4013 
L 2944 2803 
L 4684 2803 
L 4684 2272 
L 2944 2272 
L 2944 1063 
L 2419 1063 
L 2419 2272 
L 678 2272 
L 678 2803 
L 2419 2803 
L 2419 4013 
L 2944 4013 
z
M 678 531 
L 4684 531 
L 4684 0 
L 678 0 
L 678 531 
z
" id="DejaVuSans-b1" transform="scale(0.015625)"/>
       <path d="M 691 4666 
L 3169 4666 
L 3169 4134 
L 1269 4134 
L 1269 2991 
Q 1406 3038 1543 3061 
Q 1681 3084 1819 3084 
Q 2600 3084 3056 2656 
Q 3513 2228 3513 1497 
Q 3513 744 3044 326 
Q 2575 -91 1722 -91 
Q 1428 -91 1123 -41 
Q 819 9 494 109 
L 494 744 
Q 775 591 1075 516 
Q 1375 441 1709 441 
Q 2250 441 2565 725 
Q 2881 1009 2881 1497 
Q 2881 1984 2565 2268 
Q 2250 2553 1709 2553 
Q 1456 2553 1204 2497 
Q 953 2441 691 2322 
L 691 4666 
z
" id="DejaVuSans-35" transform="scale(0.015625)"/>
       <path d="M 513 4856 
L 1013 4856 
Q 1481 4119 1714 3412 
Q 1947 2706 1947 2009 
Q 1947 1309 1714 600 
Q 1481 -109 1013 -844 
L 513 -844 
Q 928 -128 1133 580 
Q 1338 1288 1338 2009 
Q 1338 2731 1133 3434 
Q 928 4138 513 4856 
z
" id="DejaVuSans-29" transform="scale(0.015625)"/>
      </defs>
      <use transform="translate(0 0.015625)" xlink:href="#DejaVuSans-4d"/>
      <use transform="translate(86.279297 0.015625)" xlink:href="#DejaVuSans-65"/>
      <use transform="translate(147.802734 0.015625)" xlink:href="#DejaVuSans-61"/>
      <use transform="translate(209.082031 0.015625)" xlink:href="#DejaVuSans-6e"/>
      <use transform="translate(272.460938 0.015625)" xlink:href="#DejaVuSans-20"/>
      <use transform="translate(304.248047 0.015625)" xlink:href="#DejaVuSans-52"/>
      <use transform="translate(373.730469 0.015625)" xlink:href="#DejaVuSans-4f"/>
      <use transform="translate(452.441406 0.015625)" xlink:href="#DejaVuSans-43"/>
      <use transform="translate(522.265625 0.015625)" xlink:href="#DejaVuSans-20"/>
      <use transform="translate(554.052734 0.015625)" xlink:href="#DejaVuSans-28"/>
      <use transform="translate(593.066406 0.015625)" xlink:href="#DejaVuSans-52"/>
      <use transform="translate(662.548828 0.015625)" xlink:href="#DejaVuSans-61"/>
      <use transform="translate(723.828125 0.015625)" xlink:href="#DejaVuSans-6e"/>
      <use transform="translate(787.207031 0.015625)" xlink:href="#DejaVuSans-64"/>
      <use transform="translate(850.683594 0.015625)" xlink:href="#DejaVuSans-6f"/>
      <use transform="translate(911.865234 0.015625)" xlink:href="#DejaVuSans-6d"/>
      <use transform="translate(1009.277344 0.015625)" xlink:href="#DejaVuSans-46"/>
      <use transform="translate(1066.796875 0.015625)" xlink:href="#DejaVuSans-6f"/>
      <use transform="translate(1127.978516 0.015625)" xlink:href="#DejaVuSans-72"/>
      <use transform="translate(1169.091797 0.015625)" xlink:href="#DejaVuSans-65"/>
      <use transform="translate(1230.615234 0.015625)" xlink:href="#DejaVuSans-73"/>
      <use transform="translate(1282.714844 0.015625)" xlink:href="#DejaVuSans-74"/>
      <use transform="translate(1321.923828 0.015625)" xlink:href="#DejaVuSans-20"/>
      <use transform="translate(1353.710938 0.015625)" xlink:href="#DejaVuSans-41"/>
      <use transform="translate(1422.119141 0.015625)" xlink:href="#DejaVuSans-55"/>
      <use transform="translate(1495.3125 0.015625)" xlink:href="#DejaVuSans-43"/>
      <use transform="translate(1565.136719 0.015625)" xlink:href="#DejaVuSans-20"/>
      <use transform="translate(1596.923828 0.015625)" xlink:href="#DejaVuSans-3d"/>
      <use transform="translate(1680.712891 0.015625)" xlink:href="#DejaVuSans-20"/>
      <use transform="translate(1712.5 0.015625)" xlink:href="#DejaVuSans-30"/>
      <use transform="translate(1776.123047 0.015625)" xlink:href="#DejaVuSans-2e"/>
      <use transform="translate(1807.910156 0.015625)" xlink:href="#DejaVuSans-36"/>
      <use transform="translate(1871.533203 0.015625)" xlink:href="#DejaVuSans-39"/>
      <use transform="translate(1935.15625 0.015625)" xlink:href="#DejaVuSans-20"/>
      <use transform="translate(1966.943359 0.015625)" xlink:href="#DejaVuSans-b1"/>
      <use transform="translate(2050.732422 0.015625)" xlink:href="#DejaVuSans-20"/>
      <use transform="translate(2082.519531 0.015625)" xlink:href="#DejaVuSans-30"/>
      <use transform="translate(2146.142578 0.015625)" xlink:href="#DejaVuSans-2e"/>
      <use transform="translate(2177.929688 0.015625)" xlink:href="#DejaVuSans-30"/>
      <use transform="translate(2241.552734 0.015625)" xlink:href="#DejaVuSans-35"/>
      <use transform="translate(2305.175781 0.015625)" xlink:href="#DejaVuSans-29"/>
     </g>
    </g>
    <g id="line2d_33">
     <path d="M 231.939688 313.159062 
L 259.939687 313.159062 
" style="fill:none;stroke:#9a86a4;stroke-dasharray:11.1,4.8;stroke-dashoffset:0;stroke-opacity:0.8;stroke-width:3;"/>
    </g>
    <g id="line2d_34"/>
    <g id="text_16">
     <!-- Mean ROC (DecisionTree AUC = 0.67 $\pm$ 0.08) -->
     <g style="fill:#262626;" transform="translate(271.139688 318.059062)scale(0.14 -0.14)">
      <defs>
       <path d="M 1259 4147 
L 1259 519 
L 2022 519 
Q 2988 519 3436 956 
Q 3884 1394 3884 2338 
Q 3884 3275 3436 3711 
Q 2988 4147 2022 4147 
L 1259 4147 
z
M 628 4666 
L 1925 4666 
Q 3281 4666 3915 4102 
Q 4550 3538 4550 2338 
Q 4550 1131 3912 565 
Q 3275 0 1925 0 
L 628 0 
L 628 4666 
z
" id="DejaVuSans-44" transform="scale(0.015625)"/>
       <path d="M 3122 3366 
L 3122 2828 
Q 2878 2963 2633 3030 
Q 2388 3097 2138 3097 
Q 1578 3097 1268 2742 
Q 959 2388 959 1747 
Q 959 1106 1268 751 
Q 1578 397 2138 397 
Q 2388 397 2633 464 
Q 2878 531 3122 666 
L 3122 134 
Q 2881 22 2623 -34 
Q 2366 -91 2075 -91 
Q 1284 -91 818 406 
Q 353 903 353 1747 
Q 353 2603 823 3093 
Q 1294 3584 2113 3584 
Q 2378 3584 2631 3529 
Q 2884 3475 3122 3366 
z
" id="DejaVuSans-63" transform="scale(0.015625)"/>
       <path d="M 525 4666 
L 3525 4666 
L 3525 4397 
L 1831 0 
L 1172 0 
L 2766 4134 
L 525 4134 
L 525 4666 
z
" id="DejaVuSans-37" transform="scale(0.015625)"/>
      </defs>
      <use transform="translate(0 0.015625)" xlink:href="#DejaVuSans-4d"/>
      <use transform="translate(86.279297 0.015625)" xlink:href="#DejaVuSans-65"/>
      <use transform="translate(147.802734 0.015625)" xlink:href="#DejaVuSans-61"/>
      <use transform="translate(209.082031 0.015625)" xlink:href="#DejaVuSans-6e"/>
      <use transform="translate(272.460938 0.015625)" xlink:href="#DejaVuSans-20"/>
      <use transform="translate(304.248047 0.015625)" xlink:href="#DejaVuSans-52"/>
      <use transform="translate(373.730469 0.015625)" xlink:href="#DejaVuSans-4f"/>
      <use transform="translate(452.441406 0.015625)" xlink:href="#DejaVuSans-43"/>
      <use transform="translate(522.265625 0.015625)" xlink:href="#DejaVuSans-20"/>
      <use transform="translate(554.052734 0.015625)" xlink:href="#DejaVuSans-28"/>
      <use transform="translate(593.066406 0.015625)" xlink:href="#DejaVuSans-44"/>
      <use transform="translate(670.068359 0.015625)" xlink:href="#DejaVuSans-65"/>
      <use transform="translate(731.591797 0.015625)" xlink:href="#DejaVuSans-63"/>
      <use transform="translate(786.572266 0.015625)" xlink:href="#DejaVuSans-69"/>
      <use transform="translate(814.355469 0.015625)" xlink:href="#DejaVuSans-73"/>
      <use transform="translate(866.455078 0.015625)" xlink:href="#DejaVuSans-69"/>
      <use transform="translate(894.238281 0.015625)" xlink:href="#DejaVuSans-6f"/>
      <use transform="translate(955.419922 0.015625)" xlink:href="#DejaVuSans-6e"/>
      <use transform="translate(1018.798828 0.015625)" xlink:href="#DejaVuSans-54"/>
      <use transform="translate(1079.882812 0.015625)" xlink:href="#DejaVuSans-72"/>
      <use transform="translate(1120.996094 0.015625)" xlink:href="#DejaVuSans-65"/>
      <use transform="translate(1182.519531 0.015625)" xlink:href="#DejaVuSans-65"/>
      <use transform="translate(1244.042969 0.015625)" xlink:href="#DejaVuSans-20"/>
      <use transform="translate(1275.830078 0.015625)" xlink:href="#DejaVuSans-41"/>
      <use transform="translate(1344.238281 0.015625)" xlink:href="#DejaVuSans-55"/>
      <use transform="translate(1417.431641 0.015625)" xlink:href="#DejaVuSans-43"/>
      <use transform="translate(1487.255859 0.015625)" xlink:href="#DejaVuSans-20"/>
      <use transform="translate(1519.042969 0.015625)" xlink:href="#DejaVuSans-3d"/>
      <use transform="translate(1602.832031 0.015625)" xlink:href="#DejaVuSans-20"/>
      <use transform="translate(1634.619141 0.015625)" xlink:href="#DejaVuSans-30"/>
      <use transform="translate(1698.242188 0.015625)" xlink:href="#DejaVuSans-2e"/>
      <use transform="translate(1730.029297 0.015625)" xlink:href="#DejaVuSans-36"/>
      <use transform="translate(1793.652344 0.015625)" xlink:href="#DejaVuSans-37"/>
      <use transform="translate(1857.275391 0.015625)" xlink:href="#DejaVuSans-20"/>
      <use transform="translate(1889.0625 0.015625)" xlink:href="#DejaVuSans-b1"/>
      <use transform="translate(1972.851562 0.015625)" xlink:href="#DejaVuSans-20"/>
      <use transform="translate(2004.638672 0.015625)" xlink:href="#DejaVuSans-30"/>
      <use transform="translate(2068.261719 0.015625)" xlink:href="#DejaVuSans-2e"/>
      <use transform="translate(2100.048828 0.015625)" xlink:href="#DejaVuSans-30"/>
      <use transform="translate(2163.671875 0.015625)" xlink:href="#DejaVuSans-38"/>
      <use transform="translate(2227.294922 0.015625)" xlink:href="#DejaVuSans-29"/>
     </g>
    </g>
    <g id="line2d_35">
     <path d="M 231.939688 333.708437 
L 259.939687 333.708437 
" style="fill:none;stroke:#e2c2b9;stroke-dasharray:11.1,4.8;stroke-dashoffset:0;stroke-opacity:0.8;stroke-width:3;"/>
    </g>
    <g id="line2d_36"/>
    <g id="text_17">
     <!-- Mean ROC (KNN AUC = 0.66 $\pm$ 0.03) -->
     <g style="fill:#262626;" transform="translate(271.139688 338.608437)scale(0.14 -0.14)">
      <defs>
       <path d="M 628 4666 
L 1259 4666 
L 1259 2694 
L 3353 4666 
L 4166 4666 
L 1850 2491 
L 4331 0 
L 3500 0 
L 1259 2247 
L 1259 0 
L 628 0 
L 628 4666 
z
" id="DejaVuSans-4b" transform="scale(0.015625)"/>
       <path d="M 628 4666 
L 1478 4666 
L 3547 763 
L 3547 4666 
L 4159 4666 
L 4159 0 
L 3309 0 
L 1241 3903 
L 1241 0 
L 628 0 
L 628 4666 
z
" id="DejaVuSans-4e" transform="scale(0.015625)"/>
       <path d="M 2597 2516 
Q 3050 2419 3304 2112 
Q 3559 1806 3559 1356 
Q 3559 666 3084 287 
Q 2609 -91 1734 -91 
Q 1441 -91 1130 -33 
Q 819 25 488 141 
L 488 750 
Q 750 597 1062 519 
Q 1375 441 1716 441 
Q 2309 441 2620 675 
Q 2931 909 2931 1356 
Q 2931 1769 2642 2001 
Q 2353 2234 1838 2234 
L 1294 2234 
L 1294 2753 
L 1863 2753 
Q 2328 2753 2575 2939 
Q 2822 3125 2822 3475 
Q 2822 3834 2567 4026 
Q 2313 4219 1838 4219 
Q 1578 4219 1281 4162 
Q 984 4106 628 3988 
L 628 4550 
Q 988 4650 1302 4700 
Q 1616 4750 1894 4750 
Q 2613 4750 3031 4423 
Q 3450 4097 3450 3541 
Q 3450 3153 3228 2886 
Q 3006 2619 2597 2516 
z
" id="DejaVuSans-33" transform="scale(0.015625)"/>
      </defs>
      <use transform="translate(0 0.125)" xlink:href="#DejaVuSans-4d"/>
      <use transform="translate(86.279297 0.125)" xlink:href="#DejaVuSans-65"/>
      <use transform="translate(147.802734 0.125)" xlink:href="#DejaVuSans-61"/>
      <use transform="translate(209.082031 0.125)" xlink:href="#DejaVuSans-6e"/>
      <use transform="translate(272.460938 0.125)" xlink:href="#DejaVuSans-20"/>
      <use transform="translate(304.248047 0.125)" xlink:href="#DejaVuSans-52"/>
      <use transform="translate(373.730469 0.125)" xlink:href="#DejaVuSans-4f"/>
      <use transform="translate(452.441406 0.125)" xlink:href="#DejaVuSans-43"/>
      <use transform="translate(522.265625 0.125)" xlink:href="#DejaVuSans-20"/>
      <use transform="translate(554.052734 0.125)" xlink:href="#DejaVuSans-28"/>
      <use transform="translate(593.066406 0.125)" xlink:href="#DejaVuSans-4b"/>
      <use transform="translate(658.642578 0.125)" xlink:href="#DejaVuSans-4e"/>
      <use transform="translate(733.447266 0.125)" xlink:href="#DejaVuSans-4e"/>
      <use transform="translate(808.251953 0.125)" xlink:href="#DejaVuSans-20"/>
      <use transform="translate(840.039062 0.125)" xlink:href="#DejaVuSans-41"/>
      <use transform="translate(908.447266 0.125)" xlink:href="#DejaVuSans-55"/>
      <use transform="translate(981.640625 0.125)" xlink:href="#DejaVuSans-43"/>
      <use transform="translate(1051.464844 0.125)" xlink:href="#DejaVuSans-20"/>
      <use transform="translate(1083.251953 0.125)" xlink:href="#DejaVuSans-3d"/>
      <use transform="translate(1167.041016 0.125)" xlink:href="#DejaVuSans-20"/>
      <use transform="translate(1198.828125 0.125)" xlink:href="#DejaVuSans-30"/>
      <use transform="translate(1262.451172 0.125)" xlink:href="#DejaVuSans-2e"/>
      <use transform="translate(1294.238281 0.125)" xlink:href="#DejaVuSans-36"/>
      <use transform="translate(1357.861328 0.125)" xlink:href="#DejaVuSans-36"/>
      <use transform="translate(1421.484375 0.125)" xlink:href="#DejaVuSans-20"/>
      <use transform="translate(1453.271484 0.125)" xlink:href="#DejaVuSans-b1"/>
      <use transform="translate(1537.060547 0.125)" xlink:href="#DejaVuSans-20"/>
      <use transform="translate(1568.847656 0.125)" xlink:href="#DejaVuSans-30"/>
      <use transform="translate(1632.470703 0.125)" xlink:href="#DejaVuSans-2e"/>
      <use transform="translate(1664.257812 0.125)" xlink:href="#DejaVuSans-30"/>
      <use transform="translate(1727.880859 0.125)" xlink:href="#DejaVuSans-33"/>
      <use transform="translate(1791.503906 0.125)" xlink:href="#DejaVuSans-29"/>
     </g>
    </g>
    <g id="line2d_37">
     <path d="M 231.939688 354.26 
L 259.939687 354.26 
" style="fill:none;stroke:#555555;stroke-dasharray:11.1,4.8;stroke-dashoffset:0;stroke-opacity:0.8;stroke-width:3;"/>
    </g>
    <g id="line2d_38"/>
    <g id="text_18">
     <!-- Mean ROC (Xgboost AUC = 0.67 $\pm$ 0.04) -->
     <g style="fill:#262626;" transform="translate(271.139688 359.16)scale(0.14 -0.14)">
      <defs>
       <path d="M 403 4666 
L 1081 4666 
L 2241 2931 
L 3406 4666 
L 4084 4666 
L 2584 2425 
L 4184 0 
L 3506 0 
L 2194 1984 
L 872 0 
L 191 0 
L 1856 2491 
L 403 4666 
z
" id="DejaVuSans-58" transform="scale(0.015625)"/>
       <path d="M 2906 1791 
Q 2906 2416 2648 2759 
Q 2391 3103 1925 3103 
Q 1463 3103 1205 2759 
Q 947 2416 947 1791 
Q 947 1169 1205 825 
Q 1463 481 1925 481 
Q 2391 481 2648 825 
Q 2906 1169 2906 1791 
z
M 3481 434 
Q 3481 -459 3084 -895 
Q 2688 -1331 1869 -1331 
Q 1566 -1331 1297 -1286 
Q 1028 -1241 775 -1147 
L 775 -588 
Q 1028 -725 1275 -790 
Q 1522 -856 1778 -856 
Q 2344 -856 2625 -561 
Q 2906 -266 2906 331 
L 2906 616 
Q 2728 306 2450 153 
Q 2172 0 1784 0 
Q 1141 0 747 490 
Q 353 981 353 1791 
Q 353 2603 747 3093 
Q 1141 3584 1784 3584 
Q 2172 3584 2450 3431 
Q 2728 3278 2906 2969 
L 2906 3500 
L 3481 3500 
L 3481 434 
z
" id="DejaVuSans-67" transform="scale(0.015625)"/>
       <path d="M 3116 1747 
Q 3116 2381 2855 2742 
Q 2594 3103 2138 3103 
Q 1681 3103 1420 2742 
Q 1159 2381 1159 1747 
Q 1159 1113 1420 752 
Q 1681 391 2138 391 
Q 2594 391 2855 752 
Q 3116 1113 3116 1747 
z
M 1159 2969 
Q 1341 3281 1617 3432 
Q 1894 3584 2278 3584 
Q 2916 3584 3314 3078 
Q 3713 2572 3713 1747 
Q 3713 922 3314 415 
Q 2916 -91 2278 -91 
Q 1894 -91 1617 61 
Q 1341 213 1159 525 
L 1159 0 
L 581 0 
L 581 4863 
L 1159 4863 
L 1159 2969 
z
" id="DejaVuSans-62" transform="scale(0.015625)"/>
      </defs>
      <use transform="translate(0 0.015625)" xlink:href="#DejaVuSans-4d"/>
      <use transform="translate(86.279297 0.015625)" xlink:href="#DejaVuSans-65"/>
      <use transform="translate(147.802734 0.015625)" xlink:href="#DejaVuSans-61"/>
      <use transform="translate(209.082031 0.015625)" xlink:href="#DejaVuSans-6e"/>
      <use transform="translate(272.460938 0.015625)" xlink:href="#DejaVuSans-20"/>
      <use transform="translate(304.248047 0.015625)" xlink:href="#DejaVuSans-52"/>
      <use transform="translate(373.730469 0.015625)" xlink:href="#DejaVuSans-4f"/>
      <use transform="translate(452.441406 0.015625)" xlink:href="#DejaVuSans-43"/>
      <use transform="translate(522.265625 0.015625)" xlink:href="#DejaVuSans-20"/>
      <use transform="translate(554.052734 0.015625)" xlink:href="#DejaVuSans-28"/>
      <use transform="translate(593.066406 0.015625)" xlink:href="#DejaVuSans-58"/>
      <use transform="translate(661.572266 0.015625)" xlink:href="#DejaVuSans-67"/>
      <use transform="translate(725.048828 0.015625)" xlink:href="#DejaVuSans-62"/>
      <use transform="translate(788.525391 0.015625)" xlink:href="#DejaVuSans-6f"/>
      <use transform="translate(849.707031 0.015625)" xlink:href="#DejaVuSans-6f"/>
      <use transform="translate(910.888672 0.015625)" xlink:href="#DejaVuSans-73"/>
      <use transform="translate(962.988281 0.015625)" xlink:href="#DejaVuSans-74"/>
      <use transform="translate(1002.197266 0.015625)" xlink:href="#DejaVuSans-20"/>
      <use transform="translate(1033.984375 0.015625)" xlink:href="#DejaVuSans-41"/>
      <use transform="translate(1102.392578 0.015625)" xlink:href="#DejaVuSans-55"/>
      <use transform="translate(1175.585938 0.015625)" xlink:href="#DejaVuSans-43"/>
      <use transform="translate(1245.410156 0.015625)" xlink:href="#DejaVuSans-20"/>
      <use transform="translate(1277.197266 0.015625)" xlink:href="#DejaVuSans-3d"/>
      <use transform="translate(1360.986328 0.015625)" xlink:href="#DejaVuSans-20"/>
      <use transform="translate(1392.773438 0.015625)" xlink:href="#DejaVuSans-30"/>
      <use transform="translate(1456.396484 0.015625)" xlink:href="#DejaVuSans-2e"/>
      <use transform="translate(1488.183594 0.015625)" xlink:href="#DejaVuSans-36"/>
      <use transform="translate(1551.806641 0.015625)" xlink:href="#DejaVuSans-37"/>
      <use transform="translate(1615.429688 0.015625)" xlink:href="#DejaVuSans-20"/>
      <use transform="translate(1647.216797 0.015625)" xlink:href="#DejaVuSans-b1"/>
      <use transform="translate(1731.005859 0.015625)" xlink:href="#DejaVuSans-20"/>
      <use transform="translate(1762.792969 0.015625)" xlink:href="#DejaVuSans-30"/>
      <use transform="translate(1826.416016 0.015625)" xlink:href="#DejaVuSans-2e"/>
      <use transform="translate(1858.203125 0.015625)" xlink:href="#DejaVuSans-30"/>
      <use transform="translate(1921.826172 0.015625)" xlink:href="#DejaVuSans-34"/>
      <use transform="translate(1985.449219 0.015625)" xlink:href="#DejaVuSans-29"/>
     </g>
    </g>
    <g id="line2d_39">
     <path d="M 231.939688 374.84 
L 259.939687 374.84 
" style="fill:none;stroke:#a1cae2;stroke-dasharray:11.1,4.8;stroke-dashoffset:0;stroke-opacity:0.8;stroke-width:3;"/>
    </g>
    <g id="line2d_40"/>
    <g id="text_19">
     <!-- Mean ROC (SynClass AUC = 0.76 $\pm$ 0.03) -->
     <g style="fill:#262626;" transform="translate(271.139688 379.74)scale(0.14 -0.14)">
      <defs>
       <path d="M 3425 4513 
L 3425 3897 
Q 3066 4069 2747 4153 
Q 2428 4238 2131 4238 
Q 1616 4238 1336 4038 
Q 1056 3838 1056 3469 
Q 1056 3159 1242 3001 
Q 1428 2844 1947 2747 
L 2328 2669 
Q 3034 2534 3370 2195 
Q 3706 1856 3706 1288 
Q 3706 609 3251 259 
Q 2797 -91 1919 -91 
Q 1588 -91 1214 -16 
Q 841 59 441 206 
L 441 856 
Q 825 641 1194 531 
Q 1563 422 1919 422 
Q 2459 422 2753 634 
Q 3047 847 3047 1241 
Q 3047 1584 2836 1778 
Q 2625 1972 2144 2069 
L 1759 2144 
Q 1053 2284 737 2584 
Q 422 2884 422 3419 
Q 422 4038 858 4394 
Q 1294 4750 2059 4750 
Q 2388 4750 2728 4690 
Q 3069 4631 3425 4513 
z
" id="DejaVuSans-53" transform="scale(0.015625)"/>
       <path d="M 2059 -325 
Q 1816 -950 1584 -1140 
Q 1353 -1331 966 -1331 
L 506 -1331 
L 506 -850 
L 844 -850 
Q 1081 -850 1212 -737 
Q 1344 -625 1503 -206 
L 1606 56 
L 191 3500 
L 800 3500 
L 1894 763 
L 2988 3500 
L 3597 3500 
L 2059 -325 
z
" id="DejaVuSans-79" transform="scale(0.015625)"/>
      </defs>
      <use transform="translate(0 0.015625)" xlink:href="#DejaVuSans-4d"/>
      <use transform="translate(86.279297 0.015625)" xlink:href="#DejaVuSans-65"/>
      <use transform="translate(147.802734 0.015625)" xlink:href="#DejaVuSans-61"/>
      <use transform="translate(209.082031 0.015625)" xlink:href="#DejaVuSans-6e"/>
      <use transform="translate(272.460938 0.015625)" xlink:href="#DejaVuSans-20"/>
      <use transform="translate(304.248047 0.015625)" xlink:href="#DejaVuSans-52"/>
      <use transform="translate(373.730469 0.015625)" xlink:href="#DejaVuSans-4f"/>
      <use transform="translate(452.441406 0.015625)" xlink:href="#DejaVuSans-43"/>
      <use transform="translate(522.265625 0.015625)" xlink:href="#DejaVuSans-20"/>
      <use transform="translate(554.052734 0.015625)" xlink:href="#DejaVuSans-28"/>
      <use transform="translate(593.066406 0.015625)" xlink:href="#DejaVuSans-53"/>
      <use transform="translate(656.542969 0.015625)" xlink:href="#DejaVuSans-79"/>
      <use transform="translate(715.722656 0.015625)" xlink:href="#DejaVuSans-6e"/>
      <use transform="translate(779.101562 0.015625)" xlink:href="#DejaVuSans-43"/>
      <use transform="translate(848.925781 0.015625)" xlink:href="#DejaVuSans-6c"/>
      <use transform="translate(876.708984 0.015625)" xlink:href="#DejaVuSans-61"/>
      <use transform="translate(937.988281 0.015625)" xlink:href="#DejaVuSans-73"/>
      <use transform="translate(990.087891 0.015625)" xlink:href="#DejaVuSans-73"/>
      <use transform="translate(1042.1875 0.015625)" xlink:href="#DejaVuSans-20"/>
      <use transform="translate(1073.974609 0.015625)" xlink:href="#DejaVuSans-41"/>
      <use transform="translate(1142.382812 0.015625)" xlink:href="#DejaVuSans-55"/>
      <use transform="translate(1215.576172 0.015625)" xlink:href="#DejaVuSans-43"/>
      <use transform="translate(1285.400391 0.015625)" xlink:href="#DejaVuSans-20"/>
      <use transform="translate(1317.1875 0.015625)" xlink:href="#DejaVuSans-3d"/>
      <use transform="translate(1400.976562 0.015625)" xlink:href="#DejaVuSans-20"/>
      <use transform="translate(1432.763672 0.015625)" xlink:href="#DejaVuSans-30"/>
      <use transform="translate(1496.386719 0.015625)" xlink:href="#DejaVuSans-2e"/>
      <use transform="translate(1520.423828 0.015625)" xlink:href="#DejaVuSans-37"/>
      <use transform="translate(1584.046875 0.015625)" xlink:href="#DejaVuSans-36"/>
      <use transform="translate(1647.669922 0.015625)" xlink:href="#DejaVuSans-20"/>
      <use transform="translate(1679.457031 0.015625)" xlink:href="#DejaVuSans-b1"/>
      <use transform="translate(1763.246094 0.015625)" xlink:href="#DejaVuSans-20"/>
      <use transform="translate(1795.033203 0.015625)" xlink:href="#DejaVuSans-30"/>
      <use transform="translate(1858.65625 0.015625)" xlink:href="#DejaVuSans-2e"/>
      <use transform="translate(1890.443359 0.015625)" xlink:href="#DejaVuSans-30"/>
      <use transform="translate(1954.066406 0.015625)" xlink:href="#DejaVuSans-33"/>
      <use transform="translate(2017.689453 0.015625)" xlink:href="#DejaVuSans-29"/>
     </g>
    </g>
   </g>
  </g>
 </g>
 <defs>
  <clipPath id="p36e45f0519">
   <rect height="388.08" width="558" x="54.039687" y="7.2"/>
  </clipPath>
 </defs>
</svg>
