<?xml version="1.0" encoding="utf-8" standalone="no"?>
<!DOCTYPE svg PUBLIC "-//W3C//DTD SVG 1.1//EN"
  "http://www.w3.org/Graphics/SVG/1.1/DTD/svg11.dtd">
<svg height="439.982187pt" version="1.1" viewBox="0 0 619.239687 439.982187" width="619.239687pt" xmlns="http://www.w3.org/2000/svg" xmlns:xlink="http://www.w3.org/1999/xlink">
 <metadata>
  <rdf:RDF xmlns:cc="http://creativecommons.org/ns#" xmlns:dc="http://purl.org/dc/elements/1.1/" xmlns:rdf="http://www.w3.org/1999/02/22-rdf-syntax-ns#">
   <cc:Work>
    <dc:type rdf:resource="http://purl.org/dc/dcmitype/StillImage"/>
    <dc:date>2022-08-08T21:31:34.728377</dc:date>
    <dc:format>image/svg+xml</dc:format>
    <dc:creator>
     <cc:Agent>
      <dc:title>Matplotlib v3.4.3, https://matplotlib.org/</dc:title>
     </cc:Agent>
    </dc:creator>
   </cc:Work>
  </rdf:RDF>
 </metadata>
 <defs>
  <style type="text/css">*{stroke-linecap:butt;stroke-linejoin:round;}</style>
 </defs>
 <g id="figure_1">
  <g id="patch_1">
   <path d="M 0 439.982187 
L 619.239687 439.982187 
L 619.239687 0 
L 0 0 
z
" style="fill:#ffffff;"/>
  </g>
  <g id="axes_1">
   <g id="patch_2">
    <path d="M 54.039687 395.28 
L 612.039688 395.28 
L 612.039688 7.2 
L 54.039687 7.2 
z
" style="fill:#ffffff;"/>
   </g>
   <g id="matplotlib.axis_1">
    <g id="xtick_1">
     <g id="line2d_1">
      <path clip-path="url(#p3647b8a4cc)" d="M 79.403324 395.28 
L 79.403324 7.2 
" style="fill:none;stroke:#cccccc;stroke-linecap:round;stroke-width:0.8;"/>
     </g>
     <g id="line2d_2"/>
     <g id="text_1">
      <!-- 0.0 -->
      <g style="fill:#262626;" transform="translate(67.47598 410.177656)scale(0.15 -0.15)">
       <defs>
        <path d="M 2034 4250 
Q 1547 4250 1301 3770 
Q 1056 3291 1056 2328 
Q 1056 1369 1301 889 
Q 1547 409 2034 409 
Q 2525 409 2770 889 
Q 3016 1369 3016 2328 
Q 3016 3291 2770 3770 
Q 2525 4250 2034 4250 
z
M 2034 4750 
Q 2819 4750 3233 4129 
Q 3647 3509 3647 2328 
Q 3647 1150 3233 529 
Q 2819 -91 2034 -91 
Q 1250 -91 836 529 
Q 422 1150 422 2328 
Q 422 3509 836 4129 
Q 1250 4750 2034 4750 
z
" id="DejaVuSans-30" transform="scale(0.015625)"/>
        <path d="M 684 794 
L 1344 794 
L 1344 0 
L 684 0 
L 684 794 
z
" id="DejaVuSans-2e" transform="scale(0.015625)"/>
       </defs>
       <use xlink:href="#DejaVuSans-30"/>
       <use x="63.623047" xlink:href="#DejaVuSans-2e"/>
       <use x="95.410156" xlink:href="#DejaVuSans-30"/>
      </g>
     </g>
    </g>
    <g id="xtick_2">
     <g id="line2d_3">
      <path clip-path="url(#p3647b8a4cc)" d="M 180.857869 395.28 
L 180.857869 7.2 
" style="fill:none;stroke:#cccccc;stroke-linecap:round;stroke-width:0.8;"/>
     </g>
     <g id="line2d_4"/>
     <g id="text_2">
      <!-- 0.2 -->
      <g style="fill:#262626;" transform="translate(168.930526 410.177656)scale(0.15 -0.15)">
       <defs>
        <path d="M 1228 531 
L 3431 531 
L 3431 0 
L 469 0 
L 469 531 
Q 828 903 1448 1529 
Q 2069 2156 2228 2338 
Q 2531 2678 2651 2914 
Q 2772 3150 2772 3378 
Q 2772 3750 2511 3984 
Q 2250 4219 1831 4219 
Q 1534 4219 1204 4116 
Q 875 4013 500 3803 
L 500 4441 
Q 881 4594 1212 4672 
Q 1544 4750 1819 4750 
Q 2544 4750 2975 4387 
Q 3406 4025 3406 3419 
Q 3406 3131 3298 2873 
Q 3191 2616 2906 2266 
Q 2828 2175 2409 1742 
Q 1991 1309 1228 531 
z
" id="DejaVuSans-32" transform="scale(0.015625)"/>
       </defs>
       <use xlink:href="#DejaVuSans-30"/>
       <use x="63.623047" xlink:href="#DejaVuSans-2e"/>
       <use x="95.410156" xlink:href="#DejaVuSans-32"/>
      </g>
     </g>
    </g>
    <g id="xtick_3">
     <g id="line2d_5">
      <path clip-path="url(#p3647b8a4cc)" d="M 282.312415 395.28 
L 282.312415 7.2 
" style="fill:none;stroke:#cccccc;stroke-linecap:round;stroke-width:0.8;"/>
     </g>
     <g id="line2d_6"/>
     <g id="text_3">
      <!-- 0.4 -->
      <g style="fill:#262626;" transform="translate(270.385071 410.177656)scale(0.15 -0.15)">
       <defs>
        <path d="M 2419 4116 
L 825 1625 
L 2419 1625 
L 2419 4116 
z
M 2253 4666 
L 3047 4666 
L 3047 1625 
L 3713 1625 
L 3713 1100 
L 3047 1100 
L 3047 0 
L 2419 0 
L 2419 1100 
L 313 1100 
L 313 1709 
L 2253 4666 
z
" id="DejaVuSans-34" transform="scale(0.015625)"/>
       </defs>
       <use xlink:href="#DejaVuSans-30"/>
       <use x="63.623047" xlink:href="#DejaVuSans-2e"/>
       <use x="95.410156" xlink:href="#DejaVuSans-34"/>
      </g>
     </g>
    </g>
    <g id="xtick_4">
     <g id="line2d_7">
      <path clip-path="url(#p3647b8a4cc)" d="M 383.76696 395.28 
L 383.76696 7.2 
" style="fill:none;stroke:#cccccc;stroke-linecap:round;stroke-width:0.8;"/>
     </g>
     <g id="line2d_8"/>
     <g id="text_4">
      <!-- 0.6 -->
      <g style="fill:#262626;" transform="translate(371.839616 410.177656)scale(0.15 -0.15)">
       <defs>
        <path d="M 2113 2584 
Q 1688 2584 1439 2293 
Q 1191 2003 1191 1497 
Q 1191 994 1439 701 
Q 1688 409 2113 409 
Q 2538 409 2786 701 
Q 3034 994 3034 1497 
Q 3034 2003 2786 2293 
Q 2538 2584 2113 2584 
z
M 3366 4563 
L 3366 3988 
Q 3128 4100 2886 4159 
Q 2644 4219 2406 4219 
Q 1781 4219 1451 3797 
Q 1122 3375 1075 2522 
Q 1259 2794 1537 2939 
Q 1816 3084 2150 3084 
Q 2853 3084 3261 2657 
Q 3669 2231 3669 1497 
Q 3669 778 3244 343 
Q 2819 -91 2113 -91 
Q 1303 -91 875 529 
Q 447 1150 447 2328 
Q 447 3434 972 4092 
Q 1497 4750 2381 4750 
Q 2619 4750 2861 4703 
Q 3103 4656 3366 4563 
z
" id="DejaVuSans-36" transform="scale(0.015625)"/>
       </defs>
       <use xlink:href="#DejaVuSans-30"/>
       <use x="63.623047" xlink:href="#DejaVuSans-2e"/>
       <use x="95.410156" xlink:href="#DejaVuSans-36"/>
      </g>
     </g>
    </g>
    <g id="xtick_5">
     <g id="line2d_9">
      <path clip-path="url(#p3647b8a4cc)" d="M 485.221506 395.28 
L 485.221506 7.2 
" style="fill:none;stroke:#cccccc;stroke-linecap:round;stroke-width:0.8;"/>
     </g>
     <g id="line2d_10"/>
     <g id="text_5">
      <!-- 0.8 -->
      <g style="fill:#262626;" transform="translate(473.294162 410.177656)scale(0.15 -0.15)">
       <defs>
        <path d="M 2034 2216 
Q 1584 2216 1326 1975 
Q 1069 1734 1069 1313 
Q 1069 891 1326 650 
Q 1584 409 2034 409 
Q 2484 409 2743 651 
Q 3003 894 3003 1313 
Q 3003 1734 2745 1975 
Q 2488 2216 2034 2216 
z
M 1403 2484 
Q 997 2584 770 2862 
Q 544 3141 544 3541 
Q 544 4100 942 4425 
Q 1341 4750 2034 4750 
Q 2731 4750 3128 4425 
Q 3525 4100 3525 3541 
Q 3525 3141 3298 2862 
Q 3072 2584 2669 2484 
Q 3125 2378 3379 2068 
Q 3634 1759 3634 1313 
Q 3634 634 3220 271 
Q 2806 -91 2034 -91 
Q 1263 -91 848 271 
Q 434 634 434 1313 
Q 434 1759 690 2068 
Q 947 2378 1403 2484 
z
M 1172 3481 
Q 1172 3119 1398 2916 
Q 1625 2713 2034 2713 
Q 2441 2713 2670 2916 
Q 2900 3119 2900 3481 
Q 2900 3844 2670 4047 
Q 2441 4250 2034 4250 
Q 1625 4250 1398 4047 
Q 1172 3844 1172 3481 
z
" id="DejaVuSans-38" transform="scale(0.015625)"/>
       </defs>
       <use xlink:href="#DejaVuSans-30"/>
       <use x="63.623047" xlink:href="#DejaVuSans-2e"/>
       <use x="95.410156" xlink:href="#DejaVuSans-38"/>
      </g>
     </g>
    </g>
    <g id="xtick_6">
     <g id="line2d_11">
      <path clip-path="url(#p3647b8a4cc)" d="M 586.676051 395.28 
L 586.676051 7.2 
" style="fill:none;stroke:#cccccc;stroke-linecap:round;stroke-width:0.8;"/>
     </g>
     <g id="line2d_12"/>
     <g id="text_6">
      <!-- 1.0 -->
      <g style="fill:#262626;" transform="translate(574.748707 410.177656)scale(0.15 -0.15)">
       <defs>
        <path d="M 794 531 
L 1825 531 
L 1825 4091 
L 703 3866 
L 703 4441 
L 1819 4666 
L 2450 4666 
L 2450 531 
L 3481 531 
L 3481 0 
L 794 0 
L 794 531 
z
" id="DejaVuSans-31" transform="scale(0.015625)"/>
       </defs>
       <use xlink:href="#DejaVuSans-31"/>
       <use x="63.623047" xlink:href="#DejaVuSans-2e"/>
       <use x="95.410156" xlink:href="#DejaVuSans-30"/>
      </g>
     </g>
    </g>
    <g id="text_7">
     <!-- False Positive Rate -->
     <g style="fill:#262626;" transform="translate(258.693438 429.454687)scale(0.16 -0.16)">
      <defs>
       <path d="M 628 4666 
L 3309 4666 
L 3309 4134 
L 1259 4134 
L 1259 2759 
L 3109 2759 
L 3109 2228 
L 1259 2228 
L 1259 0 
L 628 0 
L 628 4666 
z
" id="DejaVuSans-46" transform="scale(0.015625)"/>
       <path d="M 2194 1759 
Q 1497 1759 1228 1600 
Q 959 1441 959 1056 
Q 959 750 1161 570 
Q 1363 391 1709 391 
Q 2188 391 2477 730 
Q 2766 1069 2766 1631 
L 2766 1759 
L 2194 1759 
z
M 3341 1997 
L 3341 0 
L 2766 0 
L 2766 531 
Q 2569 213 2275 61 
Q 1981 -91 1556 -91 
Q 1019 -91 701 211 
Q 384 513 384 1019 
Q 384 1609 779 1909 
Q 1175 2209 1959 2209 
L 2766 2209 
L 2766 2266 
Q 2766 2663 2505 2880 
Q 2244 3097 1772 3097 
Q 1472 3097 1187 3025 
Q 903 2953 641 2809 
L 641 3341 
Q 956 3463 1253 3523 
Q 1550 3584 1831 3584 
Q 2591 3584 2966 3190 
Q 3341 2797 3341 1997 
z
" id="DejaVuSans-61" transform="scale(0.015625)"/>
       <path d="M 603 4863 
L 1178 4863 
L 1178 0 
L 603 0 
L 603 4863 
z
" id="DejaVuSans-6c" transform="scale(0.015625)"/>
       <path d="M 2834 3397 
L 2834 2853 
Q 2591 2978 2328 3040 
Q 2066 3103 1784 3103 
Q 1356 3103 1142 2972 
Q 928 2841 928 2578 
Q 928 2378 1081 2264 
Q 1234 2150 1697 2047 
L 1894 2003 
Q 2506 1872 2764 1633 
Q 3022 1394 3022 966 
Q 3022 478 2636 193 
Q 2250 -91 1575 -91 
Q 1294 -91 989 -36 
Q 684 19 347 128 
L 347 722 
Q 666 556 975 473 
Q 1284 391 1588 391 
Q 1994 391 2212 530 
Q 2431 669 2431 922 
Q 2431 1156 2273 1281 
Q 2116 1406 1581 1522 
L 1381 1569 
Q 847 1681 609 1914 
Q 372 2147 372 2553 
Q 372 3047 722 3315 
Q 1072 3584 1716 3584 
Q 2034 3584 2315 3537 
Q 2597 3491 2834 3397 
z
" id="DejaVuSans-73" transform="scale(0.015625)"/>
       <path d="M 3597 1894 
L 3597 1613 
L 953 1613 
Q 991 1019 1311 708 
Q 1631 397 2203 397 
Q 2534 397 2845 478 
Q 3156 559 3463 722 
L 3463 178 
Q 3153 47 2828 -22 
Q 2503 -91 2169 -91 
Q 1331 -91 842 396 
Q 353 884 353 1716 
Q 353 2575 817 3079 
Q 1281 3584 2069 3584 
Q 2775 3584 3186 3129 
Q 3597 2675 3597 1894 
z
M 3022 2063 
Q 3016 2534 2758 2815 
Q 2500 3097 2075 3097 
Q 1594 3097 1305 2825 
Q 1016 2553 972 2059 
L 3022 2063 
z
" id="DejaVuSans-65" transform="scale(0.015625)"/>
       <path id="DejaVuSans-20" transform="scale(0.015625)"/>
       <path d="M 1259 4147 
L 1259 2394 
L 2053 2394 
Q 2494 2394 2734 2622 
Q 2975 2850 2975 3272 
Q 2975 3691 2734 3919 
Q 2494 4147 2053 4147 
L 1259 4147 
z
M 628 4666 
L 2053 4666 
Q 2838 4666 3239 4311 
Q 3641 3956 3641 3272 
Q 3641 2581 3239 2228 
Q 2838 1875 2053 1875 
L 1259 1875 
L 1259 0 
L 628 0 
L 628 4666 
z
" id="DejaVuSans-50" transform="scale(0.015625)"/>
       <path d="M 1959 3097 
Q 1497 3097 1228 2736 
Q 959 2375 959 1747 
Q 959 1119 1226 758 
Q 1494 397 1959 397 
Q 2419 397 2687 759 
Q 2956 1122 2956 1747 
Q 2956 2369 2687 2733 
Q 2419 3097 1959 3097 
z
M 1959 3584 
Q 2709 3584 3137 3096 
Q 3566 2609 3566 1747 
Q 3566 888 3137 398 
Q 2709 -91 1959 -91 
Q 1206 -91 779 398 
Q 353 888 353 1747 
Q 353 2609 779 3096 
Q 1206 3584 1959 3584 
z
" id="DejaVuSans-6f" transform="scale(0.015625)"/>
       <path d="M 603 3500 
L 1178 3500 
L 1178 0 
L 603 0 
L 603 3500 
z
M 603 4863 
L 1178 4863 
L 1178 4134 
L 603 4134 
L 603 4863 
z
" id="DejaVuSans-69" transform="scale(0.015625)"/>
       <path d="M 1172 4494 
L 1172 3500 
L 2356 3500 
L 2356 3053 
L 1172 3053 
L 1172 1153 
Q 1172 725 1289 603 
Q 1406 481 1766 481 
L 2356 481 
L 2356 0 
L 1766 0 
Q 1100 0 847 248 
Q 594 497 594 1153 
L 594 3053 
L 172 3053 
L 172 3500 
L 594 3500 
L 594 4494 
L 1172 4494 
z
" id="DejaVuSans-74" transform="scale(0.015625)"/>
       <path d="M 191 3500 
L 800 3500 
L 1894 563 
L 2988 3500 
L 3597 3500 
L 2284 0 
L 1503 0 
L 191 3500 
z
" id="DejaVuSans-76" transform="scale(0.015625)"/>
       <path d="M 2841 2188 
Q 3044 2119 3236 1894 
Q 3428 1669 3622 1275 
L 4263 0 
L 3584 0 
L 2988 1197 
Q 2756 1666 2539 1819 
Q 2322 1972 1947 1972 
L 1259 1972 
L 1259 0 
L 628 0 
L 628 4666 
L 2053 4666 
Q 2853 4666 3247 4331 
Q 3641 3997 3641 3322 
Q 3641 2881 3436 2590 
Q 3231 2300 2841 2188 
z
M 1259 4147 
L 1259 2491 
L 2053 2491 
Q 2509 2491 2742 2702 
Q 2975 2913 2975 3322 
Q 2975 3731 2742 3939 
Q 2509 4147 2053 4147 
L 1259 4147 
z
" id="DejaVuSans-52" transform="scale(0.015625)"/>
      </defs>
      <use xlink:href="#DejaVuSans-46"/>
      <use x="48.394531" xlink:href="#DejaVuSans-61"/>
      <use x="109.673828" xlink:href="#DejaVuSans-6c"/>
      <use x="137.457031" xlink:href="#DejaVuSans-73"/>
      <use x="189.556641" xlink:href="#DejaVuSans-65"/>
      <use x="251.080078" xlink:href="#DejaVuSans-20"/>
      <use x="282.867188" xlink:href="#DejaVuSans-50"/>
      <use x="339.544922" xlink:href="#DejaVuSans-6f"/>
      <use x="400.726562" xlink:href="#DejaVuSans-73"/>
      <use x="452.826172" xlink:href="#DejaVuSans-69"/>
      <use x="480.609375" xlink:href="#DejaVuSans-74"/>
      <use x="519.818359" xlink:href="#DejaVuSans-69"/>
      <use x="547.601562" xlink:href="#DejaVuSans-76"/>
      <use x="606.78125" xlink:href="#DejaVuSans-65"/>
      <use x="668.304688" xlink:href="#DejaVuSans-20"/>
      <use x="700.091797" xlink:href="#DejaVuSans-52"/>
      <use x="767.324219" xlink:href="#DejaVuSans-61"/>
      <use x="828.603516" xlink:href="#DejaVuSans-74"/>
      <use x="867.8125" xlink:href="#DejaVuSans-65"/>
     </g>
    </g>
   </g>
   <g id="matplotlib.axis_2">
    <g id="ytick_1">
     <g id="line2d_13">
      <path clip-path="url(#p3647b8a4cc)" d="M 54.039687 377.64 
L 612.039688 377.64 
" style="fill:none;stroke:#cccccc;stroke-linecap:round;stroke-width:0.8;"/>
     </g>
     <g id="line2d_14"/>
     <g id="text_8">
      <!-- 0.0 -->
      <g style="fill:#262626;" transform="translate(26.685 383.338828)scale(0.15 -0.15)">
       <use xlink:href="#DejaVuSans-30"/>
       <use x="63.623047" xlink:href="#DejaVuSans-2e"/>
       <use x="95.410156" xlink:href="#DejaVuSans-30"/>
      </g>
     </g>
    </g>
    <g id="ytick_2">
     <g id="line2d_15">
      <path clip-path="url(#p3647b8a4cc)" d="M 54.039687 307.08 
L 612.039688 307.08 
" style="fill:none;stroke:#cccccc;stroke-linecap:round;stroke-width:0.8;"/>
     </g>
     <g id="line2d_16"/>
     <g id="text_9">
      <!-- 0.2 -->
      <g style="fill:#262626;" transform="translate(26.685 312.778828)scale(0.15 -0.15)">
       <use xlink:href="#DejaVuSans-30"/>
       <use x="63.623047" xlink:href="#DejaVuSans-2e"/>
       <use x="95.410156" xlink:href="#DejaVuSans-32"/>
      </g>
     </g>
    </g>
    <g id="ytick_3">
     <g id="line2d_17">
      <path clip-path="url(#p3647b8a4cc)" d="M 54.039687 236.52 
L 612.039688 236.52 
" style="fill:none;stroke:#cccccc;stroke-linecap:round;stroke-width:0.8;"/>
     </g>
     <g id="line2d_18"/>
     <g id="text_10">
      <!-- 0.4 -->
      <g style="fill:#262626;" transform="translate(26.685 242.218828)scale(0.15 -0.15)">
       <use xlink:href="#DejaVuSans-30"/>
       <use x="63.623047" xlink:href="#DejaVuSans-2e"/>
       <use x="95.410156" xlink:href="#DejaVuSans-34"/>
      </g>
     </g>
    </g>
    <g id="ytick_4">
     <g id="line2d_19">
      <path clip-path="url(#p3647b8a4cc)" d="M 54.039687 165.96 
L 612.039688 165.96 
" style="fill:none;stroke:#cccccc;stroke-linecap:round;stroke-width:0.8;"/>
     </g>
     <g id="line2d_20"/>
     <g id="text_11">
      <!-- 0.6 -->
      <g style="fill:#262626;" transform="translate(26.685 171.658828)scale(0.15 -0.15)">
       <use xlink:href="#DejaVuSans-30"/>
       <use x="63.623047" xlink:href="#DejaVuSans-2e"/>
       <use x="95.410156" xlink:href="#DejaVuSans-36"/>
      </g>
     </g>
    </g>
    <g id="ytick_5">
     <g id="line2d_21">
      <path clip-path="url(#p3647b8a4cc)" d="M 54.039687 95.4 
L 612.039688 95.4 
" style="fill:none;stroke:#cccccc;stroke-linecap:round;stroke-width:0.8;"/>
     </g>
     <g id="line2d_22"/>
     <g id="text_12">
      <!-- 0.8 -->
      <g style="fill:#262626;" transform="translate(26.685 101.098828)scale(0.15 -0.15)">
       <use xlink:href="#DejaVuSans-30"/>
       <use x="63.623047" xlink:href="#DejaVuSans-2e"/>
       <use x="95.410156" xlink:href="#DejaVuSans-38"/>
      </g>
     </g>
    </g>
    <g id="ytick_6">
     <g id="line2d_23">
      <path clip-path="url(#p3647b8a4cc)" d="M 54.039687 24.84 
L 612.039688 24.84 
" style="fill:none;stroke:#cccccc;stroke-linecap:round;stroke-width:0.8;"/>
     </g>
     <g id="line2d_24"/>
     <g id="text_13">
      <!-- 1.0 -->
      <g style="fill:#262626;" transform="translate(26.685 30.538828)scale(0.15 -0.15)">
       <use xlink:href="#DejaVuSans-31"/>
       <use x="63.623047" xlink:href="#DejaVuSans-2e"/>
       <use x="95.410156" xlink:href="#DejaVuSans-30"/>
      </g>
     </g>
    </g>
    <g id="text_14">
     <!-- True Positive Rate -->
     <g style="fill:#262626;" transform="translate(19.3575 272.4875)rotate(-90)scale(0.16 -0.16)">
      <defs>
       <path d="M -19 4666 
L 3928 4666 
L 3928 4134 
L 2272 4134 
L 2272 0 
L 1638 0 
L 1638 4134 
L -19 4134 
L -19 4666 
z
" id="DejaVuSans-54" transform="scale(0.015625)"/>
       <path d="M 2631 2963 
Q 2534 3019 2420 3045 
Q 2306 3072 2169 3072 
Q 1681 3072 1420 2755 
Q 1159 2438 1159 1844 
L 1159 0 
L 581 0 
L 581 3500 
L 1159 3500 
L 1159 2956 
Q 1341 3275 1631 3429 
Q 1922 3584 2338 3584 
Q 2397 3584 2469 3576 
Q 2541 3569 2628 3553 
L 2631 2963 
z
" id="DejaVuSans-72" transform="scale(0.015625)"/>
       <path d="M 544 1381 
L 544 3500 
L 1119 3500 
L 1119 1403 
Q 1119 906 1312 657 
Q 1506 409 1894 409 
Q 2359 409 2629 706 
Q 2900 1003 2900 1516 
L 2900 3500 
L 3475 3500 
L 3475 0 
L 2900 0 
L 2900 538 
Q 2691 219 2414 64 
Q 2138 -91 1772 -91 
Q 1169 -91 856 284 
Q 544 659 544 1381 
z
M 1991 3584 
L 1991 3584 
z
" id="DejaVuSans-75" transform="scale(0.015625)"/>
      </defs>
      <use xlink:href="#DejaVuSans-54"/>
      <use x="46.333984" xlink:href="#DejaVuSans-72"/>
      <use x="87.447266" xlink:href="#DejaVuSans-75"/>
      <use x="150.826172" xlink:href="#DejaVuSans-65"/>
      <use x="212.349609" xlink:href="#DejaVuSans-20"/>
      <use x="244.136719" xlink:href="#DejaVuSans-50"/>
      <use x="300.814453" xlink:href="#DejaVuSans-6f"/>
      <use x="361.996094" xlink:href="#DejaVuSans-73"/>
      <use x="414.095703" xlink:href="#DejaVuSans-69"/>
      <use x="441.878906" xlink:href="#DejaVuSans-74"/>
      <use x="481.087891" xlink:href="#DejaVuSans-69"/>
      <use x="508.871094" xlink:href="#DejaVuSans-76"/>
      <use x="568.050781" xlink:href="#DejaVuSans-65"/>
      <use x="629.574219" xlink:href="#DejaVuSans-20"/>
      <use x="661.361328" xlink:href="#DejaVuSans-52"/>
      <use x="728.59375" xlink:href="#DejaVuSans-61"/>
      <use x="789.873047" xlink:href="#DejaVuSans-74"/>
      <use x="829.082031" xlink:href="#DejaVuSans-65"/>
     </g>
    </g>
   </g>
   <g id="line2d_25">
    <path clip-path="url(#p3647b8a4cc)" d="M 79.403324 377.64 
L 84.527291 206.739878 
L 89.651258 205.183757 
L 94.775225 203.627636 
L 99.899192 202.071515 
L 105.023159 200.515394 
L 110.147126 198.959272 
L 115.271092 197.403151 
L 120.395059 195.84703 
L 125.519026 194.290909 
L 130.642993 192.734788 
L 135.76696 191.178666 
L 140.890927 189.622545 
L 146.014894 188.066424 
L 151.138861 186.510303 
L 156.262828 184.954181 
L 161.386795 183.39806 
L 166.510762 181.841939 
L 171.634729 180.285818 
L 176.758696 178.729697 
L 181.882663 177.173575 
L 187.00663 175.617454 
L 192.130597 174.061333 
L 197.254564 172.505212 
L 202.37853 170.94909 
L 207.502497 169.392969 
L 212.626464 167.836848 
L 217.750431 166.280727 
L 222.874398 164.724606 
L 227.998365 163.168484 
L 233.122332 161.612363 
L 238.246299 160.056242 
L 243.370266 158.500121 
L 248.494233 135.776 
L 253.6182 134.683151 
L 258.742167 133.590303 
L 263.866134 132.497454 
L 268.990101 131.404606 
L 274.114068 130.311757 
L 279.238035 129.218909 
L 284.362002 128.12606 
L 289.485968 127.033212 
L 294.609935 125.940363 
L 299.733902 124.847515 
L 304.857869 123.754666 
L 309.981836 122.661818 
L 315.105803 121.568969 
L 320.22977 120.476121 
L 325.353737 119.383272 
L 330.477704 118.290424 
L 335.601671 117.197576 
L 340.725638 116.104727 
L 345.849605 115.011879 
L 350.973572 113.91903 
L 356.097539 112.826182 
L 361.221506 111.733333 
L 366.345473 110.640485 
L 371.46944 109.547636 
L 376.593407 108.454788 
L 381.717373 107.361939 
L 386.84134 106.269091 
L 391.965307 105.176242 
L 397.089274 104.083394 
L 402.213241 102.990545 
L 407.337208 101.897697 
L 412.461175 100.804848 
L 417.585142 99.712 
L 422.709109 86.609697 
L 427.833076 85.267394 
L 432.957043 83.925091 
L 438.08101 82.582788 
L 443.204977 81.240485 
L 448.328944 79.898182 
L 453.452911 78.555879 
L 458.576878 77.213576 
L 463.700845 75.871273 
L 468.824811 74.52897 
L 473.948778 73.186667 
L 479.072745 71.844364 
L 484.196712 70.502061 
L 489.320679 69.159757 
L 494.444646 67.817454 
L 499.568613 66.475151 
L 504.69258 65.132848 
L 509.816547 63.790545 
L 514.940514 62.448242 
L 520.064481 61.105939 
L 525.188448 59.763636 
L 530.312415 58.421333 
L 535.436382 57.07903 
L 540.560349 55.736727 
L 545.684316 54.394424 
L 550.808283 53.052121 
L 555.932249 51.709818 
L 561.056216 50.367515 
L 566.180183 49.025212 
L 571.30415 47.682909 
L 576.428117 46.340606 
L 581.552084 44.998303 
L 586.676051 24.84 
" style="fill:none;stroke:#f39189;stroke-dasharray:11.1,4.8;stroke-dashoffset:0;stroke-opacity:0.8;stroke-width:3;"/>
   </g>
   <g id="line2d_26">
    <path clip-path="url(#p3647b8a4cc)" d="M 79.403324 377.64 
L 84.527291 143.627878 
L 89.651258 140.111756 
L 94.775225 136.595635 
L 99.899192 133.079514 
L 105.023159 129.563393 
L 110.147126 126.047272 
L 115.271092 122.53115 
L 120.395059 119.015029 
L 125.519026 115.498908 
L 130.642993 111.982787 
L 135.76696 108.466665 
L 140.890927 104.950544 
L 146.014894 101.434423 
L 151.138861 97.918302 
L 156.262828 94.402181 
L 161.386795 90.886059 
L 166.510762 87.369938 
L 171.634729 83.853817 
L 176.758696 80.337696 
L 181.882663 76.821575 
L 187.00663 73.305453 
L 192.130597 69.789332 
L 197.254564 66.273211 
L 202.37853 62.75709 
L 207.502497 59.240968 
L 212.626464 55.724847 
L 217.750431 52.208726 
L 222.874398 48.692605 
L 227.998365 45.176484 
L 233.122332 41.660362 
L 238.246299 38.144241 
L 243.370266 34.62812 
L 248.494233 28.76 
L 253.6182 28.700606 
L 258.742167 28.641212 
L 263.866134 28.581818 
L 268.990101 28.522424 
L 274.114068 28.46303 
L 279.238035 28.403636 
L 284.362002 28.344242 
L 289.485968 28.284848 
L 294.609935 28.225455 
L 299.733902 28.166061 
L 304.857869 28.106667 
L 309.981836 28.047273 
L 315.105803 27.987879 
L 320.22977 27.928485 
L 325.353737 27.869091 
L 330.477704 27.809697 
L 335.601671 27.750303 
L 340.725638 27.690909 
L 345.849605 27.631515 
L 350.973572 27.572121 
L 356.097539 27.512727 
L 361.221506 27.453333 
L 366.345473 27.393939 
L 371.46944 27.334545 
L 376.593407 27.275151 
L 381.717373 27.215758 
L 386.84134 27.156364 
L 391.965307 27.09697 
L 397.089274 27.037576 
L 402.213241 26.978182 
L 407.337208 26.918788 
L 412.461175 26.859394 
L 417.585142 26.8 
L 422.709109 26.740606 
L 427.833076 26.681212 
L 432.957043 26.621818 
L 438.08101 26.562424 
L 443.204977 26.50303 
L 448.328944 26.443636 
L 453.452911 26.384242 
L 458.576878 26.324848 
L 463.700845 26.265455 
L 468.824811 26.206061 
L 473.948778 26.146667 
L 479.072745 26.087273 
L 484.196712 26.027879 
L 489.320679 25.968485 
L 494.444646 25.909091 
L 499.568613 25.849697 
L 504.69258 25.790303 
L 509.816547 25.730909 
L 514.940514 25.671515 
L 520.064481 25.612121 
L 525.188448 25.552727 
L 530.312415 25.493333 
L 535.436382 25.433939 
L 540.560349 25.374545 
L 545.684316 25.315152 
L 550.808283 25.255758 
L 555.932249 25.196364 
L 561.056216 25.13697 
L 566.180183 25.077576 
L 571.30415 25.018182 
L 576.428117 24.958788 
L 581.552084 24.899394 
L 586.676051 24.84 
" style="fill:none;stroke:#9a86a4;stroke-dasharray:11.1,4.8;stroke-dashoffset:0;stroke-opacity:0.8;stroke-width:3;"/>
   </g>
   <g id="line2d_27">
    <path clip-path="url(#p3647b8a4cc)" d="M 79.403324 377.64 
L 84.527291 288.822304 
L 89.651258 287.028607 
L 94.775225 285.23491 
L 99.899192 283.441213 
L 105.023159 281.647516 
L 110.147126 279.853819 
L 115.271092 278.060122 
L 120.395059 276.266425 
L 125.519026 274.472728 
L 130.642993 272.679031 
L 135.76696 270.885334 
L 140.890927 269.091637 
L 146.014894 267.29794 
L 151.138861 265.504243 
L 156.262828 263.710546 
L 161.386795 261.916849 
L 166.510762 260.123152 
L 171.634729 258.329455 
L 176.758696 256.535758 
L 181.882663 254.742061 
L 187.00663 252.948364 
L 192.130597 251.154668 
L 197.254564 249.360971 
L 202.37853 247.567274 
L 207.502497 245.773577 
L 212.626464 243.97988 
L 217.750431 242.186183 
L 222.874398 240.392486 
L 227.998365 238.598789 
L 233.122332 236.805092 
L 238.246299 235.011395 
L 243.370266 233.217698 
L 248.494233 179.68 
L 253.6182 177.886303 
L 258.742167 176.092606 
L 263.866134 174.298909 
L 268.990101 172.505212 
L 274.114068 170.711516 
L 279.238035 168.917819 
L 284.362002 167.124122 
L 289.485968 165.330425 
L 294.609935 163.536728 
L 299.733902 161.743031 
L 304.857869 159.949334 
L 309.981836 158.155637 
L 315.105803 156.36194 
L 320.22977 154.568243 
L 325.353737 152.774546 
L 330.477704 150.980849 
L 335.601671 149.187152 
L 340.725638 147.393455 
L 345.849605 145.599758 
L 350.973572 143.806061 
L 356.097539 142.012364 
L 361.221506 140.218667 
L 366.345473 138.42497 
L 371.46944 136.631273 
L 376.593407 134.837576 
L 381.717373 133.043879 
L 386.84134 131.250182 
L 391.965307 129.456485 
L 397.089274 127.662788 
L 402.213241 125.869091 
L 407.337208 124.075394 
L 412.461175 122.281697 
L 417.585142 120.488 
L 422.709109 119.442667 
L 427.833076 118.397333 
L 432.957043 117.352 
L 438.08101 116.306667 
L 443.204977 115.261333 
L 448.328944 114.216 
L 453.452911 113.170667 
L 458.576878 112.125333 
L 463.700845 111.08 
L 468.824811 110.034667 
L 473.948778 108.989333 
L 479.072745 107.944 
L 484.196712 106.898667 
L 489.320679 105.853333 
L 494.444646 104.808 
L 499.568613 103.762667 
L 504.69258 102.717333 
L 509.816547 101.672 
L 514.940514 100.626667 
L 520.064481 99.581333 
L 525.188448 98.536 
L 530.312415 97.490667 
L 535.436382 96.445333 
L 540.560349 95.4 
L 545.684316 94.354667 
L 550.808283 93.309333 
L 555.932249 92.264 
L 561.056216 91.218667 
L 566.180183 90.173333 
L 571.30415 89.128 
L 576.428117 88.082667 
L 581.552084 87.037333 
L 586.676051 24.84 
" style="fill:none;stroke:#e2c2b9;stroke-dasharray:11.1,4.8;stroke-dashoffset:0;stroke-opacity:0.8;stroke-width:3;"/>
   </g>
   <g id="line2d_28">
    <path clip-path="url(#p3647b8a4cc)" d="M 79.403324 377.64 
L 84.527291 231.816 
L 89.651258 231.816 
L 94.775225 231.816 
L 99.899192 231.816 
L 105.023159 231.816 
L 110.147126 231.816 
L 115.271092 231.816 
L 120.395059 231.816 
L 125.519026 231.816 
L 130.642993 231.816 
L 135.76696 231.816 
L 140.890927 231.816 
L 146.014894 231.816 
L 151.138861 231.816 
L 156.262828 231.816 
L 161.386795 231.816 
L 166.510762 231.816 
L 171.634729 231.816 
L 176.758696 231.816 
L 181.882663 231.816 
L 187.00663 231.816 
L 192.130597 231.816 
L 197.254564 231.816 
L 202.37853 231.816 
L 207.502497 231.816 
L 212.626464 231.816 
L 217.750431 231.816 
L 222.874398 231.816 
L 227.998365 231.816 
L 233.122332 231.816 
L 238.246299 231.816 
L 243.370266 231.816 
L 248.494233 144.791999 
L 253.6182 144.791999 
L 258.742167 144.791999 
L 263.866134 144.791999 
L 268.990101 144.791999 
L 274.114068 144.791999 
L 279.238035 144.791999 
L 284.362002 144.791999 
L 289.485968 144.791999 
L 294.609935 144.791999 
L 299.733902 144.791999 
L 304.857869 144.791999 
L 309.981836 144.791999 
L 315.105803 144.791999 
L 320.22977 144.791999 
L 325.353737 144.791999 
L 330.477704 144.791999 
L 335.601671 144.791999 
L 340.725638 144.791999 
L 345.849605 144.791999 
L 350.973572 144.791999 
L 356.097539 144.791999 
L 361.221506 144.791999 
L 366.345473 144.791999 
L 371.46944 144.791999 
L 376.593407 144.791999 
L 381.717373 144.791999 
L 386.84134 144.791999 
L 391.965307 144.791999 
L 397.089274 144.791999 
L 402.213241 144.791999 
L 407.337208 144.791999 
L 412.461175 144.791999 
L 417.585142 144.791999 
L 422.709109 95.399999 
L 427.833076 95.399999 
L 432.957043 95.399999 
L 438.08101 95.399999 
L 443.204977 95.399999 
L 448.328944 95.399999 
L 453.452911 95.399999 
L 458.576878 95.399999 
L 463.700845 95.399999 
L 468.824811 95.399999 
L 473.948778 95.399999 
L 479.072745 95.399999 
L 484.196712 95.399999 
L 489.320679 95.399999 
L 494.444646 95.399999 
L 499.568613 95.399999 
L 504.69258 95.399999 
L 509.816547 95.399999 
L 514.940514 95.399999 
L 520.064481 95.399999 
L 525.188448 95.399999 
L 530.312415 95.399999 
L 535.436382 95.399999 
L 540.560349 95.399999 
L 545.684316 95.399999 
L 550.808283 95.399999 
L 555.932249 95.399999 
L 561.056216 95.399999 
L 566.180183 95.399999 
L 571.30415 95.399999 
L 576.428117 95.399999 
L 581.552084 95.399999 
L 586.676051 24.84 
" style="fill:none;stroke:#555555;stroke-dasharray:11.1,4.8;stroke-dashoffset:0;stroke-opacity:0.8;stroke-width:3;"/>
   </g>
   <g id="line2d_29">
    <path clip-path="url(#p3647b8a4cc)" d="M 79.403324 377.64 
L 84.527291 189.212727 
L 89.651258 186.005455 
L 94.775225 182.798182 
L 99.899192 179.590909 
L 105.023159 176.383636 
L 110.147126 173.176364 
L 115.271092 169.969091 
L 120.395059 166.761818 
L 125.519026 163.554545 
L 130.642993 160.347273 
L 135.76696 157.14 
L 140.890927 153.932727 
L 146.014894 150.725455 
L 151.138861 147.518182 
L 156.262828 144.310909 
L 161.386795 141.103636 
L 166.510762 137.896364 
L 171.634729 134.689091 
L 176.758696 131.481818 
L 181.882663 128.274545 
L 187.00663 125.067273 
L 192.130597 121.86 
L 197.254564 118.652727 
L 202.37853 115.445455 
L 207.502497 113.016242 
L 212.626464 112.921212 
L 217.750431 112.826182 
L 222.874398 112.731152 
L 227.998365 112.636121 
L 233.122332 112.541091 
L 238.246299 112.446061 
L 243.370266 112.35103 
L 248.494233 112.256 
L 253.6182 112.16097 
L 258.742167 112.065939 
L 263.866134 111.970909 
L 268.990101 111.875879 
L 274.114068 111.780848 
L 279.238035 111.685818 
L 284.362002 111.590788 
L 289.485968 111.495758 
L 294.609935 111.400727 
L 299.733902 111.305697 
L 304.857869 111.210667 
L 309.981836 111.115636 
L 315.105803 111.020606 
L 320.22977 110.925576 
L 325.353737 110.830545 
L 330.477704 110.735515 
L 335.601671 109.820848 
L 340.725638 108.086545 
L 345.849605 106.352242 
L 350.973572 104.617939 
L 356.097539 102.883636 
L 361.221506 101.149333 
L 366.345473 99.41503 
L 371.46944 97.680727 
L 376.593407 95.946424 
L 381.717373 94.212121 
L 386.84134 92.477818 
L 391.965307 90.743515 
L 397.089274 89.009212 
L 402.213241 87.274909 
L 407.337208 85.540606 
L 412.461175 83.806303 
L 417.585142 82.072 
L 422.709109 80.337697 
L 427.833076 78.603394 
L 432.957043 76.869091 
L 438.08101 75.134788 
L 443.204977 73.400485 
L 448.328944 71.666182 
L 453.452911 69.931879 
L 458.576878 68.197576 
L 463.700845 66.463273 
L 468.824811 64.72897 
L 473.948778 62.994667 
L 479.072745 61.260364 
L 484.196712 59.526061 
L 489.320679 57.791758 
L 494.444646 56.057455 
L 499.568613 54.323152 
L 504.69258 52.588848 
L 509.816547 50.854545 
L 514.940514 49.120242 
L 520.064481 47.385939 
L 525.188448 45.651636 
L 530.312415 43.917333 
L 535.436382 42.18303 
L 540.560349 40.448727 
L 545.684316 38.714424 
L 550.808283 36.980121 
L 555.932249 35.245818 
L 561.056216 33.511515 
L 566.180183 31.777212 
L 571.30415 30.042909 
L 576.428117 28.308606 
L 581.552084 26.574303 
L 586.676051 24.84 
" style="fill:none;stroke:#a1cae2;stroke-dasharray:11.1,4.8;stroke-dashoffset:0;stroke-opacity:0.8;stroke-width:3;"/>
   </g>
   <g id="line2d_30">
    <path clip-path="url(#p3647b8a4cc)" d="M 79.403324 377.64 
L 586.676051 24.84 
" style="fill:none;stroke:#ff0000;stroke-linecap:round;stroke-opacity:0.8;stroke-width:3;"/>
   </g>
   <g id="patch_3">
    <path d="M 54.039687 395.28 
L 54.039687 7.2 
" style="fill:none;stroke:#cccccc;stroke-linecap:square;stroke-linejoin:miter;"/>
   </g>
   <g id="patch_4">
    <path d="M 612.039688 395.28 
L 612.039688 7.2 
" style="fill:none;stroke:#cccccc;stroke-linecap:square;stroke-linejoin:miter;"/>
   </g>
   <g id="patch_5">
    <path d="M 54.039687 395.28 
L 612.039688 395.28 
" style="fill:none;stroke:#cccccc;stroke-linecap:square;stroke-linejoin:miter;"/>
   </g>
   <g id="patch_6">
    <path d="M 54.039687 7.2 
L 612.039688 7.2 
" style="fill:none;stroke:#cccccc;stroke-linecap:square;stroke-linejoin:miter;"/>
   </g>
   <g id="legend_1">
    <g id="line2d_31">
     <path d="M 233.899687 292.609687 
L 261.899688 292.609687 
" style="fill:none;stroke:#f39189;stroke-dasharray:11.1,4.8;stroke-dashoffset:0;stroke-opacity:0.8;stroke-width:3;"/>
    </g>
    <g id="line2d_32"/>
    <g id="text_15">
     <!-- Mean ROC (RandomForest AUC = 0.72 $\pm$ 0.21) -->
     <g style="fill:#262626;" transform="translate(273.099688 297.509687)scale(0.14 -0.14)">
      <defs>
       <path d="M 628 4666 
L 1569 4666 
L 2759 1491 
L 3956 4666 
L 4897 4666 
L 4897 0 
L 4281 0 
L 4281 4097 
L 3078 897 
L 2444 897 
L 1241 4097 
L 1241 0 
L 628 0 
L 628 4666 
z
" id="DejaVuSans-4d" transform="scale(0.015625)"/>
       <path d="M 3513 2113 
L 3513 0 
L 2938 0 
L 2938 2094 
Q 2938 2591 2744 2837 
Q 2550 3084 2163 3084 
Q 1697 3084 1428 2787 
Q 1159 2491 1159 1978 
L 1159 0 
L 581 0 
L 581 3500 
L 1159 3500 
L 1159 2956 
Q 1366 3272 1645 3428 
Q 1925 3584 2291 3584 
Q 2894 3584 3203 3211 
Q 3513 2838 3513 2113 
z
" id="DejaVuSans-6e" transform="scale(0.015625)"/>
       <path d="M 2522 4238 
Q 1834 4238 1429 3725 
Q 1025 3213 1025 2328 
Q 1025 1447 1429 934 
Q 1834 422 2522 422 
Q 3209 422 3611 934 
Q 4013 1447 4013 2328 
Q 4013 3213 3611 3725 
Q 3209 4238 2522 4238 
z
M 2522 4750 
Q 3503 4750 4090 4092 
Q 4678 3434 4678 2328 
Q 4678 1225 4090 567 
Q 3503 -91 2522 -91 
Q 1538 -91 948 565 
Q 359 1222 359 2328 
Q 359 3434 948 4092 
Q 1538 4750 2522 4750 
z
" id="DejaVuSans-4f" transform="scale(0.015625)"/>
       <path d="M 4122 4306 
L 4122 3641 
Q 3803 3938 3442 4084 
Q 3081 4231 2675 4231 
Q 1875 4231 1450 3742 
Q 1025 3253 1025 2328 
Q 1025 1406 1450 917 
Q 1875 428 2675 428 
Q 3081 428 3442 575 
Q 3803 722 4122 1019 
L 4122 359 
Q 3791 134 3420 21 
Q 3050 -91 2638 -91 
Q 1578 -91 968 557 
Q 359 1206 359 2328 
Q 359 3453 968 4101 
Q 1578 4750 2638 4750 
Q 3056 4750 3426 4639 
Q 3797 4528 4122 4306 
z
" id="DejaVuSans-43" transform="scale(0.015625)"/>
       <path d="M 1984 4856 
Q 1566 4138 1362 3434 
Q 1159 2731 1159 2009 
Q 1159 1288 1364 580 
Q 1569 -128 1984 -844 
L 1484 -844 
Q 1016 -109 783 600 
Q 550 1309 550 2009 
Q 550 2706 781 3412 
Q 1013 4119 1484 4856 
L 1984 4856 
z
" id="DejaVuSans-28" transform="scale(0.015625)"/>
       <path d="M 2906 2969 
L 2906 4863 
L 3481 4863 
L 3481 0 
L 2906 0 
L 2906 525 
Q 2725 213 2448 61 
Q 2172 -91 1784 -91 
Q 1150 -91 751 415 
Q 353 922 353 1747 
Q 353 2572 751 3078 
Q 1150 3584 1784 3584 
Q 2172 3584 2448 3432 
Q 2725 3281 2906 2969 
z
M 947 1747 
Q 947 1113 1208 752 
Q 1469 391 1925 391 
Q 2381 391 2643 752 
Q 2906 1113 2906 1747 
Q 2906 2381 2643 2742 
Q 2381 3103 1925 3103 
Q 1469 3103 1208 2742 
Q 947 2381 947 1747 
z
" id="DejaVuSans-64" transform="scale(0.015625)"/>
       <path d="M 3328 2828 
Q 3544 3216 3844 3400 
Q 4144 3584 4550 3584 
Q 5097 3584 5394 3201 
Q 5691 2819 5691 2113 
L 5691 0 
L 5113 0 
L 5113 2094 
Q 5113 2597 4934 2840 
Q 4756 3084 4391 3084 
Q 3944 3084 3684 2787 
Q 3425 2491 3425 1978 
L 3425 0 
L 2847 0 
L 2847 2094 
Q 2847 2600 2669 2842 
Q 2491 3084 2119 3084 
Q 1678 3084 1418 2786 
Q 1159 2488 1159 1978 
L 1159 0 
L 581 0 
L 581 3500 
L 1159 3500 
L 1159 2956 
Q 1356 3278 1631 3431 
Q 1906 3584 2284 3584 
Q 2666 3584 2933 3390 
Q 3200 3197 3328 2828 
z
" id="DejaVuSans-6d" transform="scale(0.015625)"/>
       <path d="M 2188 4044 
L 1331 1722 
L 3047 1722 
L 2188 4044 
z
M 1831 4666 
L 2547 4666 
L 4325 0 
L 3669 0 
L 3244 1197 
L 1141 1197 
L 716 0 
L 50 0 
L 1831 4666 
z
" id="DejaVuSans-41" transform="scale(0.015625)"/>
       <path d="M 556 4666 
L 1191 4666 
L 1191 1831 
Q 1191 1081 1462 751 
Q 1734 422 2344 422 
Q 2950 422 3222 751 
Q 3494 1081 3494 1831 
L 3494 4666 
L 4128 4666 
L 4128 1753 
Q 4128 841 3676 375 
Q 3225 -91 2344 -91 
Q 1459 -91 1007 375 
Q 556 841 556 1753 
L 556 4666 
z
" id="DejaVuSans-55" transform="scale(0.015625)"/>
       <path d="M 678 2906 
L 4684 2906 
L 4684 2381 
L 678 2381 
L 678 2906 
z
M 678 1631 
L 4684 1631 
L 4684 1100 
L 678 1100 
L 678 1631 
z
" id="DejaVuSans-3d" transform="scale(0.015625)"/>
       <path d="M 525 4666 
L 3525 4666 
L 3525 4397 
L 1831 0 
L 1172 0 
L 2766 4134 
L 525 4134 
L 525 4666 
z
" id="DejaVuSans-37" transform="scale(0.015625)"/>
       <path d="M 2944 4013 
L 2944 2803 
L 4684 2803 
L 4684 2272 
L 2944 2272 
L 2944 1063 
L 2419 1063 
L 2419 2272 
L 678 2272 
L 678 2803 
L 2419 2803 
L 2419 4013 
L 2944 4013 
z
M 678 531 
L 4684 531 
L 4684 0 
L 678 0 
L 678 531 
z
" id="DejaVuSans-b1" transform="scale(0.015625)"/>
       <path d="M 513 4856 
L 1013 4856 
Q 1481 4119 1714 3412 
Q 1947 2706 1947 2009 
Q 1947 1309 1714 600 
Q 1481 -109 1013 -844 
L 513 -844 
Q 928 -128 1133 580 
Q 1338 1288 1338 2009 
Q 1338 2731 1133 3434 
Q 928 4138 513 4856 
z
" id="DejaVuSans-29" transform="scale(0.015625)"/>
      </defs>
      <use transform="translate(0 0.015625)" xlink:href="#DejaVuSans-4d"/>
      <use transform="translate(86.279297 0.015625)" xlink:href="#DejaVuSans-65"/>
      <use transform="translate(147.802734 0.015625)" xlink:href="#DejaVuSans-61"/>
      <use transform="translate(209.082031 0.015625)" xlink:href="#DejaVuSans-6e"/>
      <use transform="translate(272.460938 0.015625)" xlink:href="#DejaVuSans-20"/>
      <use transform="translate(304.248047 0.015625)" xlink:href="#DejaVuSans-52"/>
      <use transform="translate(373.730469 0.015625)" xlink:href="#DejaVuSans-4f"/>
      <use transform="translate(452.441406 0.015625)" xlink:href="#DejaVuSans-43"/>
      <use transform="translate(522.265625 0.015625)" xlink:href="#DejaVuSans-20"/>
      <use transform="translate(554.052734 0.015625)" xlink:href="#DejaVuSans-28"/>
      <use transform="translate(593.066406 0.015625)" xlink:href="#DejaVuSans-52"/>
      <use transform="translate(662.548828 0.015625)" xlink:href="#DejaVuSans-61"/>
      <use transform="translate(723.828125 0.015625)" xlink:href="#DejaVuSans-6e"/>
      <use transform="translate(787.207031 0.015625)" xlink:href="#DejaVuSans-64"/>
      <use transform="translate(850.683594 0.015625)" xlink:href="#DejaVuSans-6f"/>
      <use transform="translate(911.865234 0.015625)" xlink:href="#DejaVuSans-6d"/>
      <use transform="translate(1009.277344 0.015625)" xlink:href="#DejaVuSans-46"/>
      <use transform="translate(1066.796875 0.015625)" xlink:href="#DejaVuSans-6f"/>
      <use transform="translate(1127.978516 0.015625)" xlink:href="#DejaVuSans-72"/>
      <use transform="translate(1169.091797 0.015625)" xlink:href="#DejaVuSans-65"/>
      <use transform="translate(1230.615234 0.015625)" xlink:href="#DejaVuSans-73"/>
      <use transform="translate(1282.714844 0.015625)" xlink:href="#DejaVuSans-74"/>
      <use transform="translate(1321.923828 0.015625)" xlink:href="#DejaVuSans-20"/>
      <use transform="translate(1353.710938 0.015625)" xlink:href="#DejaVuSans-41"/>
      <use transform="translate(1422.119141 0.015625)" xlink:href="#DejaVuSans-55"/>
      <use transform="translate(1495.3125 0.015625)" xlink:href="#DejaVuSans-43"/>
      <use transform="translate(1565.136719 0.015625)" xlink:href="#DejaVuSans-20"/>
      <use transform="translate(1596.923828 0.015625)" xlink:href="#DejaVuSans-3d"/>
      <use transform="translate(1680.712891 0.015625)" xlink:href="#DejaVuSans-20"/>
      <use transform="translate(1712.5 0.015625)" xlink:href="#DejaVuSans-30"/>
      <use transform="translate(1776.123047 0.015625)" xlink:href="#DejaVuSans-2e"/>
      <use transform="translate(1800.160156 0.015625)" xlink:href="#DejaVuSans-37"/>
      <use transform="translate(1863.783203 0.015625)" xlink:href="#DejaVuSans-32"/>
      <use transform="translate(1927.40625 0.015625)" xlink:href="#DejaVuSans-20"/>
      <use transform="translate(1959.193359 0.015625)" xlink:href="#DejaVuSans-b1"/>
      <use transform="translate(2042.982422 0.015625)" xlink:href="#DejaVuSans-20"/>
      <use transform="translate(2074.769531 0.015625)" xlink:href="#DejaVuSans-30"/>
      <use transform="translate(2138.392578 0.015625)" xlink:href="#DejaVuSans-2e"/>
      <use transform="translate(2164.679688 0.015625)" xlink:href="#DejaVuSans-32"/>
      <use transform="translate(2228.302734 0.015625)" xlink:href="#DejaVuSans-31"/>
      <use transform="translate(2291.925781 0.015625)" xlink:href="#DejaVuSans-29"/>
     </g>
    </g>
    <g id="line2d_33">
     <path d="M 233.899687 313.159062 
L 261.899688 313.159062 
" style="fill:none;stroke:#9a86a4;stroke-dasharray:11.1,4.8;stroke-dashoffset:0;stroke-opacity:0.8;stroke-width:3;"/>
    </g>
    <g id="line2d_34"/>
    <g id="text_16">
     <!-- Mean ROC (DecisionTree AUC = 0.93 $\pm$ 0.04) -->
     <g style="fill:#262626;" transform="translate(273.099688 318.059062)scale(0.14 -0.14)">
      <defs>
       <path d="M 1259 4147 
L 1259 519 
L 2022 519 
Q 2988 519 3436 956 
Q 3884 1394 3884 2338 
Q 3884 3275 3436 3711 
Q 2988 4147 2022 4147 
L 1259 4147 
z
M 628 4666 
L 1925 4666 
Q 3281 4666 3915 4102 
Q 4550 3538 4550 2338 
Q 4550 1131 3912 565 
Q 3275 0 1925 0 
L 628 0 
L 628 4666 
z
" id="DejaVuSans-44" transform="scale(0.015625)"/>
       <path d="M 3122 3366 
L 3122 2828 
Q 2878 2963 2633 3030 
Q 2388 3097 2138 3097 
Q 1578 3097 1268 2742 
Q 959 2388 959 1747 
Q 959 1106 1268 751 
Q 1578 397 2138 397 
Q 2388 397 2633 464 
Q 2878 531 3122 666 
L 3122 134 
Q 2881 22 2623 -34 
Q 2366 -91 2075 -91 
Q 1284 -91 818 406 
Q 353 903 353 1747 
Q 353 2603 823 3093 
Q 1294 3584 2113 3584 
Q 2378 3584 2631 3529 
Q 2884 3475 3122 3366 
z
" id="DejaVuSans-63" transform="scale(0.015625)"/>
       <path d="M 703 97 
L 703 672 
Q 941 559 1184 500 
Q 1428 441 1663 441 
Q 2288 441 2617 861 
Q 2947 1281 2994 2138 
Q 2813 1869 2534 1725 
Q 2256 1581 1919 1581 
Q 1219 1581 811 2004 
Q 403 2428 403 3163 
Q 403 3881 828 4315 
Q 1253 4750 1959 4750 
Q 2769 4750 3195 4129 
Q 3622 3509 3622 2328 
Q 3622 1225 3098 567 
Q 2575 -91 1691 -91 
Q 1453 -91 1209 -44 
Q 966 3 703 97 
z
M 1959 2075 
Q 2384 2075 2632 2365 
Q 2881 2656 2881 3163 
Q 2881 3666 2632 3958 
Q 2384 4250 1959 4250 
Q 1534 4250 1286 3958 
Q 1038 3666 1038 3163 
Q 1038 2656 1286 2365 
Q 1534 2075 1959 2075 
z
" id="DejaVuSans-39" transform="scale(0.015625)"/>
       <path d="M 2597 2516 
Q 3050 2419 3304 2112 
Q 3559 1806 3559 1356 
Q 3559 666 3084 287 
Q 2609 -91 1734 -91 
Q 1441 -91 1130 -33 
Q 819 25 488 141 
L 488 750 
Q 750 597 1062 519 
Q 1375 441 1716 441 
Q 2309 441 2620 675 
Q 2931 909 2931 1356 
Q 2931 1769 2642 2001 
Q 2353 2234 1838 2234 
L 1294 2234 
L 1294 2753 
L 1863 2753 
Q 2328 2753 2575 2939 
Q 2822 3125 2822 3475 
Q 2822 3834 2567 4026 
Q 2313 4219 1838 4219 
Q 1578 4219 1281 4162 
Q 984 4106 628 3988 
L 628 4550 
Q 988 4650 1302 4700 
Q 1616 4750 1894 4750 
Q 2613 4750 3031 4423 
Q 3450 4097 3450 3541 
Q 3450 3153 3228 2886 
Q 3006 2619 2597 2516 
z
" id="DejaVuSans-33" transform="scale(0.015625)"/>
      </defs>
      <use transform="translate(0 0.015625)" xlink:href="#DejaVuSans-4d"/>
      <use transform="translate(86.279297 0.015625)" xlink:href="#DejaVuSans-65"/>
      <use transform="translate(147.802734 0.015625)" xlink:href="#DejaVuSans-61"/>
      <use transform="translate(209.082031 0.015625)" xlink:href="#DejaVuSans-6e"/>
      <use transform="translate(272.460938 0.015625)" xlink:href="#DejaVuSans-20"/>
      <use transform="translate(304.248047 0.015625)" xlink:href="#DejaVuSans-52"/>
      <use transform="translate(373.730469 0.015625)" xlink:href="#DejaVuSans-4f"/>
      <use transform="translate(452.441406 0.015625)" xlink:href="#DejaVuSans-43"/>
      <use transform="translate(522.265625 0.015625)" xlink:href="#DejaVuSans-20"/>
      <use transform="translate(554.052734 0.015625)" xlink:href="#DejaVuSans-28"/>
      <use transform="translate(593.066406 0.015625)" xlink:href="#DejaVuSans-44"/>
      <use transform="translate(670.068359 0.015625)" xlink:href="#DejaVuSans-65"/>
      <use transform="translate(731.591797 0.015625)" xlink:href="#DejaVuSans-63"/>
      <use transform="translate(786.572266 0.015625)" xlink:href="#DejaVuSans-69"/>
      <use transform="translate(814.355469 0.015625)" xlink:href="#DejaVuSans-73"/>
      <use transform="translate(866.455078 0.015625)" xlink:href="#DejaVuSans-69"/>
      <use transform="translate(894.238281 0.015625)" xlink:href="#DejaVuSans-6f"/>
      <use transform="translate(955.419922 0.015625)" xlink:href="#DejaVuSans-6e"/>
      <use transform="translate(1018.798828 0.015625)" xlink:href="#DejaVuSans-54"/>
      <use transform="translate(1079.882812 0.015625)" xlink:href="#DejaVuSans-72"/>
      <use transform="translate(1120.996094 0.015625)" xlink:href="#DejaVuSans-65"/>
      <use transform="translate(1182.519531 0.015625)" xlink:href="#DejaVuSans-65"/>
      <use transform="translate(1244.042969 0.015625)" xlink:href="#DejaVuSans-20"/>
      <use transform="translate(1275.830078 0.015625)" xlink:href="#DejaVuSans-41"/>
      <use transform="translate(1344.238281 0.015625)" xlink:href="#DejaVuSans-55"/>
      <use transform="translate(1417.431641 0.015625)" xlink:href="#DejaVuSans-43"/>
      <use transform="translate(1487.255859 0.015625)" xlink:href="#DejaVuSans-20"/>
      <use transform="translate(1519.042969 0.015625)" xlink:href="#DejaVuSans-3d"/>
      <use transform="translate(1602.832031 0.015625)" xlink:href="#DejaVuSans-20"/>
      <use transform="translate(1634.619141 0.015625)" xlink:href="#DejaVuSans-30"/>
      <use transform="translate(1698.242188 0.015625)" xlink:href="#DejaVuSans-2e"/>
      <use transform="translate(1730.029297 0.015625)" xlink:href="#DejaVuSans-39"/>
      <use transform="translate(1793.652344 0.015625)" xlink:href="#DejaVuSans-33"/>
      <use transform="translate(1857.275391 0.015625)" xlink:href="#DejaVuSans-20"/>
      <use transform="translate(1889.0625 0.015625)" xlink:href="#DejaVuSans-b1"/>
      <use transform="translate(1972.851562 0.015625)" xlink:href="#DejaVuSans-20"/>
      <use transform="translate(2004.638672 0.015625)" xlink:href="#DejaVuSans-30"/>
      <use transform="translate(2068.261719 0.015625)" xlink:href="#DejaVuSans-2e"/>
      <use transform="translate(2100.048828 0.015625)" xlink:href="#DejaVuSans-30"/>
      <use transform="translate(2163.671875 0.015625)" xlink:href="#DejaVuSans-34"/>
      <use transform="translate(2227.294922 0.015625)" xlink:href="#DejaVuSans-29"/>
     </g>
    </g>
    <g id="line2d_35">
     <path d="M 233.899687 333.708437 
L 261.899688 333.708437 
" style="fill:none;stroke:#e2c2b9;stroke-dasharray:11.1,4.8;stroke-dashoffset:0;stroke-opacity:0.8;stroke-width:3;"/>
    </g>
    <g id="line2d_36"/>
    <g id="text_17">
     <!-- Mean ROC (KNN AUC = 0.58 $\pm$ 0.17) -->
     <g style="fill:#262626;" transform="translate(273.099688 338.608437)scale(0.14 -0.14)">
      <defs>
       <path d="M 628 4666 
L 1259 4666 
L 1259 2694 
L 3353 4666 
L 4166 4666 
L 1850 2491 
L 4331 0 
L 3500 0 
L 1259 2247 
L 1259 0 
L 628 0 
L 628 4666 
z
" id="DejaVuSans-4b" transform="scale(0.015625)"/>
       <path d="M 628 4666 
L 1478 4666 
L 3547 763 
L 3547 4666 
L 4159 4666 
L 4159 0 
L 3309 0 
L 1241 3903 
L 1241 0 
L 628 0 
L 628 4666 
z
" id="DejaVuSans-4e" transform="scale(0.015625)"/>
       <path d="M 691 4666 
L 3169 4666 
L 3169 4134 
L 1269 4134 
L 1269 2991 
Q 1406 3038 1543 3061 
Q 1681 3084 1819 3084 
Q 2600 3084 3056 2656 
Q 3513 2228 3513 1497 
Q 3513 744 3044 326 
Q 2575 -91 1722 -91 
Q 1428 -91 1123 -41 
Q 819 9 494 109 
L 494 744 
Q 775 591 1075 516 
Q 1375 441 1709 441 
Q 2250 441 2565 725 
Q 2881 1009 2881 1497 
Q 2881 1984 2565 2268 
Q 2250 2553 1709 2553 
Q 1456 2553 1204 2497 
Q 953 2441 691 2322 
L 691 4666 
z
" id="DejaVuSans-35" transform="scale(0.015625)"/>
      </defs>
      <use transform="translate(0 0.125)" xlink:href="#DejaVuSans-4d"/>
      <use transform="translate(86.279297 0.125)" xlink:href="#DejaVuSans-65"/>
      <use transform="translate(147.802734 0.125)" xlink:href="#DejaVuSans-61"/>
      <use transform="translate(209.082031 0.125)" xlink:href="#DejaVuSans-6e"/>
      <use transform="translate(272.460938 0.125)" xlink:href="#DejaVuSans-20"/>
      <use transform="translate(304.248047 0.125)" xlink:href="#DejaVuSans-52"/>
      <use transform="translate(373.730469 0.125)" xlink:href="#DejaVuSans-4f"/>
      <use transform="translate(452.441406 0.125)" xlink:href="#DejaVuSans-43"/>
      <use transform="translate(522.265625 0.125)" xlink:href="#DejaVuSans-20"/>
      <use transform="translate(554.052734 0.125)" xlink:href="#DejaVuSans-28"/>
      <use transform="translate(593.066406 0.125)" xlink:href="#DejaVuSans-4b"/>
      <use transform="translate(658.642578 0.125)" xlink:href="#DejaVuSans-4e"/>
      <use transform="translate(733.447266 0.125)" xlink:href="#DejaVuSans-4e"/>
      <use transform="translate(808.251953 0.125)" xlink:href="#DejaVuSans-20"/>
      <use transform="translate(840.039062 0.125)" xlink:href="#DejaVuSans-41"/>
      <use transform="translate(908.447266 0.125)" xlink:href="#DejaVuSans-55"/>
      <use transform="translate(981.640625 0.125)" xlink:href="#DejaVuSans-43"/>
      <use transform="translate(1051.464844 0.125)" xlink:href="#DejaVuSans-20"/>
      <use transform="translate(1083.251953 0.125)" xlink:href="#DejaVuSans-3d"/>
      <use transform="translate(1167.041016 0.125)" xlink:href="#DejaVuSans-20"/>
      <use transform="translate(1198.828125 0.125)" xlink:href="#DejaVuSans-30"/>
      <use transform="translate(1262.451172 0.125)" xlink:href="#DejaVuSans-2e"/>
      <use transform="translate(1294.238281 0.125)" xlink:href="#DejaVuSans-35"/>
      <use transform="translate(1357.861328 0.125)" xlink:href="#DejaVuSans-38"/>
      <use transform="translate(1421.484375 0.125)" xlink:href="#DejaVuSans-20"/>
      <use transform="translate(1453.271484 0.125)" xlink:href="#DejaVuSans-b1"/>
      <use transform="translate(1537.060547 0.125)" xlink:href="#DejaVuSans-20"/>
      <use transform="translate(1568.847656 0.125)" xlink:href="#DejaVuSans-30"/>
      <use transform="translate(1632.470703 0.125)" xlink:href="#DejaVuSans-2e"/>
      <use transform="translate(1664.257812 0.125)" xlink:href="#DejaVuSans-31"/>
      <use transform="translate(1727.880859 0.125)" xlink:href="#DejaVuSans-37"/>
      <use transform="translate(1791.503906 0.125)" xlink:href="#DejaVuSans-29"/>
     </g>
    </g>
    <g id="line2d_37">
     <path d="M 233.899687 354.26 
L 261.899688 354.26 
" style="fill:none;stroke:#555555;stroke-dasharray:11.1,4.8;stroke-dashoffset:0;stroke-opacity:0.8;stroke-width:3;"/>
    </g>
    <g id="line2d_38"/>
    <g id="text_18">
     <!-- Mean ROC (Xgboost AUC = 0.62 $\pm$ 0.11) -->
     <g style="fill:#262626;" transform="translate(273.099688 359.16)scale(0.14 -0.14)">
      <defs>
       <path d="M 403 4666 
L 1081 4666 
L 2241 2931 
L 3406 4666 
L 4084 4666 
L 2584 2425 
L 4184 0 
L 3506 0 
L 2194 1984 
L 872 0 
L 191 0 
L 1856 2491 
L 403 4666 
z
" id="DejaVuSans-58" transform="scale(0.015625)"/>
       <path d="M 2906 1791 
Q 2906 2416 2648 2759 
Q 2391 3103 1925 3103 
Q 1463 3103 1205 2759 
Q 947 2416 947 1791 
Q 947 1169 1205 825 
Q 1463 481 1925 481 
Q 2391 481 2648 825 
Q 2906 1169 2906 1791 
z
M 3481 434 
Q 3481 -459 3084 -895 
Q 2688 -1331 1869 -1331 
Q 1566 -1331 1297 -1286 
Q 1028 -1241 775 -1147 
L 775 -588 
Q 1028 -725 1275 -790 
Q 1522 -856 1778 -856 
Q 2344 -856 2625 -561 
Q 2906 -266 2906 331 
L 2906 616 
Q 2728 306 2450 153 
Q 2172 0 1784 0 
Q 1141 0 747 490 
Q 353 981 353 1791 
Q 353 2603 747 3093 
Q 1141 3584 1784 3584 
Q 2172 3584 2450 3431 
Q 2728 3278 2906 2969 
L 2906 3500 
L 3481 3500 
L 3481 434 
z
" id="DejaVuSans-67" transform="scale(0.015625)"/>
       <path d="M 3116 1747 
Q 3116 2381 2855 2742 
Q 2594 3103 2138 3103 
Q 1681 3103 1420 2742 
Q 1159 2381 1159 1747 
Q 1159 1113 1420 752 
Q 1681 391 2138 391 
Q 2594 391 2855 752 
Q 3116 1113 3116 1747 
z
M 1159 2969 
Q 1341 3281 1617 3432 
Q 1894 3584 2278 3584 
Q 2916 3584 3314 3078 
Q 3713 2572 3713 1747 
Q 3713 922 3314 415 
Q 2916 -91 2278 -91 
Q 1894 -91 1617 61 
Q 1341 213 1159 525 
L 1159 0 
L 581 0 
L 581 4863 
L 1159 4863 
L 1159 2969 
z
" id="DejaVuSans-62" transform="scale(0.015625)"/>
      </defs>
      <use transform="translate(0 0.015625)" xlink:href="#DejaVuSans-4d"/>
      <use transform="translate(86.279297 0.015625)" xlink:href="#DejaVuSans-65"/>
      <use transform="translate(147.802734 0.015625)" xlink:href="#DejaVuSans-61"/>
      <use transform="translate(209.082031 0.015625)" xlink:href="#DejaVuSans-6e"/>
      <use transform="translate(272.460938 0.015625)" xlink:href="#DejaVuSans-20"/>
      <use transform="translate(304.248047 0.015625)" xlink:href="#DejaVuSans-52"/>
      <use transform="translate(373.730469 0.015625)" xlink:href="#DejaVuSans-4f"/>
      <use transform="translate(452.441406 0.015625)" xlink:href="#DejaVuSans-43"/>
      <use transform="translate(522.265625 0.015625)" xlink:href="#DejaVuSans-20"/>
      <use transform="translate(554.052734 0.015625)" xlink:href="#DejaVuSans-28"/>
      <use transform="translate(593.066406 0.015625)" xlink:href="#DejaVuSans-58"/>
      <use transform="translate(661.572266 0.015625)" xlink:href="#DejaVuSans-67"/>
      <use transform="translate(725.048828 0.015625)" xlink:href="#DejaVuSans-62"/>
      <use transform="translate(788.525391 0.015625)" xlink:href="#DejaVuSans-6f"/>
      <use transform="translate(849.707031 0.015625)" xlink:href="#DejaVuSans-6f"/>
      <use transform="translate(910.888672 0.015625)" xlink:href="#DejaVuSans-73"/>
      <use transform="translate(962.988281 0.015625)" xlink:href="#DejaVuSans-74"/>
      <use transform="translate(1002.197266 0.015625)" xlink:href="#DejaVuSans-20"/>
      <use transform="translate(1033.984375 0.015625)" xlink:href="#DejaVuSans-41"/>
      <use transform="translate(1102.392578 0.015625)" xlink:href="#DejaVuSans-55"/>
      <use transform="translate(1175.585938 0.015625)" xlink:href="#DejaVuSans-43"/>
      <use transform="translate(1245.410156 0.015625)" xlink:href="#DejaVuSans-20"/>
      <use transform="translate(1277.197266 0.015625)" xlink:href="#DejaVuSans-3d"/>
      <use transform="translate(1360.986328 0.015625)" xlink:href="#DejaVuSans-20"/>
      <use transform="translate(1392.773438 0.015625)" xlink:href="#DejaVuSans-30"/>
      <use transform="translate(1456.396484 0.015625)" xlink:href="#DejaVuSans-2e"/>
      <use transform="translate(1488.183594 0.015625)" xlink:href="#DejaVuSans-36"/>
      <use transform="translate(1551.806641 0.015625)" xlink:href="#DejaVuSans-32"/>
      <use transform="translate(1615.429688 0.015625)" xlink:href="#DejaVuSans-20"/>
      <use transform="translate(1647.216797 0.015625)" xlink:href="#DejaVuSans-b1"/>
      <use transform="translate(1731.005859 0.015625)" xlink:href="#DejaVuSans-20"/>
      <use transform="translate(1762.792969 0.015625)" xlink:href="#DejaVuSans-30"/>
      <use transform="translate(1826.416016 0.015625)" xlink:href="#DejaVuSans-2e"/>
      <use transform="translate(1858.203125 0.015625)" xlink:href="#DejaVuSans-31"/>
      <use transform="translate(1921.826172 0.015625)" xlink:href="#DejaVuSans-31"/>
      <use transform="translate(1985.449219 0.015625)" xlink:href="#DejaVuSans-29"/>
     </g>
    </g>
    <g id="line2d_39">
     <path d="M 233.899687 374.84 
L 261.899688 374.84 
" style="fill:none;stroke:#a1cae2;stroke-dasharray:11.1,4.8;stroke-dashoffset:0;stroke-opacity:0.8;stroke-width:3;"/>
    </g>
    <g id="line2d_40"/>
    <g id="text_19">
     <!-- Mean ROC (SynClass AUC = 0.78 $\pm$ 0.02) -->
     <g style="fill:#262626;" transform="translate(273.099688 379.74)scale(0.14 -0.14)">
      <defs>
       <path d="M 3425 4513 
L 3425 3897 
Q 3066 4069 2747 4153 
Q 2428 4238 2131 4238 
Q 1616 4238 1336 4038 
Q 1056 3838 1056 3469 
Q 1056 3159 1242 3001 
Q 1428 2844 1947 2747 
L 2328 2669 
Q 3034 2534 3370 2195 
Q 3706 1856 3706 1288 
Q 3706 609 3251 259 
Q 2797 -91 1919 -91 
Q 1588 -91 1214 -16 
Q 841 59 441 206 
L 441 856 
Q 825 641 1194 531 
Q 1563 422 1919 422 
Q 2459 422 2753 634 
Q 3047 847 3047 1241 
Q 3047 1584 2836 1778 
Q 2625 1972 2144 2069 
L 1759 2144 
Q 1053 2284 737 2584 
Q 422 2884 422 3419 
Q 422 4038 858 4394 
Q 1294 4750 2059 4750 
Q 2388 4750 2728 4690 
Q 3069 4631 3425 4513 
z
" id="DejaVuSans-53" transform="scale(0.015625)"/>
       <path d="M 2059 -325 
Q 1816 -950 1584 -1140 
Q 1353 -1331 966 -1331 
L 506 -1331 
L 506 -850 
L 844 -850 
Q 1081 -850 1212 -737 
Q 1344 -625 1503 -206 
L 1606 56 
L 191 3500 
L 800 3500 
L 1894 763 
L 2988 3500 
L 3597 3500 
L 2059 -325 
z
" id="DejaVuSans-79" transform="scale(0.015625)"/>
      </defs>
      <use transform="translate(0 0.015625)" xlink:href="#DejaVuSans-4d"/>
      <use transform="translate(86.279297 0.015625)" xlink:href="#DejaVuSans-65"/>
      <use transform="translate(147.802734 0.015625)" xlink:href="#DejaVuSans-61"/>
      <use transform="translate(209.082031 0.015625)" xlink:href="#DejaVuSans-6e"/>
      <use transform="translate(272.460938 0.015625)" xlink:href="#DejaVuSans-20"/>
      <use transform="translate(304.248047 0.015625)" xlink:href="#DejaVuSans-52"/>
      <use transform="translate(373.730469 0.015625)" xlink:href="#DejaVuSans-4f"/>
      <use transform="translate(452.441406 0.015625)" xlink:href="#DejaVuSans-43"/>
      <use transform="translate(522.265625 0.015625)" xlink:href="#DejaVuSans-20"/>
      <use transform="translate(554.052734 0.015625)" xlink:href="#DejaVuSans-28"/>
      <use transform="translate(593.066406 0.015625)" xlink:href="#DejaVuSans-53"/>
      <use transform="translate(656.542969 0.015625)" xlink:href="#DejaVuSans-79"/>
      <use transform="translate(715.722656 0.015625)" xlink:href="#DejaVuSans-6e"/>
      <use transform="translate(779.101562 0.015625)" xlink:href="#DejaVuSans-43"/>
      <use transform="translate(848.925781 0.015625)" xlink:href="#DejaVuSans-6c"/>
      <use transform="translate(876.708984 0.015625)" xlink:href="#DejaVuSans-61"/>
      <use transform="translate(937.988281 0.015625)" xlink:href="#DejaVuSans-73"/>
      <use transform="translate(990.087891 0.015625)" xlink:href="#DejaVuSans-73"/>
      <use transform="translate(1042.1875 0.015625)" xlink:href="#DejaVuSans-20"/>
      <use transform="translate(1073.974609 0.015625)" xlink:href="#DejaVuSans-41"/>
      <use transform="translate(1142.382812 0.015625)" xlink:href="#DejaVuSans-55"/>
      <use transform="translate(1215.576172 0.015625)" xlink:href="#DejaVuSans-43"/>
      <use transform="translate(1285.400391 0.015625)" xlink:href="#DejaVuSans-20"/>
      <use transform="translate(1317.1875 0.015625)" xlink:href="#DejaVuSans-3d"/>
      <use transform="translate(1400.976562 0.015625)" xlink:href="#DejaVuSans-20"/>
      <use transform="translate(1432.763672 0.015625)" xlink:href="#DejaVuSans-30"/>
      <use transform="translate(1496.386719 0.015625)" xlink:href="#DejaVuSans-2e"/>
      <use transform="translate(1520.423828 0.015625)" xlink:href="#DejaVuSans-37"/>
      <use transform="translate(1584.046875 0.015625)" xlink:href="#DejaVuSans-38"/>
      <use transform="translate(1647.669922 0.015625)" xlink:href="#DejaVuSans-20"/>
      <use transform="translate(1679.457031 0.015625)" xlink:href="#DejaVuSans-b1"/>
      <use transform="translate(1763.246094 0.015625)" xlink:href="#DejaVuSans-20"/>
      <use transform="translate(1795.033203 0.015625)" xlink:href="#DejaVuSans-30"/>
      <use transform="translate(1858.65625 0.015625)" xlink:href="#DejaVuSans-2e"/>
      <use transform="translate(1890.443359 0.015625)" xlink:href="#DejaVuSans-30"/>
      <use transform="translate(1954.066406 0.015625)" xlink:href="#DejaVuSans-32"/>
      <use transform="translate(2017.689453 0.015625)" xlink:href="#DejaVuSans-29"/>
     </g>
    </g>
   </g>
  </g>
 </g>
 <defs>
  <clipPath id="p3647b8a4cc">
   <rect height="388.08" width="558" x="54.039687" y="7.2"/>
  </clipPath>
 </defs>
</svg>
