<?xml version="1.0" encoding="utf-8" standalone="no"?>
<!DOCTYPE svg PUBLIC "-//W3C//DTD SVG 1.1//EN"
  "http://www.w3.org/Graphics/SVG/1.1/DTD/svg11.dtd">
<svg height="439.982187pt" version="1.1" viewBox="0 0 619.239687 439.982187" width="619.239687pt" xmlns="http://www.w3.org/2000/svg" xmlns:xlink="http://www.w3.org/1999/xlink">
 <metadata>
  <rdf:RDF xmlns:cc="http://creativecommons.org/ns#" xmlns:dc="http://purl.org/dc/elements/1.1/" xmlns:rdf="http://www.w3.org/1999/02/22-rdf-syntax-ns#">
   <cc:Work>
    <dc:type rdf:resource="http://purl.org/dc/dcmitype/StillImage"/>
    <dc:date>2022-08-08T21:31:37.097752</dc:date>
    <dc:format>image/svg+xml</dc:format>
    <dc:creator>
     <cc:Agent>
      <dc:title>Matplotlib v3.4.3, https://matplotlib.org/</dc:title>
     </cc:Agent>
    </dc:creator>
   </cc:Work>
  </rdf:RDF>
 </metadata>
 <defs>
  <style type="text/css">*{stroke-linecap:butt;stroke-linejoin:round;}</style>
 </defs>
 <g id="figure_1">
  <g id="patch_1">
   <path d="M 0 439.982187 
L 619.239687 439.982187 
L 619.239687 0 
L 0 0 
z
" style="fill:#ffffff;"/>
  </g>
  <g id="axes_1">
   <g id="patch_2">
    <path d="M 54.039687 395.28 
L 612.039688 395.28 
L 612.039688 7.2 
L 54.039687 7.2 
z
" style="fill:#ffffff;"/>
   </g>
   <g id="matplotlib.axis_1">
    <g id="xtick_1">
     <g id="line2d_1">
      <path clip-path="url(#pc9d6662aaa)" d="M 79.403324 395.28 
L 79.403324 7.2 
" style="fill:none;stroke:#cccccc;stroke-linecap:round;stroke-width:0.8;"/>
     </g>
     <g id="line2d_2"/>
     <g id="text_1">
      <!-- 0.0 -->
      <g style="fill:#262626;" transform="translate(67.47598 410.177656)scale(0.15 -0.15)">
       <defs>
        <path d="M 2034 4250 
Q 1547 4250 1301 3770 
Q 1056 3291 1056 2328 
Q 1056 1369 1301 889 
Q 1547 409 2034 409 
Q 2525 409 2770 889 
Q 3016 1369 3016 2328 
Q 3016 3291 2770 3770 
Q 2525 4250 2034 4250 
z
M 2034 4750 
Q 2819 4750 3233 4129 
Q 3647 3509 3647 2328 
Q 3647 1150 3233 529 
Q 2819 -91 2034 -91 
Q 1250 -91 836 529 
Q 422 1150 422 2328 
Q 422 3509 836 4129 
Q 1250 4750 2034 4750 
z
" id="DejaVuSans-30" transform="scale(0.015625)"/>
        <path d="M 684 794 
L 1344 794 
L 1344 0 
L 684 0 
L 684 794 
z
" id="DejaVuSans-2e" transform="scale(0.015625)"/>
       </defs>
       <use xlink:href="#DejaVuSans-30"/>
       <use x="63.623047" xlink:href="#DejaVuSans-2e"/>
       <use x="95.410156" xlink:href="#DejaVuSans-30"/>
      </g>
     </g>
    </g>
    <g id="xtick_2">
     <g id="line2d_3">
      <path clip-path="url(#pc9d6662aaa)" d="M 180.857869 395.28 
L 180.857869 7.2 
" style="fill:none;stroke:#cccccc;stroke-linecap:round;stroke-width:0.8;"/>
     </g>
     <g id="line2d_4"/>
     <g id="text_2">
      <!-- 0.2 -->
      <g style="fill:#262626;" transform="translate(168.930526 410.177656)scale(0.15 -0.15)">
       <defs>
        <path d="M 1228 531 
L 3431 531 
L 3431 0 
L 469 0 
L 469 531 
Q 828 903 1448 1529 
Q 2069 2156 2228 2338 
Q 2531 2678 2651 2914 
Q 2772 3150 2772 3378 
Q 2772 3750 2511 3984 
Q 2250 4219 1831 4219 
Q 1534 4219 1204 4116 
Q 875 4013 500 3803 
L 500 4441 
Q 881 4594 1212 4672 
Q 1544 4750 1819 4750 
Q 2544 4750 2975 4387 
Q 3406 4025 3406 3419 
Q 3406 3131 3298 2873 
Q 3191 2616 2906 2266 
Q 2828 2175 2409 1742 
Q 1991 1309 1228 531 
z
" id="DejaVuSans-32" transform="scale(0.015625)"/>
       </defs>
       <use xlink:href="#DejaVuSans-30"/>
       <use x="63.623047" xlink:href="#DejaVuSans-2e"/>
       <use x="95.410156" xlink:href="#DejaVuSans-32"/>
      </g>
     </g>
    </g>
    <g id="xtick_3">
     <g id="line2d_5">
      <path clip-path="url(#pc9d6662aaa)" d="M 282.312415 395.28 
L 282.312415 7.2 
" style="fill:none;stroke:#cccccc;stroke-linecap:round;stroke-width:0.8;"/>
     </g>
     <g id="line2d_6"/>
     <g id="text_3">
      <!-- 0.4 -->
      <g style="fill:#262626;" transform="translate(270.385071 410.177656)scale(0.15 -0.15)">
       <defs>
        <path d="M 2419 4116 
L 825 1625 
L 2419 1625 
L 2419 4116 
z
M 2253 4666 
L 3047 4666 
L 3047 1625 
L 3713 1625 
L 3713 1100 
L 3047 1100 
L 3047 0 
L 2419 0 
L 2419 1100 
L 313 1100 
L 313 1709 
L 2253 4666 
z
" id="DejaVuSans-34" transform="scale(0.015625)"/>
       </defs>
       <use xlink:href="#DejaVuSans-30"/>
       <use x="63.623047" xlink:href="#DejaVuSans-2e"/>
       <use x="95.410156" xlink:href="#DejaVuSans-34"/>
      </g>
     </g>
    </g>
    <g id="xtick_4">
     <g id="line2d_7">
      <path clip-path="url(#pc9d6662aaa)" d="M 383.76696 395.28 
L 383.76696 7.2 
" style="fill:none;stroke:#cccccc;stroke-linecap:round;stroke-width:0.8;"/>
     </g>
     <g id="line2d_8"/>
     <g id="text_4">
      <!-- 0.6 -->
      <g style="fill:#262626;" transform="translate(371.839616 410.177656)scale(0.15 -0.15)">
       <defs>
        <path d="M 2113 2584 
Q 1688 2584 1439 2293 
Q 1191 2003 1191 1497 
Q 1191 994 1439 701 
Q 1688 409 2113 409 
Q 2538 409 2786 701 
Q 3034 994 3034 1497 
Q 3034 2003 2786 2293 
Q 2538 2584 2113 2584 
z
M 3366 4563 
L 3366 3988 
Q 3128 4100 2886 4159 
Q 2644 4219 2406 4219 
Q 1781 4219 1451 3797 
Q 1122 3375 1075 2522 
Q 1259 2794 1537 2939 
Q 1816 3084 2150 3084 
Q 2853 3084 3261 2657 
Q 3669 2231 3669 1497 
Q 3669 778 3244 343 
Q 2819 -91 2113 -91 
Q 1303 -91 875 529 
Q 447 1150 447 2328 
Q 447 3434 972 4092 
Q 1497 4750 2381 4750 
Q 2619 4750 2861 4703 
Q 3103 4656 3366 4563 
z
" id="DejaVuSans-36" transform="scale(0.015625)"/>
       </defs>
       <use xlink:href="#DejaVuSans-30"/>
       <use x="63.623047" xlink:href="#DejaVuSans-2e"/>
       <use x="95.410156" xlink:href="#DejaVuSans-36"/>
      </g>
     </g>
    </g>
    <g id="xtick_5">
     <g id="line2d_9">
      <path clip-path="url(#pc9d6662aaa)" d="M 485.221506 395.28 
L 485.221506 7.2 
" style="fill:none;stroke:#cccccc;stroke-linecap:round;stroke-width:0.8;"/>
     </g>
     <g id="line2d_10"/>
     <g id="text_5">
      <!-- 0.8 -->
      <g style="fill:#262626;" transform="translate(473.294162 410.177656)scale(0.15 -0.15)">
       <defs>
        <path d="M 2034 2216 
Q 1584 2216 1326 1975 
Q 1069 1734 1069 1313 
Q 1069 891 1326 650 
Q 1584 409 2034 409 
Q 2484 409 2743 651 
Q 3003 894 3003 1313 
Q 3003 1734 2745 1975 
Q 2488 2216 2034 2216 
z
M 1403 2484 
Q 997 2584 770 2862 
Q 544 3141 544 3541 
Q 544 4100 942 4425 
Q 1341 4750 2034 4750 
Q 2731 4750 3128 4425 
Q 3525 4100 3525 3541 
Q 3525 3141 3298 2862 
Q 3072 2584 2669 2484 
Q 3125 2378 3379 2068 
Q 3634 1759 3634 1313 
Q 3634 634 3220 271 
Q 2806 -91 2034 -91 
Q 1263 -91 848 271 
Q 434 634 434 1313 
Q 434 1759 690 2068 
Q 947 2378 1403 2484 
z
M 1172 3481 
Q 1172 3119 1398 2916 
Q 1625 2713 2034 2713 
Q 2441 2713 2670 2916 
Q 2900 3119 2900 3481 
Q 2900 3844 2670 4047 
Q 2441 4250 2034 4250 
Q 1625 4250 1398 4047 
Q 1172 3844 1172 3481 
z
" id="DejaVuSans-38" transform="scale(0.015625)"/>
       </defs>
       <use xlink:href="#DejaVuSans-30"/>
       <use x="63.623047" xlink:href="#DejaVuSans-2e"/>
       <use x="95.410156" xlink:href="#DejaVuSans-38"/>
      </g>
     </g>
    </g>
    <g id="xtick_6">
     <g id="line2d_11">
      <path clip-path="url(#pc9d6662aaa)" d="M 586.676051 395.28 
L 586.676051 7.2 
" style="fill:none;stroke:#cccccc;stroke-linecap:round;stroke-width:0.8;"/>
     </g>
     <g id="line2d_12"/>
     <g id="text_6">
      <!-- 1.0 -->
      <g style="fill:#262626;" transform="translate(574.748707 410.177656)scale(0.15 -0.15)">
       <defs>
        <path d="M 794 531 
L 1825 531 
L 1825 4091 
L 703 3866 
L 703 4441 
L 1819 4666 
L 2450 4666 
L 2450 531 
L 3481 531 
L 3481 0 
L 794 0 
L 794 531 
z
" id="DejaVuSans-31" transform="scale(0.015625)"/>
       </defs>
       <use xlink:href="#DejaVuSans-31"/>
       <use x="63.623047" xlink:href="#DejaVuSans-2e"/>
       <use x="95.410156" xlink:href="#DejaVuSans-30"/>
      </g>
     </g>
    </g>
    <g id="text_7">
     <!-- False Positive Rate -->
     <g style="fill:#262626;" transform="translate(258.693438 429.454687)scale(0.16 -0.16)">
      <defs>
       <path d="M 628 4666 
L 3309 4666 
L 3309 4134 
L 1259 4134 
L 1259 2759 
L 3109 2759 
L 3109 2228 
L 1259 2228 
L 1259 0 
L 628 0 
L 628 4666 
z
" id="DejaVuSans-46" transform="scale(0.015625)"/>
       <path d="M 2194 1759 
Q 1497 1759 1228 1600 
Q 959 1441 959 1056 
Q 959 750 1161 570 
Q 1363 391 1709 391 
Q 2188 391 2477 730 
Q 2766 1069 2766 1631 
L 2766 1759 
L 2194 1759 
z
M 3341 1997 
L 3341 0 
L 2766 0 
L 2766 531 
Q 2569 213 2275 61 
Q 1981 -91 1556 -91 
Q 1019 -91 701 211 
Q 384 513 384 1019 
Q 384 1609 779 1909 
Q 1175 2209 1959 2209 
L 2766 2209 
L 2766 2266 
Q 2766 2663 2505 2880 
Q 2244 3097 1772 3097 
Q 1472 3097 1187 3025 
Q 903 2953 641 2809 
L 641 3341 
Q 956 3463 1253 3523 
Q 1550 3584 1831 3584 
Q 2591 3584 2966 3190 
Q 3341 2797 3341 1997 
z
" id="DejaVuSans-61" transform="scale(0.015625)"/>
       <path d="M 603 4863 
L 1178 4863 
L 1178 0 
L 603 0 
L 603 4863 
z
" id="DejaVuSans-6c" transform="scale(0.015625)"/>
       <path d="M 2834 3397 
L 2834 2853 
Q 2591 2978 2328 3040 
Q 2066 3103 1784 3103 
Q 1356 3103 1142 2972 
Q 928 2841 928 2578 
Q 928 2378 1081 2264 
Q 1234 2150 1697 2047 
L 1894 2003 
Q 2506 1872 2764 1633 
Q 3022 1394 3022 966 
Q 3022 478 2636 193 
Q 2250 -91 1575 -91 
Q 1294 -91 989 -36 
Q 684 19 347 128 
L 347 722 
Q 666 556 975 473 
Q 1284 391 1588 391 
Q 1994 391 2212 530 
Q 2431 669 2431 922 
Q 2431 1156 2273 1281 
Q 2116 1406 1581 1522 
L 1381 1569 
Q 847 1681 609 1914 
Q 372 2147 372 2553 
Q 372 3047 722 3315 
Q 1072 3584 1716 3584 
Q 2034 3584 2315 3537 
Q 2597 3491 2834 3397 
z
" id="DejaVuSans-73" transform="scale(0.015625)"/>
       <path d="M 3597 1894 
L 3597 1613 
L 953 1613 
Q 991 1019 1311 708 
Q 1631 397 2203 397 
Q 2534 397 2845 478 
Q 3156 559 3463 722 
L 3463 178 
Q 3153 47 2828 -22 
Q 2503 -91 2169 -91 
Q 1331 -91 842 396 
Q 353 884 353 1716 
Q 353 2575 817 3079 
Q 1281 3584 2069 3584 
Q 2775 3584 3186 3129 
Q 3597 2675 3597 1894 
z
M 3022 2063 
Q 3016 2534 2758 2815 
Q 2500 3097 2075 3097 
Q 1594 3097 1305 2825 
Q 1016 2553 972 2059 
L 3022 2063 
z
" id="DejaVuSans-65" transform="scale(0.015625)"/>
       <path id="DejaVuSans-20" transform="scale(0.015625)"/>
       <path d="M 1259 4147 
L 1259 2394 
L 2053 2394 
Q 2494 2394 2734 2622 
Q 2975 2850 2975 3272 
Q 2975 3691 2734 3919 
Q 2494 4147 2053 4147 
L 1259 4147 
z
M 628 4666 
L 2053 4666 
Q 2838 4666 3239 4311 
Q 3641 3956 3641 3272 
Q 3641 2581 3239 2228 
Q 2838 1875 2053 1875 
L 1259 1875 
L 1259 0 
L 628 0 
L 628 4666 
z
" id="DejaVuSans-50" transform="scale(0.015625)"/>
       <path d="M 1959 3097 
Q 1497 3097 1228 2736 
Q 959 2375 959 1747 
Q 959 1119 1226 758 
Q 1494 397 1959 397 
Q 2419 397 2687 759 
Q 2956 1122 2956 1747 
Q 2956 2369 2687 2733 
Q 2419 3097 1959 3097 
z
M 1959 3584 
Q 2709 3584 3137 3096 
Q 3566 2609 3566 1747 
Q 3566 888 3137 398 
Q 2709 -91 1959 -91 
Q 1206 -91 779 398 
Q 353 888 353 1747 
Q 353 2609 779 3096 
Q 1206 3584 1959 3584 
z
" id="DejaVuSans-6f" transform="scale(0.015625)"/>
       <path d="M 603 3500 
L 1178 3500 
L 1178 0 
L 603 0 
L 603 3500 
z
M 603 4863 
L 1178 4863 
L 1178 4134 
L 603 4134 
L 603 4863 
z
" id="DejaVuSans-69" transform="scale(0.015625)"/>
       <path d="M 1172 4494 
L 1172 3500 
L 2356 3500 
L 2356 3053 
L 1172 3053 
L 1172 1153 
Q 1172 725 1289 603 
Q 1406 481 1766 481 
L 2356 481 
L 2356 0 
L 1766 0 
Q 1100 0 847 248 
Q 594 497 594 1153 
L 594 3053 
L 172 3053 
L 172 3500 
L 594 3500 
L 594 4494 
L 1172 4494 
z
" id="DejaVuSans-74" transform="scale(0.015625)"/>
       <path d="M 191 3500 
L 800 3500 
L 1894 563 
L 2988 3500 
L 3597 3500 
L 2284 0 
L 1503 0 
L 191 3500 
z
" id="DejaVuSans-76" transform="scale(0.015625)"/>
       <path d="M 2841 2188 
Q 3044 2119 3236 1894 
Q 3428 1669 3622 1275 
L 4263 0 
L 3584 0 
L 2988 1197 
Q 2756 1666 2539 1819 
Q 2322 1972 1947 1972 
L 1259 1972 
L 1259 0 
L 628 0 
L 628 4666 
L 2053 4666 
Q 2853 4666 3247 4331 
Q 3641 3997 3641 3322 
Q 3641 2881 3436 2590 
Q 3231 2300 2841 2188 
z
M 1259 4147 
L 1259 2491 
L 2053 2491 
Q 2509 2491 2742 2702 
Q 2975 2913 2975 3322 
Q 2975 3731 2742 3939 
Q 2509 4147 2053 4147 
L 1259 4147 
z
" id="DejaVuSans-52" transform="scale(0.015625)"/>
      </defs>
      <use xlink:href="#DejaVuSans-46"/>
      <use x="48.394531" xlink:href="#DejaVuSans-61"/>
      <use x="109.673828" xlink:href="#DejaVuSans-6c"/>
      <use x="137.457031" xlink:href="#DejaVuSans-73"/>
      <use x="189.556641" xlink:href="#DejaVuSans-65"/>
      <use x="251.080078" xlink:href="#DejaVuSans-20"/>
      <use x="282.867188" xlink:href="#DejaVuSans-50"/>
      <use x="339.544922" xlink:href="#DejaVuSans-6f"/>
      <use x="400.726562" xlink:href="#DejaVuSans-73"/>
      <use x="452.826172" xlink:href="#DejaVuSans-69"/>
      <use x="480.609375" xlink:href="#DejaVuSans-74"/>
      <use x="519.818359" xlink:href="#DejaVuSans-69"/>
      <use x="547.601562" xlink:href="#DejaVuSans-76"/>
      <use x="606.78125" xlink:href="#DejaVuSans-65"/>
      <use x="668.304688" xlink:href="#DejaVuSans-20"/>
      <use x="700.091797" xlink:href="#DejaVuSans-52"/>
      <use x="767.324219" xlink:href="#DejaVuSans-61"/>
      <use x="828.603516" xlink:href="#DejaVuSans-74"/>
      <use x="867.8125" xlink:href="#DejaVuSans-65"/>
     </g>
    </g>
   </g>
   <g id="matplotlib.axis_2">
    <g id="ytick_1">
     <g id="line2d_13">
      <path clip-path="url(#pc9d6662aaa)" d="M 54.039687 377.64 
L 612.039688 377.64 
" style="fill:none;stroke:#cccccc;stroke-linecap:round;stroke-width:0.8;"/>
     </g>
     <g id="line2d_14"/>
     <g id="text_8">
      <!-- 0.0 -->
      <g style="fill:#262626;" transform="translate(26.685 383.338828)scale(0.15 -0.15)">
       <use xlink:href="#DejaVuSans-30"/>
       <use x="63.623047" xlink:href="#DejaVuSans-2e"/>
       <use x="95.410156" xlink:href="#DejaVuSans-30"/>
      </g>
     </g>
    </g>
    <g id="ytick_2">
     <g id="line2d_15">
      <path clip-path="url(#pc9d6662aaa)" d="M 54.039687 307.08 
L 612.039688 307.08 
" style="fill:none;stroke:#cccccc;stroke-linecap:round;stroke-width:0.8;"/>
     </g>
     <g id="line2d_16"/>
     <g id="text_9">
      <!-- 0.2 -->
      <g style="fill:#262626;" transform="translate(26.685 312.778828)scale(0.15 -0.15)">
       <use xlink:href="#DejaVuSans-30"/>
       <use x="63.623047" xlink:href="#DejaVuSans-2e"/>
       <use x="95.410156" xlink:href="#DejaVuSans-32"/>
      </g>
     </g>
    </g>
    <g id="ytick_3">
     <g id="line2d_17">
      <path clip-path="url(#pc9d6662aaa)" d="M 54.039687 236.52 
L 612.039688 236.52 
" style="fill:none;stroke:#cccccc;stroke-linecap:round;stroke-width:0.8;"/>
     </g>
     <g id="line2d_18"/>
     <g id="text_10">
      <!-- 0.4 -->
      <g style="fill:#262626;" transform="translate(26.685 242.218828)scale(0.15 -0.15)">
       <use xlink:href="#DejaVuSans-30"/>
       <use x="63.623047" xlink:href="#DejaVuSans-2e"/>
       <use x="95.410156" xlink:href="#DejaVuSans-34"/>
      </g>
     </g>
    </g>
    <g id="ytick_4">
     <g id="line2d_19">
      <path clip-path="url(#pc9d6662aaa)" d="M 54.039687 165.96 
L 612.039688 165.96 
" style="fill:none;stroke:#cccccc;stroke-linecap:round;stroke-width:0.8;"/>
     </g>
     <g id="line2d_20"/>
     <g id="text_11">
      <!-- 0.6 -->
      <g style="fill:#262626;" transform="translate(26.685 171.658828)scale(0.15 -0.15)">
       <use xlink:href="#DejaVuSans-30"/>
       <use x="63.623047" xlink:href="#DejaVuSans-2e"/>
       <use x="95.410156" xlink:href="#DejaVuSans-36"/>
      </g>
     </g>
    </g>
    <g id="ytick_5">
     <g id="line2d_21">
      <path clip-path="url(#pc9d6662aaa)" d="M 54.039687 95.4 
L 612.039688 95.4 
" style="fill:none;stroke:#cccccc;stroke-linecap:round;stroke-width:0.8;"/>
     </g>
     <g id="line2d_22"/>
     <g id="text_12">
      <!-- 0.8 -->
      <g style="fill:#262626;" transform="translate(26.685 101.098828)scale(0.15 -0.15)">
       <use xlink:href="#DejaVuSans-30"/>
       <use x="63.623047" xlink:href="#DejaVuSans-2e"/>
       <use x="95.410156" xlink:href="#DejaVuSans-38"/>
      </g>
     </g>
    </g>
    <g id="ytick_6">
     <g id="line2d_23">
      <path clip-path="url(#pc9d6662aaa)" d="M 54.039687 24.84 
L 612.039688 24.84 
" style="fill:none;stroke:#cccccc;stroke-linecap:round;stroke-width:0.8;"/>
     </g>
     <g id="line2d_24"/>
     <g id="text_13">
      <!-- 1.0 -->
      <g style="fill:#262626;" transform="translate(26.685 30.538828)scale(0.15 -0.15)">
       <use xlink:href="#DejaVuSans-31"/>
       <use x="63.623047" xlink:href="#DejaVuSans-2e"/>
       <use x="95.410156" xlink:href="#DejaVuSans-30"/>
      </g>
     </g>
    </g>
    <g id="text_14">
     <!-- True Positive Rate -->
     <g style="fill:#262626;" transform="translate(19.3575 272.4875)rotate(-90)scale(0.16 -0.16)">
      <defs>
       <path d="M -19 4666 
L 3928 4666 
L 3928 4134 
L 2272 4134 
L 2272 0 
L 1638 0 
L 1638 4134 
L -19 4134 
L -19 4666 
z
" id="DejaVuSans-54" transform="scale(0.015625)"/>
       <path d="M 2631 2963 
Q 2534 3019 2420 3045 
Q 2306 3072 2169 3072 
Q 1681 3072 1420 2755 
Q 1159 2438 1159 1844 
L 1159 0 
L 581 0 
L 581 3500 
L 1159 3500 
L 1159 2956 
Q 1341 3275 1631 3429 
Q 1922 3584 2338 3584 
Q 2397 3584 2469 3576 
Q 2541 3569 2628 3553 
L 2631 2963 
z
" id="DejaVuSans-72" transform="scale(0.015625)"/>
       <path d="M 544 1381 
L 544 3500 
L 1119 3500 
L 1119 1403 
Q 1119 906 1312 657 
Q 1506 409 1894 409 
Q 2359 409 2629 706 
Q 2900 1003 2900 1516 
L 2900 3500 
L 3475 3500 
L 3475 0 
L 2900 0 
L 2900 538 
Q 2691 219 2414 64 
Q 2138 -91 1772 -91 
Q 1169 -91 856 284 
Q 544 659 544 1381 
z
M 1991 3584 
L 1991 3584 
z
" id="DejaVuSans-75" transform="scale(0.015625)"/>
      </defs>
      <use xlink:href="#DejaVuSans-54"/>
      <use x="46.333984" xlink:href="#DejaVuSans-72"/>
      <use x="87.447266" xlink:href="#DejaVuSans-75"/>
      <use x="150.826172" xlink:href="#DejaVuSans-65"/>
      <use x="212.349609" xlink:href="#DejaVuSans-20"/>
      <use x="244.136719" xlink:href="#DejaVuSans-50"/>
      <use x="300.814453" xlink:href="#DejaVuSans-6f"/>
      <use x="361.996094" xlink:href="#DejaVuSans-73"/>
      <use x="414.095703" xlink:href="#DejaVuSans-69"/>
      <use x="441.878906" xlink:href="#DejaVuSans-74"/>
      <use x="481.087891" xlink:href="#DejaVuSans-69"/>
      <use x="508.871094" xlink:href="#DejaVuSans-76"/>
      <use x="568.050781" xlink:href="#DejaVuSans-65"/>
      <use x="629.574219" xlink:href="#DejaVuSans-20"/>
      <use x="661.361328" xlink:href="#DejaVuSans-52"/>
      <use x="728.59375" xlink:href="#DejaVuSans-61"/>
      <use x="789.873047" xlink:href="#DejaVuSans-74"/>
      <use x="829.082031" xlink:href="#DejaVuSans-65"/>
     </g>
    </g>
   </g>
   <g id="line2d_25">
    <path clip-path="url(#pc9d6662aaa)" d="M 79.403324 377.64 
L 84.527291 171.63806 
L 89.651258 170.260121 
L 94.775225 168.882181 
L 99.899192 167.504242 
L 105.023159 166.126303 
L 110.147126 164.748363 
L 115.271092 163.370424 
L 120.395059 161.992484 
L 125.519026 160.614545 
L 130.642993 159.236606 
L 135.76696 157.858666 
L 140.890927 156.480727 
L 146.014894 155.102787 
L 151.138861 153.724848 
L 156.262828 152.346908 
L 161.386795 150.968969 
L 166.510762 149.59103 
L 171.634729 148.21309 
L 176.758696 146.835151 
L 181.882663 145.457211 
L 187.00663 144.079272 
L 192.130597 142.701333 
L 197.254564 141.323393 
L 202.37853 139.945454 
L 207.502497 138.567514 
L 212.626464 137.189575 
L 217.750431 135.811636 
L 222.874398 134.433696 
L 227.998365 133.055757 
L 233.122332 131.677817 
L 238.246299 130.299878 
L 243.370266 128.921939 
L 248.494233 106.375999 
L 253.6182 105.603878 
L 258.742167 104.831757 
L 263.866134 104.059636 
L 268.990101 103.287515 
L 274.114068 102.515393 
L 279.238035 101.743272 
L 284.362002 100.971151 
L 289.485968 100.19903 
L 294.609935 99.426909 
L 299.733902 98.654787 
L 304.857869 97.882666 
L 309.981836 97.110545 
L 315.105803 96.338424 
L 320.22977 95.566303 
L 325.353737 94.794181 
L 330.477704 94.02206 
L 335.601671 93.249939 
L 340.725638 92.477818 
L 345.849605 91.705697 
L 350.973572 90.933575 
L 356.097539 90.161454 
L 361.221506 89.389333 
L 366.345473 88.617212 
L 371.46944 87.845091 
L 376.593407 87.072969 
L 381.717373 86.300848 
L 386.84134 85.528727 
L 391.965307 84.756606 
L 397.089274 83.984485 
L 402.213241 83.212363 
L 407.337208 82.440242 
L 412.461175 81.668121 
L 417.585142 80.896 
L 422.709109 68.15006 
L 427.833076 67.164121 
L 432.957043 66.178182 
L 438.08101 65.192242 
L 443.204977 64.206303 
L 448.328944 63.220363 
L 453.452911 62.234424 
L 458.576878 61.248485 
L 463.700845 60.262545 
L 468.824811 59.276606 
L 473.948778 58.290667 
L 479.072745 57.304727 
L 484.196712 56.318788 
L 489.320679 55.332848 
L 494.444646 54.346909 
L 499.568613 53.36097 
L 504.69258 52.37503 
L 509.816547 51.389091 
L 514.940514 50.403151 
L 520.064481 49.417212 
L 525.188448 48.431273 
L 530.312415 47.445333 
L 535.436382 46.459394 
L 540.560349 45.473454 
L 545.684316 44.487515 
L 550.808283 43.501576 
L 555.932249 42.515636 
L 561.056216 41.529697 
L 566.180183 40.543757 
L 571.30415 39.557818 
L 576.428117 38.571879 
L 581.552084 37.585939 
L 586.676051 24.84 
" style="fill:none;stroke:#f39189;stroke-dasharray:11.1,4.8;stroke-dashoffset:0;stroke-opacity:0.8;stroke-width:3;"/>
   </g>
   <g id="line2d_26">
    <path clip-path="url(#pc9d6662aaa)" d="M 79.403324 377.64 
L 84.527291 143.580362 
L 89.651258 140.016726 
L 94.775225 136.45309 
L 99.899192 132.889453 
L 105.023159 129.325817 
L 110.147126 125.762181 
L 115.271092 122.198544 
L 120.395059 118.634908 
L 125.519026 115.071272 
L 130.642993 111.507635 
L 135.76696 107.943999 
L 140.890927 104.380362 
L 146.014894 100.816726 
L 151.138861 97.25309 
L 156.262828 93.689453 
L 161.386795 90.125817 
L 166.510762 86.562181 
L 171.634729 82.998544 
L 176.758696 79.434908 
L 181.882663 75.871272 
L 187.00663 72.307635 
L 192.130597 68.743999 
L 197.254564 65.180362 
L 202.37853 61.616726 
L 207.502497 58.05309 
L 212.626464 54.489453 
L 217.750431 50.925817 
L 222.874398 47.362181 
L 227.998365 43.798544 
L 233.122332 40.234908 
L 238.246299 36.671272 
L 243.370266 33.107635 
L 248.494233 27.192 
L 253.6182 27.156364 
L 258.742167 27.120727 
L 263.866134 27.085091 
L 268.990101 27.049455 
L 274.114068 27.013818 
L 279.238035 26.978182 
L 284.362002 26.942545 
L 289.485968 26.906909 
L 294.609935 26.871273 
L 299.733902 26.835636 
L 304.857869 26.8 
L 309.981836 26.764364 
L 315.105803 26.728727 
L 320.22977 26.693091 
L 325.353737 26.657455 
L 330.477704 26.621818 
L 335.601671 26.586182 
L 340.725638 26.550545 
L 345.849605 26.514909 
L 350.973572 26.479273 
L 356.097539 26.443636 
L 361.221506 26.408 
L 366.345473 26.372364 
L 371.46944 26.336727 
L 376.593407 26.301091 
L 381.717373 26.265455 
L 386.84134 26.229818 
L 391.965307 26.194182 
L 397.089274 26.158545 
L 402.213241 26.122909 
L 407.337208 26.087273 
L 412.461175 26.051636 
L 417.585142 26.016 
L 422.709109 25.980364 
L 427.833076 25.944727 
L 432.957043 25.909091 
L 438.08101 25.873455 
L 443.204977 25.837818 
L 448.328944 25.802182 
L 453.452911 25.766545 
L 458.576878 25.730909 
L 463.700845 25.695273 
L 468.824811 25.659636 
L 473.948778 25.624 
L 479.072745 25.588364 
L 484.196712 25.552727 
L 489.320679 25.517091 
L 494.444646 25.481455 
L 499.568613 25.445818 
L 504.69258 25.410182 
L 509.816547 25.374545 
L 514.940514 25.338909 
L 520.064481 25.303273 
L 525.188448 25.267636 
L 530.312415 25.232 
L 535.436382 25.196364 
L 540.560349 25.160727 
L 545.684316 25.125091 
L 550.808283 25.089455 
L 555.932249 25.053818 
L 561.056216 25.018182 
L 566.180183 24.982545 
L 571.30415 24.946909 
L 576.428117 24.911273 
L 581.552084 24.875636 
L 586.676051 24.84 
" style="fill:none;stroke:#9a86a4;stroke-dasharray:11.1,4.8;stroke-dashoffset:0;stroke-opacity:0.8;stroke-width:3;"/>
   </g>
   <g id="line2d_27">
    <path clip-path="url(#pc9d6662aaa)" d="M 79.403324 377.64 
L 84.527291 291.174304 
L 89.651258 289.380607 
L 94.775225 287.58691 
L 99.899192 285.793213 
L 105.023159 283.999516 
L 110.147126 282.205819 
L 115.271092 280.412122 
L 120.395059 278.618425 
L 125.519026 276.824728 
L 130.642993 275.031031 
L 135.76696 273.237334 
L 140.890927 271.443637 
L 146.014894 269.64994 
L 151.138861 267.856243 
L 156.262828 266.062546 
L 161.386795 264.268849 
L 166.510762 262.475152 
L 171.634729 260.681455 
L 176.758696 258.887758 
L 181.882663 257.094061 
L 187.00663 255.300364 
L 192.130597 253.506668 
L 197.254564 251.712971 
L 202.37853 249.919274 
L 207.502497 248.125577 
L 212.626464 246.33188 
L 217.750431 244.538183 
L 222.874398 242.744486 
L 227.998365 240.950789 
L 233.122332 239.157092 
L 238.246299 237.363395 
L 243.370266 235.569698 
L 248.494233 186.736 
L 253.6182 184.942303 
L 258.742167 183.148606 
L 263.866134 181.354909 
L 268.990101 179.561212 
L 274.114068 177.767515 
L 279.238035 175.973819 
L 284.362002 174.180122 
L 289.485968 172.386425 
L 294.609935 170.592728 
L 299.733902 168.799031 
L 304.857869 167.005334 
L 309.981836 165.211637 
L 315.105803 163.41794 
L 320.22977 161.624243 
L 325.353737 159.830546 
L 330.477704 158.036849 
L 335.601671 156.243152 
L 340.725638 154.449455 
L 345.849605 152.655758 
L 350.973572 150.862061 
L 356.097539 149.068364 
L 361.221506 147.274667 
L 366.345473 145.48097 
L 371.46944 143.687273 
L 376.593407 141.893576 
L 381.717373 140.099879 
L 386.84134 138.306182 
L 391.965307 136.512485 
L 397.089274 134.718788 
L 402.213241 132.925091 
L 407.337208 131.131394 
L 412.461175 129.337697 
L 417.585142 127.544 
L 422.709109 126.712485 
L 427.833076 125.88097 
L 432.957043 125.049455 
L 438.08101 124.217939 
L 443.204977 123.386424 
L 448.328944 122.554909 
L 453.452911 121.723394 
L 458.576878 120.891879 
L 463.700845 120.060364 
L 468.824811 119.228849 
L 473.948778 118.397333 
L 479.072745 117.565818 
L 484.196712 116.734303 
L 489.320679 115.902788 
L 494.444646 115.071273 
L 499.568613 114.239758 
L 504.69258 113.408242 
L 509.816547 112.576727 
L 514.940514 111.745212 
L 520.064481 110.913697 
L 525.188448 110.082182 
L 530.312415 109.250667 
L 535.436382 108.419152 
L 540.560349 107.587636 
L 545.684316 106.756121 
L 550.808283 105.924606 
L 555.932249 105.093091 
L 561.056216 104.261576 
L 566.180183 103.430061 
L 571.30415 102.598545 
L 576.428117 101.76703 
L 581.552084 100.935515 
L 586.676051 24.84 
" style="fill:none;stroke:#e2c2b9;stroke-dasharray:11.1,4.8;stroke-dashoffset:0;stroke-opacity:0.8;stroke-width:3;"/>
   </g>
   <g id="line2d_28">
    <path clip-path="url(#pc9d6662aaa)" d="M 79.403324 377.64 
L 84.527291 241.224001 
L 89.651258 241.224001 
L 94.775225 241.224001 
L 99.899192 241.224001 
L 105.023159 241.224001 
L 110.147126 241.224001 
L 115.271092 241.224001 
L 120.395059 241.224001 
L 125.519026 241.224001 
L 130.642993 241.224001 
L 135.76696 241.224001 
L 140.890927 241.224001 
L 146.014894 241.224001 
L 151.138861 241.224001 
L 156.262828 241.224001 
L 161.386795 241.224001 
L 166.510762 241.224001 
L 171.634729 241.224001 
L 176.758696 241.224001 
L 181.882663 241.224001 
L 187.00663 241.224001 
L 192.130597 241.224001 
L 197.254564 241.224001 
L 202.37853 241.224001 
L 207.502497 241.224001 
L 212.626464 241.224001 
L 217.750431 241.224001 
L 222.874398 241.224001 
L 227.998365 241.224001 
L 233.122332 241.224001 
L 238.246299 241.224001 
L 243.370266 241.224001 
L 248.494233 156.551999 
L 253.6182 156.551999 
L 258.742167 156.551999 
L 263.866134 156.551999 
L 268.990101 156.551999 
L 274.114068 156.551999 
L 279.238035 156.551999 
L 284.362002 156.551999 
L 289.485968 156.551999 
L 294.609935 156.551999 
L 299.733902 156.551999 
L 304.857869 156.551999 
L 309.981836 156.551999 
L 315.105803 156.551999 
L 320.22977 156.551999 
L 325.353737 156.551999 
L 330.477704 156.551999 
L 335.601671 156.551999 
L 340.725638 156.551999 
L 345.849605 156.551999 
L 350.973572 156.551999 
L 356.097539 156.551999 
L 361.221506 156.551999 
L 366.345473 156.551999 
L 371.46944 156.551999 
L 376.593407 156.551999 
L 381.717373 156.551999 
L 386.84134 156.551999 
L 391.965307 156.551999 
L 397.089274 156.551999 
L 402.213241 156.551999 
L 407.337208 156.551999 
L 412.461175 156.551999 
L 417.585142 156.551999 
L 422.709109 111.863999 
L 427.833076 111.863999 
L 432.957043 111.863999 
L 438.08101 111.863999 
L 443.204977 111.863999 
L 448.328944 111.863999 
L 453.452911 111.863999 
L 458.576878 111.863999 
L 463.700845 111.863999 
L 468.824811 111.863999 
L 473.948778 111.863999 
L 479.072745 111.863999 
L 484.196712 111.863999 
L 489.320679 111.863999 
L 494.444646 111.863999 
L 499.568613 111.863999 
L 504.69258 111.863999 
L 509.816547 111.863999 
L 514.940514 111.863999 
L 520.064481 111.863999 
L 525.188448 111.863999 
L 530.312415 111.863999 
L 535.436382 111.863999 
L 540.560349 111.863999 
L 545.684316 111.863999 
L 550.808283 111.863999 
L 555.932249 111.863999 
L 561.056216 111.863999 
L 566.180183 111.863999 
L 571.30415 111.863999 
L 576.428117 111.863999 
L 581.552084 111.863999 
L 586.676051 24.84 
" style="fill:none;stroke:#555555;stroke-dasharray:11.1,4.8;stroke-dashoffset:0;stroke-opacity:0.8;stroke-width:3;"/>
   </g>
   <g id="line2d_29">
    <path clip-path="url(#pc9d6662aaa)" d="M 79.403324 377.64 
L 84.527291 165.96 
L 89.651258 165.96 
L 94.775225 165.96 
L 99.899192 165.96 
L 105.023159 165.96 
L 110.147126 165.96 
L 115.271092 165.96 
L 120.395059 165.96 
L 125.519026 165.96 
L 130.642993 165.96 
L 135.76696 165.96 
L 140.890927 165.96 
L 146.014894 165.96 
L 151.138861 165.96 
L 156.262828 165.96 
L 161.386795 165.96 
L 166.510762 165.96 
L 171.634729 165.96 
L 176.758696 165.96 
L 181.882663 165.603636 
L 187.00663 163.821818 
L 192.130597 162.04 
L 197.254564 160.258182 
L 202.37853 158.476364 
L 207.502497 156.694545 
L 212.626464 154.912727 
L 217.750431 153.130909 
L 222.874398 151.349091 
L 227.998365 149.567273 
L 233.122332 147.785455 
L 238.246299 146.003636 
L 243.370266 144.221818 
L 248.494233 142.44 
L 253.6182 140.658182 
L 258.742167 138.876364 
L 263.866134 137.094545 
L 268.990101 135.312727 
L 274.114068 133.530909 
L 279.238035 131.749091 
L 284.362002 129.967273 
L 289.485968 128.185455 
L 294.609935 126.403636 
L 299.733902 124.621818 
L 304.857869 122.84 
L 309.981836 121.058182 
L 315.105803 119.276364 
L 320.22977 117.494545 
L 325.353737 115.712727 
L 330.477704 113.930909 
L 335.601671 112.149091 
L 340.725638 110.367273 
L 345.849605 108.585455 
L 350.973572 106.803636 
L 356.097539 105.021818 
L 361.221506 103.24 
L 366.345473 101.458182 
L 371.46944 99.676364 
L 376.593407 97.894545 
L 381.717373 96.112727 
L 386.84134 94.330909 
L 391.965307 92.549091 
L 397.089274 90.767273 
L 402.213241 88.985455 
L 407.337208 87.203636 
L 412.461175 85.421818 
L 417.585142 83.64 
L 422.709109 81.858182 
L 427.833076 80.076364 
L 432.957043 78.294545 
L 438.08101 76.512727 
L 443.204977 74.730909 
L 448.328944 72.949091 
L 453.452911 71.167273 
L 458.576878 69.385455 
L 463.700845 67.603636 
L 468.824811 65.821818 
L 473.948778 64.04 
L 479.072745 62.258182 
L 484.196712 60.476364 
L 489.320679 58.694545 
L 494.444646 56.912727 
L 499.568613 55.130909 
L 504.69258 53.349091 
L 509.816547 51.567273 
L 514.940514 49.785455 
L 520.064481 48.003636 
L 525.188448 46.221818 
L 530.312415 44.44 
L 535.436382 42.658182 
L 540.560349 40.876364 
L 545.684316 39.094545 
L 550.808283 37.312727 
L 555.932249 35.530909 
L 561.056216 33.749091 
L 566.180183 31.967273 
L 571.30415 30.185455 
L 576.428117 28.403636 
L 581.552084 26.621818 
L 586.676051 24.84 
" style="fill:none;stroke:#a1cae2;stroke-dasharray:11.1,4.8;stroke-dashoffset:0;stroke-opacity:0.8;stroke-width:3;"/>
   </g>
   <g id="line2d_30">
    <path clip-path="url(#pc9d6662aaa)" d="M 79.403324 377.64 
L 586.676051 24.84 
" style="fill:none;stroke:#ff0000;stroke-linecap:round;stroke-opacity:0.8;stroke-width:3;"/>
   </g>
   <g id="patch_3">
    <path d="M 54.039687 395.28 
L 54.039687 7.2 
" style="fill:none;stroke:#cccccc;stroke-linecap:square;stroke-linejoin:miter;"/>
   </g>
   <g id="patch_4">
    <path d="M 612.039688 395.28 
L 612.039688 7.2 
" style="fill:none;stroke:#cccccc;stroke-linecap:square;stroke-linejoin:miter;"/>
   </g>
   <g id="patch_5">
    <path d="M 54.039687 395.28 
L 612.039688 395.28 
" style="fill:none;stroke:#cccccc;stroke-linecap:square;stroke-linejoin:miter;"/>
   </g>
   <g id="patch_6">
    <path d="M 54.039687 7.2 
L 612.039688 7.2 
" style="fill:none;stroke:#cccccc;stroke-linecap:square;stroke-linejoin:miter;"/>
   </g>
   <g id="legend_1">
    <g id="line2d_31">
     <path d="M 233.059688 292.609687 
L 261.059687 292.609687 
" style="fill:none;stroke:#f39189;stroke-dasharray:11.1,4.8;stroke-dashoffset:0;stroke-opacity:0.8;stroke-width:3;"/>
    </g>
    <g id="line2d_32"/>
    <g id="text_15">
     <!-- Mean ROC (RandomForest AUC = 0.79 $\pm$ 0.19) -->
     <g style="fill:#262626;" transform="translate(272.259688 297.509687)scale(0.14 -0.14)">
      <defs>
       <path d="M 628 4666 
L 1569 4666 
L 2759 1491 
L 3956 4666 
L 4897 4666 
L 4897 0 
L 4281 0 
L 4281 4097 
L 3078 897 
L 2444 897 
L 1241 4097 
L 1241 0 
L 628 0 
L 628 4666 
z
" id="DejaVuSans-4d" transform="scale(0.015625)"/>
       <path d="M 3513 2113 
L 3513 0 
L 2938 0 
L 2938 2094 
Q 2938 2591 2744 2837 
Q 2550 3084 2163 3084 
Q 1697 3084 1428 2787 
Q 1159 2491 1159 1978 
L 1159 0 
L 581 0 
L 581 3500 
L 1159 3500 
L 1159 2956 
Q 1366 3272 1645 3428 
Q 1925 3584 2291 3584 
Q 2894 3584 3203 3211 
Q 3513 2838 3513 2113 
z
" id="DejaVuSans-6e" transform="scale(0.015625)"/>
       <path d="M 2522 4238 
Q 1834 4238 1429 3725 
Q 1025 3213 1025 2328 
Q 1025 1447 1429 934 
Q 1834 422 2522 422 
Q 3209 422 3611 934 
Q 4013 1447 4013 2328 
Q 4013 3213 3611 3725 
Q 3209 4238 2522 4238 
z
M 2522 4750 
Q 3503 4750 4090 4092 
Q 4678 3434 4678 2328 
Q 4678 1225 4090 567 
Q 3503 -91 2522 -91 
Q 1538 -91 948 565 
Q 359 1222 359 2328 
Q 359 3434 948 4092 
Q 1538 4750 2522 4750 
z
" id="DejaVuSans-4f" transform="scale(0.015625)"/>
       <path d="M 4122 4306 
L 4122 3641 
Q 3803 3938 3442 4084 
Q 3081 4231 2675 4231 
Q 1875 4231 1450 3742 
Q 1025 3253 1025 2328 
Q 1025 1406 1450 917 
Q 1875 428 2675 428 
Q 3081 428 3442 575 
Q 3803 722 4122 1019 
L 4122 359 
Q 3791 134 3420 21 
Q 3050 -91 2638 -91 
Q 1578 -91 968 557 
Q 359 1206 359 2328 
Q 359 3453 968 4101 
Q 1578 4750 2638 4750 
Q 3056 4750 3426 4639 
Q 3797 4528 4122 4306 
z
" id="DejaVuSans-43" transform="scale(0.015625)"/>
       <path d="M 1984 4856 
Q 1566 4138 1362 3434 
Q 1159 2731 1159 2009 
Q 1159 1288 1364 580 
Q 1569 -128 1984 -844 
L 1484 -844 
Q 1016 -109 783 600 
Q 550 1309 550 2009 
Q 550 2706 781 3412 
Q 1013 4119 1484 4856 
L 1984 4856 
z
" id="DejaVuSans-28" transform="scale(0.015625)"/>
       <path d="M 2906 2969 
L 2906 4863 
L 3481 4863 
L 3481 0 
L 2906 0 
L 2906 525 
Q 2725 213 2448 61 
Q 2172 -91 1784 -91 
Q 1150 -91 751 415 
Q 353 922 353 1747 
Q 353 2572 751 3078 
Q 1150 3584 1784 3584 
Q 2172 3584 2448 3432 
Q 2725 3281 2906 2969 
z
M 947 1747 
Q 947 1113 1208 752 
Q 1469 391 1925 391 
Q 2381 391 2643 752 
Q 2906 1113 2906 1747 
Q 2906 2381 2643 2742 
Q 2381 3103 1925 3103 
Q 1469 3103 1208 2742 
Q 947 2381 947 1747 
z
" id="DejaVuSans-64" transform="scale(0.015625)"/>
       <path d="M 3328 2828 
Q 3544 3216 3844 3400 
Q 4144 3584 4550 3584 
Q 5097 3584 5394 3201 
Q 5691 2819 5691 2113 
L 5691 0 
L 5113 0 
L 5113 2094 
Q 5113 2597 4934 2840 
Q 4756 3084 4391 3084 
Q 3944 3084 3684 2787 
Q 3425 2491 3425 1978 
L 3425 0 
L 2847 0 
L 2847 2094 
Q 2847 2600 2669 2842 
Q 2491 3084 2119 3084 
Q 1678 3084 1418 2786 
Q 1159 2488 1159 1978 
L 1159 0 
L 581 0 
L 581 3500 
L 1159 3500 
L 1159 2956 
Q 1356 3278 1631 3431 
Q 1906 3584 2284 3584 
Q 2666 3584 2933 3390 
Q 3200 3197 3328 2828 
z
" id="DejaVuSans-6d" transform="scale(0.015625)"/>
       <path d="M 2188 4044 
L 1331 1722 
L 3047 1722 
L 2188 4044 
z
M 1831 4666 
L 2547 4666 
L 4325 0 
L 3669 0 
L 3244 1197 
L 1141 1197 
L 716 0 
L 50 0 
L 1831 4666 
z
" id="DejaVuSans-41" transform="scale(0.015625)"/>
       <path d="M 556 4666 
L 1191 4666 
L 1191 1831 
Q 1191 1081 1462 751 
Q 1734 422 2344 422 
Q 2950 422 3222 751 
Q 3494 1081 3494 1831 
L 3494 4666 
L 4128 4666 
L 4128 1753 
Q 4128 841 3676 375 
Q 3225 -91 2344 -91 
Q 1459 -91 1007 375 
Q 556 841 556 1753 
L 556 4666 
z
" id="DejaVuSans-55" transform="scale(0.015625)"/>
       <path d="M 678 2906 
L 4684 2906 
L 4684 2381 
L 678 2381 
L 678 2906 
z
M 678 1631 
L 4684 1631 
L 4684 1100 
L 678 1100 
L 678 1631 
z
" id="DejaVuSans-3d" transform="scale(0.015625)"/>
       <path d="M 525 4666 
L 3525 4666 
L 3525 4397 
L 1831 0 
L 1172 0 
L 2766 4134 
L 525 4134 
L 525 4666 
z
" id="DejaVuSans-37" transform="scale(0.015625)"/>
       <path d="M 703 97 
L 703 672 
Q 941 559 1184 500 
Q 1428 441 1663 441 
Q 2288 441 2617 861 
Q 2947 1281 2994 2138 
Q 2813 1869 2534 1725 
Q 2256 1581 1919 1581 
Q 1219 1581 811 2004 
Q 403 2428 403 3163 
Q 403 3881 828 4315 
Q 1253 4750 1959 4750 
Q 2769 4750 3195 4129 
Q 3622 3509 3622 2328 
Q 3622 1225 3098 567 
Q 2575 -91 1691 -91 
Q 1453 -91 1209 -44 
Q 966 3 703 97 
z
M 1959 2075 
Q 2384 2075 2632 2365 
Q 2881 2656 2881 3163 
Q 2881 3666 2632 3958 
Q 2384 4250 1959 4250 
Q 1534 4250 1286 3958 
Q 1038 3666 1038 3163 
Q 1038 2656 1286 2365 
Q 1534 2075 1959 2075 
z
" id="DejaVuSans-39" transform="scale(0.015625)"/>
       <path d="M 2944 4013 
L 2944 2803 
L 4684 2803 
L 4684 2272 
L 2944 2272 
L 2944 1063 
L 2419 1063 
L 2419 2272 
L 678 2272 
L 678 2803 
L 2419 2803 
L 2419 4013 
L 2944 4013 
z
M 678 531 
L 4684 531 
L 4684 0 
L 678 0 
L 678 531 
z
" id="DejaVuSans-b1" transform="scale(0.015625)"/>
       <path d="M 513 4856 
L 1013 4856 
Q 1481 4119 1714 3412 
Q 1947 2706 1947 2009 
Q 1947 1309 1714 600 
Q 1481 -109 1013 -844 
L 513 -844 
Q 928 -128 1133 580 
Q 1338 1288 1338 2009 
Q 1338 2731 1133 3434 
Q 928 4138 513 4856 
z
" id="DejaVuSans-29" transform="scale(0.015625)"/>
      </defs>
      <use transform="translate(0 0.015625)" xlink:href="#DejaVuSans-4d"/>
      <use transform="translate(86.279297 0.015625)" xlink:href="#DejaVuSans-65"/>
      <use transform="translate(147.802734 0.015625)" xlink:href="#DejaVuSans-61"/>
      <use transform="translate(209.082031 0.015625)" xlink:href="#DejaVuSans-6e"/>
      <use transform="translate(272.460938 0.015625)" xlink:href="#DejaVuSans-20"/>
      <use transform="translate(304.248047 0.015625)" xlink:href="#DejaVuSans-52"/>
      <use transform="translate(373.730469 0.015625)" xlink:href="#DejaVuSans-4f"/>
      <use transform="translate(452.441406 0.015625)" xlink:href="#DejaVuSans-43"/>
      <use transform="translate(522.265625 0.015625)" xlink:href="#DejaVuSans-20"/>
      <use transform="translate(554.052734 0.015625)" xlink:href="#DejaVuSans-28"/>
      <use transform="translate(593.066406 0.015625)" xlink:href="#DejaVuSans-52"/>
      <use transform="translate(662.548828 0.015625)" xlink:href="#DejaVuSans-61"/>
      <use transform="translate(723.828125 0.015625)" xlink:href="#DejaVuSans-6e"/>
      <use transform="translate(787.207031 0.015625)" xlink:href="#DejaVuSans-64"/>
      <use transform="translate(850.683594 0.015625)" xlink:href="#DejaVuSans-6f"/>
      <use transform="translate(911.865234 0.015625)" xlink:href="#DejaVuSans-6d"/>
      <use transform="translate(1009.277344 0.015625)" xlink:href="#DejaVuSans-46"/>
      <use transform="translate(1066.796875 0.015625)" xlink:href="#DejaVuSans-6f"/>
      <use transform="translate(1127.978516 0.015625)" xlink:href="#DejaVuSans-72"/>
      <use transform="translate(1169.091797 0.015625)" xlink:href="#DejaVuSans-65"/>
      <use transform="translate(1230.615234 0.015625)" xlink:href="#DejaVuSans-73"/>
      <use transform="translate(1282.714844 0.015625)" xlink:href="#DejaVuSans-74"/>
      <use transform="translate(1321.923828 0.015625)" xlink:href="#DejaVuSans-20"/>
      <use transform="translate(1353.710938 0.015625)" xlink:href="#DejaVuSans-41"/>
      <use transform="translate(1422.119141 0.015625)" xlink:href="#DejaVuSans-55"/>
      <use transform="translate(1495.3125 0.015625)" xlink:href="#DejaVuSans-43"/>
      <use transform="translate(1565.136719 0.015625)" xlink:href="#DejaVuSans-20"/>
      <use transform="translate(1596.923828 0.015625)" xlink:href="#DejaVuSans-3d"/>
      <use transform="translate(1680.712891 0.015625)" xlink:href="#DejaVuSans-20"/>
      <use transform="translate(1712.5 0.015625)" xlink:href="#DejaVuSans-30"/>
      <use transform="translate(1776.123047 0.015625)" xlink:href="#DejaVuSans-2e"/>
      <use transform="translate(1800.160156 0.015625)" xlink:href="#DejaVuSans-37"/>
      <use transform="translate(1863.783203 0.015625)" xlink:href="#DejaVuSans-39"/>
      <use transform="translate(1927.40625 0.015625)" xlink:href="#DejaVuSans-20"/>
      <use transform="translate(1959.193359 0.015625)" xlink:href="#DejaVuSans-b1"/>
      <use transform="translate(2042.982422 0.015625)" xlink:href="#DejaVuSans-20"/>
      <use transform="translate(2074.769531 0.015625)" xlink:href="#DejaVuSans-30"/>
      <use transform="translate(2138.392578 0.015625)" xlink:href="#DejaVuSans-2e"/>
      <use transform="translate(2170.179688 0.015625)" xlink:href="#DejaVuSans-31"/>
      <use transform="translate(2233.802734 0.015625)" xlink:href="#DejaVuSans-39"/>
      <use transform="translate(2297.425781 0.015625)" xlink:href="#DejaVuSans-29"/>
     </g>
    </g>
    <g id="line2d_33">
     <path d="M 233.059688 313.159062 
L 261.059687 313.159062 
" style="fill:none;stroke:#9a86a4;stroke-dasharray:11.1,4.8;stroke-dashoffset:0;stroke-opacity:0.8;stroke-width:3;"/>
    </g>
    <g id="line2d_34"/>
    <g id="text_16">
     <!-- Mean ROC (DecisionTree AUC = 0.93 $\pm$ 0.04) -->
     <g style="fill:#262626;" transform="translate(272.259688 318.059062)scale(0.14 -0.14)">
      <defs>
       <path d="M 1259 4147 
L 1259 519 
L 2022 519 
Q 2988 519 3436 956 
Q 3884 1394 3884 2338 
Q 3884 3275 3436 3711 
Q 2988 4147 2022 4147 
L 1259 4147 
z
M 628 4666 
L 1925 4666 
Q 3281 4666 3915 4102 
Q 4550 3538 4550 2338 
Q 4550 1131 3912 565 
Q 3275 0 1925 0 
L 628 0 
L 628 4666 
z
" id="DejaVuSans-44" transform="scale(0.015625)"/>
       <path d="M 3122 3366 
L 3122 2828 
Q 2878 2963 2633 3030 
Q 2388 3097 2138 3097 
Q 1578 3097 1268 2742 
Q 959 2388 959 1747 
Q 959 1106 1268 751 
Q 1578 397 2138 397 
Q 2388 397 2633 464 
Q 2878 531 3122 666 
L 3122 134 
Q 2881 22 2623 -34 
Q 2366 -91 2075 -91 
Q 1284 -91 818 406 
Q 353 903 353 1747 
Q 353 2603 823 3093 
Q 1294 3584 2113 3584 
Q 2378 3584 2631 3529 
Q 2884 3475 3122 3366 
z
" id="DejaVuSans-63" transform="scale(0.015625)"/>
       <path d="M 2597 2516 
Q 3050 2419 3304 2112 
Q 3559 1806 3559 1356 
Q 3559 666 3084 287 
Q 2609 -91 1734 -91 
Q 1441 -91 1130 -33 
Q 819 25 488 141 
L 488 750 
Q 750 597 1062 519 
Q 1375 441 1716 441 
Q 2309 441 2620 675 
Q 2931 909 2931 1356 
Q 2931 1769 2642 2001 
Q 2353 2234 1838 2234 
L 1294 2234 
L 1294 2753 
L 1863 2753 
Q 2328 2753 2575 2939 
Q 2822 3125 2822 3475 
Q 2822 3834 2567 4026 
Q 2313 4219 1838 4219 
Q 1578 4219 1281 4162 
Q 984 4106 628 3988 
L 628 4550 
Q 988 4650 1302 4700 
Q 1616 4750 1894 4750 
Q 2613 4750 3031 4423 
Q 3450 4097 3450 3541 
Q 3450 3153 3228 2886 
Q 3006 2619 2597 2516 
z
" id="DejaVuSans-33" transform="scale(0.015625)"/>
      </defs>
      <use transform="translate(0 0.015625)" xlink:href="#DejaVuSans-4d"/>
      <use transform="translate(86.279297 0.015625)" xlink:href="#DejaVuSans-65"/>
      <use transform="translate(147.802734 0.015625)" xlink:href="#DejaVuSans-61"/>
      <use transform="translate(209.082031 0.015625)" xlink:href="#DejaVuSans-6e"/>
      <use transform="translate(272.460938 0.015625)" xlink:href="#DejaVuSans-20"/>
      <use transform="translate(304.248047 0.015625)" xlink:href="#DejaVuSans-52"/>
      <use transform="translate(373.730469 0.015625)" xlink:href="#DejaVuSans-4f"/>
      <use transform="translate(452.441406 0.015625)" xlink:href="#DejaVuSans-43"/>
      <use transform="translate(522.265625 0.015625)" xlink:href="#DejaVuSans-20"/>
      <use transform="translate(554.052734 0.015625)" xlink:href="#DejaVuSans-28"/>
      <use transform="translate(593.066406 0.015625)" xlink:href="#DejaVuSans-44"/>
      <use transform="translate(670.068359 0.015625)" xlink:href="#DejaVuSans-65"/>
      <use transform="translate(731.591797 0.015625)" xlink:href="#DejaVuSans-63"/>
      <use transform="translate(786.572266 0.015625)" xlink:href="#DejaVuSans-69"/>
      <use transform="translate(814.355469 0.015625)" xlink:href="#DejaVuSans-73"/>
      <use transform="translate(866.455078 0.015625)" xlink:href="#DejaVuSans-69"/>
      <use transform="translate(894.238281 0.015625)" xlink:href="#DejaVuSans-6f"/>
      <use transform="translate(955.419922 0.015625)" xlink:href="#DejaVuSans-6e"/>
      <use transform="translate(1018.798828 0.015625)" xlink:href="#DejaVuSans-54"/>
      <use transform="translate(1079.882812 0.015625)" xlink:href="#DejaVuSans-72"/>
      <use transform="translate(1120.996094 0.015625)" xlink:href="#DejaVuSans-65"/>
      <use transform="translate(1182.519531 0.015625)" xlink:href="#DejaVuSans-65"/>
      <use transform="translate(1244.042969 0.015625)" xlink:href="#DejaVuSans-20"/>
      <use transform="translate(1275.830078 0.015625)" xlink:href="#DejaVuSans-41"/>
      <use transform="translate(1344.238281 0.015625)" xlink:href="#DejaVuSans-55"/>
      <use transform="translate(1417.431641 0.015625)" xlink:href="#DejaVuSans-43"/>
      <use transform="translate(1487.255859 0.015625)" xlink:href="#DejaVuSans-20"/>
      <use transform="translate(1519.042969 0.015625)" xlink:href="#DejaVuSans-3d"/>
      <use transform="translate(1602.832031 0.015625)" xlink:href="#DejaVuSans-20"/>
      <use transform="translate(1634.619141 0.015625)" xlink:href="#DejaVuSans-30"/>
      <use transform="translate(1698.242188 0.015625)" xlink:href="#DejaVuSans-2e"/>
      <use transform="translate(1730.029297 0.015625)" xlink:href="#DejaVuSans-39"/>
      <use transform="translate(1793.652344 0.015625)" xlink:href="#DejaVuSans-33"/>
      <use transform="translate(1857.275391 0.015625)" xlink:href="#DejaVuSans-20"/>
      <use transform="translate(1889.0625 0.015625)" xlink:href="#DejaVuSans-b1"/>
      <use transform="translate(1972.851562 0.015625)" xlink:href="#DejaVuSans-20"/>
      <use transform="translate(2004.638672 0.015625)" xlink:href="#DejaVuSans-30"/>
      <use transform="translate(2068.261719 0.015625)" xlink:href="#DejaVuSans-2e"/>
      <use transform="translate(2100.048828 0.015625)" xlink:href="#DejaVuSans-30"/>
      <use transform="translate(2163.671875 0.015625)" xlink:href="#DejaVuSans-34"/>
      <use transform="translate(2227.294922 0.015625)" xlink:href="#DejaVuSans-29"/>
     </g>
    </g>
    <g id="line2d_35">
     <path d="M 233.059688 333.708437 
L 261.059687 333.708437 
" style="fill:none;stroke:#e2c2b9;stroke-dasharray:11.1,4.8;stroke-dashoffset:0;stroke-opacity:0.8;stroke-width:3;"/>
    </g>
    <g id="line2d_36"/>
    <g id="text_17">
     <!-- Mean ROC (KNN AUC = 0.57 $\pm$ 0.17) -->
     <g style="fill:#262626;" transform="translate(272.259688 338.608437)scale(0.14 -0.14)">
      <defs>
       <path d="M 628 4666 
L 1259 4666 
L 1259 2694 
L 3353 4666 
L 4166 4666 
L 1850 2491 
L 4331 0 
L 3500 0 
L 1259 2247 
L 1259 0 
L 628 0 
L 628 4666 
z
" id="DejaVuSans-4b" transform="scale(0.015625)"/>
       <path d="M 628 4666 
L 1478 4666 
L 3547 763 
L 3547 4666 
L 4159 4666 
L 4159 0 
L 3309 0 
L 1241 3903 
L 1241 0 
L 628 0 
L 628 4666 
z
" id="DejaVuSans-4e" transform="scale(0.015625)"/>
       <path d="M 691 4666 
L 3169 4666 
L 3169 4134 
L 1269 4134 
L 1269 2991 
Q 1406 3038 1543 3061 
Q 1681 3084 1819 3084 
Q 2600 3084 3056 2656 
Q 3513 2228 3513 1497 
Q 3513 744 3044 326 
Q 2575 -91 1722 -91 
Q 1428 -91 1123 -41 
Q 819 9 494 109 
L 494 744 
Q 775 591 1075 516 
Q 1375 441 1709 441 
Q 2250 441 2565 725 
Q 2881 1009 2881 1497 
Q 2881 1984 2565 2268 
Q 2250 2553 1709 2553 
Q 1456 2553 1204 2497 
Q 953 2441 691 2322 
L 691 4666 
z
" id="DejaVuSans-35" transform="scale(0.015625)"/>
      </defs>
      <use transform="translate(0 0.125)" xlink:href="#DejaVuSans-4d"/>
      <use transform="translate(86.279297 0.125)" xlink:href="#DejaVuSans-65"/>
      <use transform="translate(147.802734 0.125)" xlink:href="#DejaVuSans-61"/>
      <use transform="translate(209.082031 0.125)" xlink:href="#DejaVuSans-6e"/>
      <use transform="translate(272.460938 0.125)" xlink:href="#DejaVuSans-20"/>
      <use transform="translate(304.248047 0.125)" xlink:href="#DejaVuSans-52"/>
      <use transform="translate(373.730469 0.125)" xlink:href="#DejaVuSans-4f"/>
      <use transform="translate(452.441406 0.125)" xlink:href="#DejaVuSans-43"/>
      <use transform="translate(522.265625 0.125)" xlink:href="#DejaVuSans-20"/>
      <use transform="translate(554.052734 0.125)" xlink:href="#DejaVuSans-28"/>
      <use transform="translate(593.066406 0.125)" xlink:href="#DejaVuSans-4b"/>
      <use transform="translate(658.642578 0.125)" xlink:href="#DejaVuSans-4e"/>
      <use transform="translate(733.447266 0.125)" xlink:href="#DejaVuSans-4e"/>
      <use transform="translate(808.251953 0.125)" xlink:href="#DejaVuSans-20"/>
      <use transform="translate(840.039062 0.125)" xlink:href="#DejaVuSans-41"/>
      <use transform="translate(908.447266 0.125)" xlink:href="#DejaVuSans-55"/>
      <use transform="translate(981.640625 0.125)" xlink:href="#DejaVuSans-43"/>
      <use transform="translate(1051.464844 0.125)" xlink:href="#DejaVuSans-20"/>
      <use transform="translate(1083.251953 0.125)" xlink:href="#DejaVuSans-3d"/>
      <use transform="translate(1167.041016 0.125)" xlink:href="#DejaVuSans-20"/>
      <use transform="translate(1198.828125 0.125)" xlink:href="#DejaVuSans-30"/>
      <use transform="translate(1262.451172 0.125)" xlink:href="#DejaVuSans-2e"/>
      <use transform="translate(1294.238281 0.125)" xlink:href="#DejaVuSans-35"/>
      <use transform="translate(1350.611328 0.125)" xlink:href="#DejaVuSans-37"/>
      <use transform="translate(1414.234375 0.125)" xlink:href="#DejaVuSans-20"/>
      <use transform="translate(1446.021484 0.125)" xlink:href="#DejaVuSans-b1"/>
      <use transform="translate(1529.810547 0.125)" xlink:href="#DejaVuSans-20"/>
      <use transform="translate(1561.597656 0.125)" xlink:href="#DejaVuSans-30"/>
      <use transform="translate(1625.220703 0.125)" xlink:href="#DejaVuSans-2e"/>
      <use transform="translate(1657.007812 0.125)" xlink:href="#DejaVuSans-31"/>
      <use transform="translate(1720.630859 0.125)" xlink:href="#DejaVuSans-37"/>
      <use transform="translate(1784.253906 0.125)" xlink:href="#DejaVuSans-29"/>
     </g>
    </g>
    <g id="line2d_37">
     <path d="M 233.059688 354.26 
L 261.059687 354.26 
" style="fill:none;stroke:#555555;stroke-dasharray:11.1,4.8;stroke-dashoffset:0;stroke-opacity:0.8;stroke-width:3;"/>
    </g>
    <g id="line2d_38"/>
    <g id="text_18">
     <!-- Mean ROC (Xgboost AUC = 0.59 $\pm$ 0.10) -->
     <g style="fill:#262626;" transform="translate(272.259688 359.16)scale(0.14 -0.14)">
      <defs>
       <path d="M 403 4666 
L 1081 4666 
L 2241 2931 
L 3406 4666 
L 4084 4666 
L 2584 2425 
L 4184 0 
L 3506 0 
L 2194 1984 
L 872 0 
L 191 0 
L 1856 2491 
L 403 4666 
z
" id="DejaVuSans-58" transform="scale(0.015625)"/>
       <path d="M 2906 1791 
Q 2906 2416 2648 2759 
Q 2391 3103 1925 3103 
Q 1463 3103 1205 2759 
Q 947 2416 947 1791 
Q 947 1169 1205 825 
Q 1463 481 1925 481 
Q 2391 481 2648 825 
Q 2906 1169 2906 1791 
z
M 3481 434 
Q 3481 -459 3084 -895 
Q 2688 -1331 1869 -1331 
Q 1566 -1331 1297 -1286 
Q 1028 -1241 775 -1147 
L 775 -588 
Q 1028 -725 1275 -790 
Q 1522 -856 1778 -856 
Q 2344 -856 2625 -561 
Q 2906 -266 2906 331 
L 2906 616 
Q 2728 306 2450 153 
Q 2172 0 1784 0 
Q 1141 0 747 490 
Q 353 981 353 1791 
Q 353 2603 747 3093 
Q 1141 3584 1784 3584 
Q 2172 3584 2450 3431 
Q 2728 3278 2906 2969 
L 2906 3500 
L 3481 3500 
L 3481 434 
z
" id="DejaVuSans-67" transform="scale(0.015625)"/>
       <path d="M 3116 1747 
Q 3116 2381 2855 2742 
Q 2594 3103 2138 3103 
Q 1681 3103 1420 2742 
Q 1159 2381 1159 1747 
Q 1159 1113 1420 752 
Q 1681 391 2138 391 
Q 2594 391 2855 752 
Q 3116 1113 3116 1747 
z
M 1159 2969 
Q 1341 3281 1617 3432 
Q 1894 3584 2278 3584 
Q 2916 3584 3314 3078 
Q 3713 2572 3713 1747 
Q 3713 922 3314 415 
Q 2916 -91 2278 -91 
Q 1894 -91 1617 61 
Q 1341 213 1159 525 
L 1159 0 
L 581 0 
L 581 4863 
L 1159 4863 
L 1159 2969 
z
" id="DejaVuSans-62" transform="scale(0.015625)"/>
      </defs>
      <use transform="translate(0 0.015625)" xlink:href="#DejaVuSans-4d"/>
      <use transform="translate(86.279297 0.015625)" xlink:href="#DejaVuSans-65"/>
      <use transform="translate(147.802734 0.015625)" xlink:href="#DejaVuSans-61"/>
      <use transform="translate(209.082031 0.015625)" xlink:href="#DejaVuSans-6e"/>
      <use transform="translate(272.460938 0.015625)" xlink:href="#DejaVuSans-20"/>
      <use transform="translate(304.248047 0.015625)" xlink:href="#DejaVuSans-52"/>
      <use transform="translate(373.730469 0.015625)" xlink:href="#DejaVuSans-4f"/>
      <use transform="translate(452.441406 0.015625)" xlink:href="#DejaVuSans-43"/>
      <use transform="translate(522.265625 0.015625)" xlink:href="#DejaVuSans-20"/>
      <use transform="translate(554.052734 0.015625)" xlink:href="#DejaVuSans-28"/>
      <use transform="translate(593.066406 0.015625)" xlink:href="#DejaVuSans-58"/>
      <use transform="translate(661.572266 0.015625)" xlink:href="#DejaVuSans-67"/>
      <use transform="translate(725.048828 0.015625)" xlink:href="#DejaVuSans-62"/>
      <use transform="translate(788.525391 0.015625)" xlink:href="#DejaVuSans-6f"/>
      <use transform="translate(849.707031 0.015625)" xlink:href="#DejaVuSans-6f"/>
      <use transform="translate(910.888672 0.015625)" xlink:href="#DejaVuSans-73"/>
      <use transform="translate(962.988281 0.015625)" xlink:href="#DejaVuSans-74"/>
      <use transform="translate(1002.197266 0.015625)" xlink:href="#DejaVuSans-20"/>
      <use transform="translate(1033.984375 0.015625)" xlink:href="#DejaVuSans-41"/>
      <use transform="translate(1102.392578 0.015625)" xlink:href="#DejaVuSans-55"/>
      <use transform="translate(1175.585938 0.015625)" xlink:href="#DejaVuSans-43"/>
      <use transform="translate(1245.410156 0.015625)" xlink:href="#DejaVuSans-20"/>
      <use transform="translate(1277.197266 0.015625)" xlink:href="#DejaVuSans-3d"/>
      <use transform="translate(1360.986328 0.015625)" xlink:href="#DejaVuSans-20"/>
      <use transform="translate(1392.773438 0.015625)" xlink:href="#DejaVuSans-30"/>
      <use transform="translate(1456.396484 0.015625)" xlink:href="#DejaVuSans-2e"/>
      <use transform="translate(1488.183594 0.015625)" xlink:href="#DejaVuSans-35"/>
      <use transform="translate(1546.306641 0.015625)" xlink:href="#DejaVuSans-39"/>
      <use transform="translate(1609.929688 0.015625)" xlink:href="#DejaVuSans-20"/>
      <use transform="translate(1641.716797 0.015625)" xlink:href="#DejaVuSans-b1"/>
      <use transform="translate(1725.505859 0.015625)" xlink:href="#DejaVuSans-20"/>
      <use transform="translate(1757.292969 0.015625)" xlink:href="#DejaVuSans-30"/>
      <use transform="translate(1820.916016 0.015625)" xlink:href="#DejaVuSans-2e"/>
      <use transform="translate(1852.703125 0.015625)" xlink:href="#DejaVuSans-31"/>
      <use transform="translate(1916.326172 0.015625)" xlink:href="#DejaVuSans-30"/>
      <use transform="translate(1979.949219 0.015625)" xlink:href="#DejaVuSans-29"/>
     </g>
    </g>
    <g id="line2d_39">
     <path d="M 233.059688 374.84 
L 261.059687 374.84 
" style="fill:none;stroke:#a1cae2;stroke-dasharray:11.1,4.8;stroke-dashoffset:0;stroke-opacity:0.8;stroke-width:3;"/>
    </g>
    <g id="line2d_40"/>
    <g id="text_19">
     <!-- Mean ROC (SynClass AUC = 0.76 $\pm$ 0.00) -->
     <g style="fill:#262626;" transform="translate(272.259688 379.74)scale(0.14 -0.14)">
      <defs>
       <path d="M 3425 4513 
L 3425 3897 
Q 3066 4069 2747 4153 
Q 2428 4238 2131 4238 
Q 1616 4238 1336 4038 
Q 1056 3838 1056 3469 
Q 1056 3159 1242 3001 
Q 1428 2844 1947 2747 
L 2328 2669 
Q 3034 2534 3370 2195 
Q 3706 1856 3706 1288 
Q 3706 609 3251 259 
Q 2797 -91 1919 -91 
Q 1588 -91 1214 -16 
Q 841 59 441 206 
L 441 856 
Q 825 641 1194 531 
Q 1563 422 1919 422 
Q 2459 422 2753 634 
Q 3047 847 3047 1241 
Q 3047 1584 2836 1778 
Q 2625 1972 2144 2069 
L 1759 2144 
Q 1053 2284 737 2584 
Q 422 2884 422 3419 
Q 422 4038 858 4394 
Q 1294 4750 2059 4750 
Q 2388 4750 2728 4690 
Q 3069 4631 3425 4513 
z
" id="DejaVuSans-53" transform="scale(0.015625)"/>
       <path d="M 2059 -325 
Q 1816 -950 1584 -1140 
Q 1353 -1331 966 -1331 
L 506 -1331 
L 506 -850 
L 844 -850 
Q 1081 -850 1212 -737 
Q 1344 -625 1503 -206 
L 1606 56 
L 191 3500 
L 800 3500 
L 1894 763 
L 2988 3500 
L 3597 3500 
L 2059 -325 
z
" id="DejaVuSans-79" transform="scale(0.015625)"/>
      </defs>
      <use transform="translate(0 0.015625)" xlink:href="#DejaVuSans-4d"/>
      <use transform="translate(86.279297 0.015625)" xlink:href="#DejaVuSans-65"/>
      <use transform="translate(147.802734 0.015625)" xlink:href="#DejaVuSans-61"/>
      <use transform="translate(209.082031 0.015625)" xlink:href="#DejaVuSans-6e"/>
      <use transform="translate(272.460938 0.015625)" xlink:href="#DejaVuSans-20"/>
      <use transform="translate(304.248047 0.015625)" xlink:href="#DejaVuSans-52"/>
      <use transform="translate(373.730469 0.015625)" xlink:href="#DejaVuSans-4f"/>
      <use transform="translate(452.441406 0.015625)" xlink:href="#DejaVuSans-43"/>
      <use transform="translate(522.265625 0.015625)" xlink:href="#DejaVuSans-20"/>
      <use transform="translate(554.052734 0.015625)" xlink:href="#DejaVuSans-28"/>
      <use transform="translate(593.066406 0.015625)" xlink:href="#DejaVuSans-53"/>
      <use transform="translate(656.542969 0.015625)" xlink:href="#DejaVuSans-79"/>
      <use transform="translate(715.722656 0.015625)" xlink:href="#DejaVuSans-6e"/>
      <use transform="translate(779.101562 0.015625)" xlink:href="#DejaVuSans-43"/>
      <use transform="translate(848.925781 0.015625)" xlink:href="#DejaVuSans-6c"/>
      <use transform="translate(876.708984 0.015625)" xlink:href="#DejaVuSans-61"/>
      <use transform="translate(937.988281 0.015625)" xlink:href="#DejaVuSans-73"/>
      <use transform="translate(990.087891 0.015625)" xlink:href="#DejaVuSans-73"/>
      <use transform="translate(1042.1875 0.015625)" xlink:href="#DejaVuSans-20"/>
      <use transform="translate(1073.974609 0.015625)" xlink:href="#DejaVuSans-41"/>
      <use transform="translate(1142.382812 0.015625)" xlink:href="#DejaVuSans-55"/>
      <use transform="translate(1215.576172 0.015625)" xlink:href="#DejaVuSans-43"/>
      <use transform="translate(1285.400391 0.015625)" xlink:href="#DejaVuSans-20"/>
      <use transform="translate(1317.1875 0.015625)" xlink:href="#DejaVuSans-3d"/>
      <use transform="translate(1400.976562 0.015625)" xlink:href="#DejaVuSans-20"/>
      <use transform="translate(1432.763672 0.015625)" xlink:href="#DejaVuSans-30"/>
      <use transform="translate(1496.386719 0.015625)" xlink:href="#DejaVuSans-2e"/>
      <use transform="translate(1520.423828 0.015625)" xlink:href="#DejaVuSans-37"/>
      <use transform="translate(1584.046875 0.015625)" xlink:href="#DejaVuSans-36"/>
      <use transform="translate(1647.669922 0.015625)" xlink:href="#DejaVuSans-20"/>
      <use transform="translate(1679.457031 0.015625)" xlink:href="#DejaVuSans-b1"/>
      <use transform="translate(1763.246094 0.015625)" xlink:href="#DejaVuSans-20"/>
      <use transform="translate(1795.033203 0.015625)" xlink:href="#DejaVuSans-30"/>
      <use transform="translate(1858.65625 0.015625)" xlink:href="#DejaVuSans-2e"/>
      <use transform="translate(1890.443359 0.015625)" xlink:href="#DejaVuSans-30"/>
      <use transform="translate(1954.066406 0.015625)" xlink:href="#DejaVuSans-30"/>
      <use transform="translate(2017.689453 0.015625)" xlink:href="#DejaVuSans-29"/>
     </g>
    </g>
   </g>
  </g>
 </g>
 <defs>
  <clipPath id="pc9d6662aaa">
   <rect height="388.08" width="558" x="54.039687" y="7.2"/>
  </clipPath>
 </defs>
</svg>
